<svg width="153" height="44" viewBox="0 0 153 44" xmlns="http://www.w3.org/2000/svg"><title>decorate_separator</title><path d="M36 4.11l.027.096c.03.01.06.024.09.035 2.204.81 4.433 1.558 6.606 2.443 3.47 1.415 6.8 3.123 9.998 5.066 2.952 1.793 5.867 3.645 8.78 5.497 3.026 1.92 6.03 3.872 9.045 5.81 3.162 2.032 6.293 4.115 9.495 6.084 3.204 1.973 6.468 3.852 9.728 5.734 2.356 1.36 4.762 2.63 7.294 3.657 3.07 1.247 6.232 2.145 9.553 2.396 3.33.252 6.595-.143 9.78-1.14.542-.17 1.07-.382 1.605-.575-.108-.108-.198-.145-.29-.172-2.682-.803-5.293-1.79-7.86-2.902-4.077-1.77-7.965-3.894-11.807-6.105-2.082-1.197-4.14-2.446-6.158-3.747-4.465-2.876-8.89-5.81-13.35-8.7-2.924-1.893-5.848-3.795-8.828-5.604-2.498-1.516-5.05-2.945-7.627-4.326-1.727-.925-3.524-1.726-5.314-2.533C54 3.876 51.154 2.863 48.142 2.356c-1.774-.298-3.56-.438-5.354-.304-1.614.122-3.188.467-4.687 1.084-.712.294-1.4.648-2.1.975zM48.82 0c.74.07 1.48.133 2.218.21 3.042.318 5.97 1.095 8.83 2.166 2.75 1.03 5.36 2.356 7.9 3.815 3.24 1.864 6.497 3.705 9.662 5.692 3.98 2.5 7.872 5.137 11.805 7.71 3.048 1.997 6.086 4.007 9.152 5.974 2.536 1.627 5.078 3.25 7.67 4.784 3.586 2.123 7.338 3.918 11.26 5.335 1.54.556 3.115 1.013 4.68 1.5.11.033.3-.028.39-.112 1.864-1.73 2.426-3.832 1.75-6.276l-.054-.223 1.047-.527c.38 1.33.4 2.644.087 3.96-.31 1.306-.933 2.466-1.77 3.588.482.08.92.164 1.36.23 1.648.244 3.29.586 4.946.696 1.71.115 3.44.06 5.156-.028 2.042-.105 4.05-.483 6.01-1.09 3.26-1.012 5.947-2.836 7.937-5.626 1.726-2.418 2.51-5.13 2.337-8.1-.087-1.5-.73-2.804-1.597-4-1.917-2.65-4.458-4.55-7.322-6.054-2.18-1.145-4.47-1.995-6.874-2.54-2.38-.54-4.792-.635-7.218-.513-3.055.153-6.047.664-8.948 1.65-2.392.814-4.662 1.89-6.834 3.183-1.96 1.167-3.774 2.525-5.474 4.04-.028.026-.064.044-.096.065l-.082-.064c.525-.775 1.007-1.584 1.582-2.32 2.27-2.914 5.21-5.01 8.407-6.777 1.957-1.083 4.012-1.937 6.17-2.524 1.996-.544 4.02-.907 6.104-.934 4.238-.056 8.244.917 12.08 2.66 2.98 1.353 5.667 3.135 7.876 5.577 1.75 1.934 3.15 4.078 3.727 6.67.134.607.206 1.226.307 1.84v1.6c-.02.153-.05.304-.063.457-.172 2.084-.738 4.04-1.92 5.784-1.573 2.32-3.638 4.11-6.043 5.516-2.94 1.717-6.123 2.79-9.446 3.453-2.035.407-4.09.712-6.17.766-2.983.078-5.95-.036-8.862-.77-.102-.027-.247-.013-.333.042-1.758 1.137-3.676 1.902-5.687 2.437-1.99.53-4.017.837-6.072.96-.52.033-1.038.08-1.557.118h-2.735c-.684-.065-1.367-.127-2.05-.195-2.172-.22-4.294-.684-6.382-1.308-1.894-.567-3.744-1.266-5.52-2.13-1.794-.875-3.553-1.823-5.31-2.772-3.544-1.917-7.005-3.977-10.39-6.162-3.025-1.955-6.016-3.965-9.02-5.953-2.276-1.505-4.548-3.016-6.823-4.52-2.212-1.462-4.428-2.917-6.642-4.377-3.83-2.526-7.8-4.8-12-6.652-2.098-.924-4.265-1.69-6.394-2.548-.33-.133-.454-.027-.6.25-1.115 2.118-1.393 4.316-.68 6.618.02.062.03.126.052.21-.34.172-.675.34-1.056.53-.66-2.702-.676-5.325.506-7.92-.68-.2-1.31-.402-1.948-.575-1.92-.52-3.874-.893-5.86-1.005-1.617-.09-3.243-.103-4.862-.053-2.056.063-4.09.352-6.083.88-2.748.73-5.226 1.942-7.265 3.982-1.76 1.758-3.043 3.787-3.622 6.22-.427 1.79-.636 3.598-.03 5.397.456 1.348 1.242 2.5 2.175 3.558 1.862 2.11 4.1 3.717 6.594 4.992 2.264 1.156 4.625 2.03 7.117 2.54 2.366.483 4.758.535 7.16.4 2.2-.126 4.367-.46 6.502-1.01 2.59-.67 5.04-1.686 7.4-2.94 2.3-1.223 4.43-2.698 6.42-4.38.233-.198.453-.414.68-.622l.07.048c-.36.564-.704 1.138-1.08 1.69-1.63 2.386-3.808 4.195-6.17 5.8-2.13 1.444-4.395 2.632-6.818 3.507-2.723.984-5.517 1.603-8.424 1.62-2.23.012-4.43-.263-6.592-.816-3.17-.812-6.16-2.058-8.905-3.855-2.897-1.898-5.28-4.287-6.907-7.376C.623 23.682.19 22.194.06 20.622c-.008-.087-.04-.172-.06-.258v-1.67c.022-.13.053-.26.064-.39.17-2.145.78-4.144 2.012-5.924 1.205-1.742 2.713-3.19 4.44-4.403 2.58-1.813 5.446-3.012 8.473-3.833 2.888-.784 5.83-1.292 8.825-1.352 1.674-.033 3.356.046 5.027.17 1.683.127 3.337.478 4.97.92.128.034.332-.01.433-.097 1.618-1.4 3.506-2.27 5.537-2.862 1.573-.458 3.186-.68 4.815-.8.52-.038 1.038-.082 1.556-.123h2.668z" fill="#AE8159" fill-rule="evenodd" opacity=".8"/></svg>