<svg xmlns="http://www.w3.org/2000/svg" width="300" height="150" viewBox="0 0 300 150"><defs><style>.cls-1{fill:none;}.cls-2{fill:#e1dbd3;}</style></defs><g id="_111111" data-name="111111"><rect class="cls-1" width="300" height="150"/><path class="cls-2" d="M223.15-84.7a19,19,0,0,0-19,19,19,19,0,0,0,19,19,19,19,0,0,0,19-19A19,19,0,0,0,223.15-84.7Zm16,28.19h-.4a.17.17,0,0,1-.17-.17v-6.26c0-2.85-2.52-4.93-6-4.93a5.85,5.85,0,0,0-2.69.69.07.07,0,0,1-.08,0,.08.08,0,0,1,0-.07V-75.4h-.45v1.15a.6.6,0,0,1-.32.54.63.63,0,0,1-.66,0,9.64,9.64,0,0,0-5.49-1.7,9.7,9.7,0,0,0-7.22,3.23,9.61,9.61,0,0,0-2.41,7.56,9.73,9.73,0,0,0,8.36,8.51,9.66,9.66,0,0,0,7.74-2.4v1.43a.61.61,0,0,1-.61.61h-.43v.45h2.51v-.45h-.43a.61.61,0,0,1-.61-.61V-59a2.06,2.06,0,0,0,.52-1.34,2.05,2.05,0,0,0-.52-1.4v-4.55a.47.47,0,0,1,.29-.44,5.25,5.25,0,0,1,2.52-.67h0a1.51,1.51,0,0,1,1.12.42,4.53,4.53,0,0,1,.75,3v6.85a.61.61,0,0,1-.61.61h-.36v.45h5.36a18.41,18.41,0,0,1-15.69,8.81,18.45,18.45,0,0,1-18.42-18.42A18.45,18.45,0,0,1,223.15-84.1a18.45,18.45,0,0,1,18.42,18.43A18.29,18.29,0,0,1,239.12-56.51Zm-12.4-2.4a2.07,2.07,0,0,0,1.49.63h0a9.17,9.17,0,0,1-5.42,1.77h-.06c-2.5,0-4.81-.62-4.81-4.89v-8.69c0-4.31,2.57-4.88,4.81-4.89h.06a9.25,9.25,0,0,1,6,2.22,1.31,1.31,0,0,1,.46,1v9.67a2.06,2.06,0,0,0-1.07-.32h0a2.06,2.06,0,0,0-1.45.59A2.08,2.08,0,0,0,226.72-58.92Z" transform="translate(0 180)"/><path class="cls-2" d="M73.15-121.74a19,19,0,0,0,19-19,19,19,0,0,0-19-19,19,19,0,0,0-19,19A19,19,0,0,0,73.15-121.74Zm0-37.45a18.45,18.45,0,0,1,18.42,18.43,18.29,18.29,0,0,1-2.46,9.16h-.4a.17.17,0,0,1-.17-.17V-138c0-2.85-2.52-4.93-6-4.93a5.85,5.85,0,0,0-2.69.69.07.07,0,0,1-.08,0,.08.08,0,0,1,0-.07v-8.14h-.45v1.15a.6.6,0,0,1-.32.54.63.63,0,0,1-.66,0,9.64,9.64,0,0,0-5.49-1.7,9.7,9.7,0,0,0-7.22,3.23,9.61,9.61,0,0,0-2.41,7.56,9.73,9.73,0,0,0,8.36,8.51,9.66,9.66,0,0,0,7.74-2.4v1.43a.61.61,0,0,1-.61.61h-.43v.45h2.51v-.45h-.43a.61.61,0,0,1-.61-.61v-9.16a.47.47,0,0,1,.29-.44,5.25,5.25,0,0,1,2.52-.67h0a1.51,1.51,0,0,1,1.12.42,4.53,4.53,0,0,1,.75,3v6.85a.61.61,0,0,1-.61.61h-.36v.45h5.36a18.41,18.41,0,0,1-15.69,8.81,18.45,18.45,0,0,1-18.42-18.42A18.45,18.45,0,0,1,73.15-159.19Zm6.16,12.32v12.62a9.18,9.18,0,0,1-6.47,2.65h-.06c-2.5,0-4.81-.62-4.81-4.89v-8.69c0-4.31,2.57-4.88,4.81-4.89h.06a9.25,9.25,0,0,1,6,2.22A1.31,1.31,0,0,1,79.31-146.87Z" transform="translate(0 180)"/><circle class="cls-2" cx="148.05" cy="1.87" r="1.87"/><circle class="cls-2" cx="223.15" cy="39.32" r="1.87"/><circle class="cls-2" cx="298.05" cy="1.87" r="1.87"/><circle class="cls-2" cx="298.05" cy="76.87" r="1.87"/><path class="cls-2" d="M53.83-150.59,2.69-176.16l-.2.4,51.13,25.57Z" transform="translate(0 180)"/><path class="cls-2" d="M92.48-150.59l.21.4,51.13-25.57-.2-.4Z" transform="translate(0 180)"/><path class="cls-2" d="M53.83-130.76l-.21-.4L2.49-105.6l.2.4Z" transform="translate(0 180)"/><path class="cls-2" d="M92.48-130.76l51.14,25.57.2-.4L92.68-131.16Z" transform="translate(0 180)"/><path class="cls-2" d="M227.38-143c.07.13.15.26.21.4l66.22-33.11-.2-.4Z" transform="translate(0 180)"/><path class="cls-2" d="M218.92-143l-66.23-33.12-.2.4,66.22,33.11C218.77-142.79,218.85-142.91,218.92-143Z" transform="translate(0 180)"/><path class="cls-2" d="M218.92-138.31c-.07-.13-.15-.26-.21-.4L152.49-105.6l.2.4Z" transform="translate(0 180)"/><path class="cls-2" d="M227.38-138.31l66.23,33.12.2-.4L227.6-138.71C227.54-138.57,227.46-138.44,227.38-138.31Z" transform="translate(0 180)"/><path class="cls-2" d="M242.48-75.59l.21.4,51.13-25.57-.2-.4Z" transform="translate(0 180)"/><path class="cls-2" d="M152.49-100.76l51.13,25.57.21-.4-51.14-25.57Z" transform="translate(0 180)"/><path class="cls-2" d="M242.48-55.76,293.62-30.2l.2-.4L242.68-56.16Z" transform="translate(0 180)"/><path class="cls-2" d="M152.49-30.6l.2.4,51.14-25.57-.21-.4Z" transform="translate(0 180)"/><path class="cls-2" d="M77.38-68c.07.13.15.26.21.4l66.22-33.11-.2-.4Z" transform="translate(0 180)"/><path class="cls-2" d="M2.49-100.76,68.71-67.65c.06-.14.14-.26.21-.4L2.69-101.16Z" transform="translate(0 180)"/><path class="cls-2" d="M77.38-63.31,143.62-30.2l.2-.4L77.6-63.71C77.54-63.57,77.46-63.44,77.38-63.31Z" transform="translate(0 180)"/><path class="cls-2" d="M2.49-30.6l.2.4L68.92-63.31c-.07-.13-.15-.26-.21-.4Z" transform="translate(0 180)"/><circle class="cls-2" cx="73.15" cy="114.32" r="1.87"/><circle class="cls-2" cx="148.05" cy="76.87" r="1.87"/></g></svg>
