<svg id="Layer_1" data-name="Layer 1" xmlns="http://www.w3.org/2000/svg" width="300" height="150" viewBox="0 0 300 150"><title>bg_pattern</title><g id="_111111" data-name="111111"><path class="cls-1" d="M0 0h300v150H0z"/><path class="cls-2" d="M223.15 95.3a19 19 0 0 0-19 19 19 19 0 0 0 19 19 19 19 0 0 0 19-19 19 19 0 0 0-19-19zm16 28.19h-.4a.17.17 0 0 1-.17-.17v-6.26c0-2.85-2.52-4.93-6-4.93a5.85 5.85 0 0 0-2.69.69.07.07 0 0 1-.08 0 .08.08 0 0 1 0-.07v-8.15h-.45v1.15a.6.6 0 0 1-.32.54.63.63 0 0 1-.66 0 9.64 9.64 0 0 0-5.49-1.7 9.7 9.7 0 0 0-7.22 3.23 9.61 9.61 0 0 0-2.41 7.56 9.73 9.73 0 0 0 8.36 8.51 9.66 9.66 0 0 0 7.74-2.4v1.43a.61.61 0 0 1-.61.61h-.43v.45h2.51v-.45h-.43a.61.61 0 0 1-.61-.61V121a2.06 2.06 0 0 0 .52-1.34 2.05 2.05 0 0 0-.52-1.4v-4.55a.47.47 0 0 1 .29-.44 5.25 5.25 0 0 1 2.52-.67 1.51 1.51 0 0 1 1.12.42 4.53 4.53 0 0 1 .75 3v6.85a.61.61 0 0 1-.61.61h-.36v.45h5.36a18.41 18.41 0 0 1-15.69 8.81 18.45 18.45 0 0 1-18.42-18.42 18.45 18.45 0 0 1 18.4-18.42 18.45 18.45 0 0 1 18.42 18.43 18.29 18.29 0 0 1-2.45 9.16zm-12.4-2.4a2.07 2.07 0 0 0 1.49.63 9.17 9.17 0 0 1-5.42 1.77h-.06c-2.5 0-4.81-.62-4.81-4.89v-8.69c0-4.31 2.57-4.88 4.81-4.89h.06a9.25 9.25 0 0 1 6 2.22 1.31 1.31 0 0 1 .46 1v9.67a2.06 2.06 0 0 0-1.07-.32 2.06 2.06 0 0 0-1.45.59 2.08 2.08 0 0 0-.04 2.9zM73.15 58.26a19 19 0 0 0 19-19 19 19 0 0 0-19-19 19 19 0 0 0-19 19 19 19 0 0 0 19 19zm0-37.45a18.45 18.45 0 0 1 18.42 18.43 18.29 18.29 0 0 1-2.46 9.16h-.4a.17.17 0 0 1-.17-.17V42c0-2.85-2.52-4.93-6-4.93a5.85 5.85 0 0 0-2.69.69.07.07 0 0 1-.08 0 .08.08 0 0 1 0-.07v-8.14h-.45v1.15a.6.6 0 0 1-.32.54.63.63 0 0 1-.66 0 9.64 9.64 0 0 0-5.49-1.7 9.7 9.7 0 0 0-7.22 3.23 9.61 9.61 0 0 0-2.41 7.56 9.73 9.73 0 0 0 8.36 8.51 9.66 9.66 0 0 0 7.74-2.4v1.43a.61.61 0 0 1-.61.61h-.43v.45h2.51v-.45h-.43a.61.61 0 0 1-.61-.61v-9.16a.47.47 0 0 1 .29-.44 5.25 5.25 0 0 1 2.52-.67 1.51 1.51 0 0 1 1.12.42 4.53 4.53 0 0 1 .75 3v6.85a.61.61 0 0 1-.61.61h-.36v.45h5.36a18.41 18.41 0 0 1-15.69 8.81 18.45 18.45 0 0 1-18.42-18.42 18.45 18.45 0 0 1 18.44-18.51zm6.16 12.32v12.62a9.18 9.18 0 0 1-6.47 2.65h-.06c-2.5 0-4.81-.62-4.81-4.89v-8.69c0-4.31 2.57-4.88 4.81-4.89h.06a9.25 9.25 0 0 1 6 2.22 1.31 1.31 0 0 1 .47.98z"/><circle class="cls-2" cx="148.05" cy="1.87" r="1.87"/><circle class="cls-2" cx="223.15" cy="39.32" r="1.87"/><circle class="cls-2" cx="298.05" cy="1.87" r="1.87"/><circle class="cls-2" cx="298.05" cy="76.87" r="1.87"/><path class="cls-2" d="M53.83 29.41L2.69 3.84l-.2.4 51.13 25.57zM92.48 29.41l.21.4 51.13-25.57-.2-.4zM53.83 49.24l-.21-.4L2.49 74.4l.2.4zM92.48 49.24l51.14 25.57.2-.4-51.14-25.57zM227.38 37c.07.13.15.26.21.4l66.22-33.11-.2-.4zM218.92 37L152.69 3.88l-.2.4 66.22 33.11c.06-.18.14-.3.21-.39zM218.92 41.69c-.07-.13-.15-.26-.21-.4L152.49 74.4l.2.4zM227.38 41.69l66.23 33.12.2-.4-66.21-33.12c-.06.14-.14.27-.22.4zM242.48 104.41l.21.4 51.13-25.57-.2-.4zM152.49 79.24l51.13 25.57.21-.4-51.14-25.57zM242.48 124.24l51.14 25.56.2-.4-51.14-25.56zM152.49 149.4l.2.4 51.14-25.57-.21-.4zM77.38 112c.07.13.15.26.21.4l66.22-33.11-.2-.4zM2.49 79.24l66.22 33.11c.06-.14.14-.26.21-.4L2.69 78.84zM77.38 116.69l66.24 33.11.2-.4-66.22-33.11c-.06.14-.14.27-.22.4zM2.49 149.4l.2.4 66.23-33.11c-.07-.13-.15-.26-.21-.4z"/><circle class="cls-2" cx="73.15" cy="114.32" r="1.87"/><circle class="cls-2" cx="148.05" cy="76.87" r="1.87"/></g></svg>