<svg width="54" height="25" viewBox="0 0 54 25" xmlns="http://www.w3.org/2000/svg"><title>decorate_cards</title><path d="M22.91 13c-1.453-.532-2.9-1.082-4.364-1.585-2.17-.746-4.387-1.286-6.68-1.477-1.327-.11-2.652-.103-3.964.11-1.716.28-3.323.87-4.79 1.82-.96.62-1.793 1.372-2.38 2.364-.13.216-.287.483-.265.71.116 1.174.75 2.083 1.657 2.777 1.343 1.026 2.924 1.382 4.58 1.465 1.924.096 3.796-.243 5.635-.75 2.097-.576 4.11-1.387 6.025-2.425.963-.523 1.917-1.065 2.858-1.628.638-.38 1.247-.814 1.924-1.26-.12-.064-.176-.1-.236-.123zm6.037 1.75c1.596.666 3.18 1.36 4.792 1.987 1.325.517 2.674.98 4.025 1.43 1.658.55 3.358.92 5.103 1.077 1.687.15 3.355.077 4.973-.445 2.06-.666 3.663-1.96 4.99-3.657.633-.81.71-1.624.315-2.526-.267-.608-.665-1.127-1.16-1.566-1.088-.964-2.397-1.48-3.79-1.79-2.224-.5-4.453-.382-6.672.044-1.987.38-3.89 1.038-5.73 1.87-1.534.695-3.062 1.405-4.57 2.153-.787.39-1.526.876-2.286 1.318l.01.106zm-1.022-.49c.068.03.188-.02.267-.064 1.753-.99 3.466-2.06 5.266-2.956 1.74-.864 3.542-1.622 5.367-2.29 2.078-.762 4.24-1.212 6.466-1.324 1.725-.087 3.424.02 5.07.56 1.153.377 2.204.94 2.958 1.95.75 1.003.822 2.1.503 3.264-.124.455-.267.907-.367 1.368-.29 1.34-1.06 2.385-2.013 3.32-1.75 1.716-3.886 2.456-6.304 2.497-1.448.024-2.875-.14-4.268-.51-1.322-.35-2.64-.726-3.928-1.183-1.545-.548-3.062-1.174-4.577-1.8-1.38-.572-2.738-1.193-4.11-1.782-.093-.04-.25-.035-.333.017-1.226.772-2.455 1.54-3.66 2.342-.717.476-1.364 1.047-1.86 1.762-.41.59-.366 1.087.084 1.662.756.965 1.81 1.415 2.953 1.673 1.53.346 3.023.255 4.403-.57.354-.21.67-.497.967-.784.08-.077.064-.294.034-.434-.19-.88-.744-1.51-1.458-2.01-.286-.2-.593-.372-.887-.583.626.035 1.252.08 1.834.36.21.102.415.227.608.363.674.475.61 1.405.305 1.896-.12.193-.205.425-.238.65-.157 1.056-.707 1.845-1.586 2.42-1.596 1.047-3.305 1.16-5.07.562-.928-.315-1.735-.85-2.284-1.686-.555-.845-.613-1.755-.242-2.695.07-.176.13-.362.157-.548.134-.916.654-1.607 1.292-2.22 1.006-.962 2.213-1.64 3.4-2.347.15-.09.298-.188.5-.315-.987-.424-1.905-.828-2.834-1.202-.12-.05-.33.02-.456.1-1.236.797-2.438 1.65-3.698 2.407-2.13 1.28-4.344 2.397-6.738 3.097-1.378.402-2.768.784-4.176 1.053-1.7.324-3.428.36-5.14.03-1.16-.223-2.248-.665-3.096-1.516-.758-.76-1.154-1.706-1.002-2.804.127-.924.267-1.85.472-2.76.272-1.2 1.034-2.103 1.98-2.84C4.32 8.962 6.46 8.4 8.75 8.314c1.606-.057 3.183.143 4.75.483 1.686.366 3.333.86 4.94 1.477 1.572.605 3.128 1.254 4.69 1.882.096.038.46.223.542.253.326.12.605-.068.893-.303 1.184-.963 2.406-1.88 3.56-2.88.954-.828 1.693-1.85 2.255-2.99.12-.243.24-.487.337-.74.266-.682 0-1.66-.512-2.18-.942-.952-2.15-1.15-3.39-1.23-.986-.063-1.986-.057-2.915.33-.48.2-.912.524-1.35.812-.085.055-.156.22-.142.32.164 1.14.624 2.105 1.72 2.632.242.116.53.14.848.218-.72.426-1.445.586-2.19.244-.687-.316-.995-.923-1.04-1.67-.032-.53.14-.998.422-1.44.086-.134.144-.307.153-.465.07-1.326.927-2.248 2.093-2.657 1.624-.57 3.272-.522 4.907 0 1.166.373 1.98 1.452 1.992 2.68.004.38-.04.77-.107 1.146-.125.702-.257 1.404-.432 2.095-.31 1.213-.928 2.285-1.798 3.155-.98.98-2.073 1.848-3.122 2.76-.27.235-.562.447-.883.7 1.016.456 1.98.892 2.952 1.315z" fill="#AE8159" fill-rule="evenodd"/></svg>