<svg width="19" height="19" viewBox="0 0 19 19" xmlns="http://www.w3.org/2000/svg"><g fill-rule="nonzero" fill="#FFF"><path d="M9.493 6.175A3.337 3.337 0 0 0 6.171 9.5a3.337 3.337 0 0 0 3.322 3.325A3.337 3.337 0 0 0 12.816 9.5a3.337 3.337 0 0 0-3.323-3.325z"/><path d="M12.815 0H6.198C2.784 0 0 2.786 0 6.202v6.596C0 16.214 2.784 19 6.198 19h6.591c3.414 0 6.198-2.786 6.198-6.202V6.176c0-3.39-2.784-6.176-6.172-6.176zM9.507 14.52c-2.834 0-5.123-2.249-5.123-5.033 0-2.785 2.289-5.034 5.123-5.034 2.833 0 5.122 2.25 5.122 5.034S12.34 14.52 9.507 14.52zm4.858-8.765a1.222 1.222 0 0 1-1.208-1.209c0-.657.551-1.209 1.208-1.209.656 0 1.208.552 1.208 1.21-.026.683-.552 1.208-1.208 1.208z"/></g></svg>
