<?xml version="1.0" encoding="UTF-8"?>
<svg width="106px" height="147px" viewBox="0 0 106 147" version="1.1" xmlns="http://www.w3.org/2000/svg" xmlns:xlink="http://www.w3.org/1999/xlink">
    <!-- Generator: Sketch 46.2 (44496) - http://www.bohemiancoding.com/sketch -->
    <title>lion</title>
    <desc>Created with Sketch.</desc>
    <defs>
        <polygon id="path-1" points="0.716225272 0.41031746 73.4224868 0.41031746 73.4224868 46.3734411 0.716225272 46.3734411"></polygon>
    </defs>
    <g id="desktop" stroke="none" stroke-width="1" fill="none" fill-rule="evenodd">
        <g id="lion">
            <g id="Group-6" transform="translate(2.000000, 0.000000)">
                <mask id="mask-2" fill="white">
                    <use xlink:href="#path-1"></use>
                </mask>
                <g id="Clip-5"></g>
                <path d="M73.3111959,14.1139508 C72.9479918,13.1836492 72.6912571,12.1891889 72.1981755,11.3223 C71.6847061,10.4554111 71.4491143,9.37664921 70.5286449,8.76415714 C70.4221755,8.69999841 70.4644612,8.44634762 70.4010327,8.27699841 C69.8656653,6.81850635 68.8810122,5.69722063 67.6607673,4.76691905 C67.5535429,4.72439524 67.4251755,4.68187143 67.2968082,4.64009365 C67.2114816,4.64009365 67.147298,4.64009365 67.1042571,4.68187143 C66.7191551,5.04145873 66.3340531,4.72439524 66.0765633,4.59756984 C65.327502,4.23798254 64.6433796,3.75156984 63.9366041,3.30768095 L63.9366041,3.24426825 C63.8293796,3.15922063 63.7221551,3.09580794 63.6360735,3.01150635 C63.4865633,2.90631587 63.3370531,2.79963333 63.2086857,2.67355397 C62.5238082,2.37737937 61.8600735,2.06031587 61.1963388,1.72161746 C60.6186857,1.59479206 60.1052163,1.32025238 59.5909918,0.981553968 C59.3561551,0.812204762 59.0994204,0.621966667 58.7988898,0.516030159 C58.6705224,0.45261746 58.4779714,0.410093651 58.3073184,0.410093651 C58.2431347,0.410093651 58.178951,0.410093651 58.1351551,0.431728571 C57.0009918,0.897252381 55.8026449,0.748792063 54.6465837,0.833093651 C54.3256653,0.854728571 54.0258898,0.981553968 53.7049714,1.06585556 C53.5343184,1.12926825 53.3621551,1.27772857 53.1696041,1.32025238 C52.3352163,1.42544286 51.5000735,1.53137937 50.6656857,1.61568095 C49.4673388,1.74250635 48.2893796,1.82755397 47.1129306,1.95437937 C46.9619102,1.97526825 46.834298,2.10209365 46.5987061,2.22891905 C46.9196245,2.41915714 47.1340735,2.54672857 47.2624408,2.61014127 C46.8124,3.56133175 45.8707878,3.51880794 45.1005837,3.70979206 C44.0517469,3.94180794 42.9598694,3.94180794 41.8679918,4.06937937 C40.4982367,4.23798254 39.1073388,4.42896667 37.7375837,4.64009365 C37.2233592,4.72439524 36.6457061,4.76691905 36.2606041,5.42268095 C37.5450327,5.99339524 38.9140327,5.86656984 40.0919918,6.16274444 C39.9847673,6.39550635 39.7272776,6.64915714 39.7491755,6.88191905 C39.7703184,7.26239524 40.1773184,7.21987143 40.4770939,7.26239524 C40.7768694,7.28328413 41.1408286,7.15645873 41.4194612,7.53693492 C41.2042571,7.60109365 41.0977878,7.68539524 40.9694204,7.66376032 C39.0431551,7.57945873 37.0949918,7.47352222 35.1687265,7.34669683 C34.1198898,7.28328413 33.0710531,7.13556984 32.0222163,7.09304603 C31.2520122,7.05052222 31.2520122,7.09304603 30.9514816,8.06587143 L25.4513184,8.06587143 C25.515502,8.34041111 25.5366449,8.48887143 25.5796857,8.65822063 C24.8736653,9.10210952 23.8248286,8.69999841 23.139951,9.63104603 C23.5673388,9.67282381 23.8678694,9.69445873 24.1457469,9.73623651 C24.5519918,9.79964921 25.1515429,9.73623651 25.3010531,9.96899841 C25.7080531,10.5397127 26.2864612,10.4554111 26.8422163,10.6247603 C26.8852571,10.7724746 26.9924816,10.9418238 26.9705837,11.0895381 C26.8633592,11.4707603 26.6927061,11.8296016 26.5001551,12.2951254 C25.3221959,11.2379984 23.9101551,11.7244111 22.5615429,11.7244111 C22.4331755,11.7244111 22.2836653,11.8296016 22.0473184,11.9362841 C22.7971347,12.380173 23.4389714,12.7606492 24.0815633,13.1411254 C24.0596653,13.2045381 24.0173796,13.2679508 23.9954816,13.3522524 C23.3536449,13.1202365 22.732951,12.8874746 22.111502,12.6547127 C21.2771143,12.3585381 20.4638694,11.957173 19.6075837,11.8296016 C18.6229306,11.6609984 17.5959918,11.6609984 16.5901959,11.7669349 C15.7980939,11.8296016 15.0271347,12.1891889 14.2138898,12.3376492 C12.7588082,12.6121889 11.2599306,12.8449508 9.80409388,13.1202365 C9.5904,13.1627603 9.41974694,13.2895857 9.11921633,13.4373 C9.65458367,13.8811889 10.1469102,13.7334746 10.5961959,13.7968873 C11.0250939,13.8811889 11.6238898,13.5007127 11.8806245,14.1982524 C11.2599306,14.6003635 10.4678286,14.0505381 9.91131837,14.6421413 C10.3613592,15.2979032 11.1315633,14.7906016 11.7522571,15.1501889 C10.9382571,15.4247286 10.0396857,15.2561254 9.48393061,16.0387127 C10.1469102,16.4191889 11.1315633,15.9118873 11.4094408,16.9056016 C10.3183184,17.4129032 10.3183184,17.4129032 9.26872653,17.2017762 C8.90552245,17.1167286 8.56270612,17.0107921 8.17760408,16.9264905 C6.61529796,16.5877921 5.05299184,16.2714746 3.48993061,15.9327762 C3.42574694,15.9327762 3.36156327,15.8902524 3.29737959,15.9118873 C3.06254286,15.9961889 2.71972653,16.0596016 2.65554286,16.2282048 C2.52717551,16.5243794 2.80505306,16.6728397 3.10482857,16.7362524 C3.42574694,16.820554 3.76780816,16.8630778 4.08948163,16.9690143 C4.94576735,17.2226651 5.75901224,17.4763159 6.5941551,17.7508556 L6.5941551,18.0261413 C5.82319592,18.1738556 5.05299184,18.3223159 4.2608898,18.4700302 C4.19670612,18.724427 4.13252245,18.9989667 4.06833878,19.2742524 C4.92462449,19.8449667 4.92462449,19.8449667 4.49572653,20.7969032 C4.43154286,20.9446175 4.45344082,21.2191571 4.5599102,21.3250937 C4.86044082,21.7055698 5.2236449,22.0233794 5.56646122,22.3613317 C5.48113469,22.509046 5.43809388,22.5940937 5.3731551,22.6783952 C4.88158367,23.4826175 5.00995102,23.7571571 5.93042041,23.8205698 C6.1864,23.8422048 6.4438898,23.8422048 6.76480816,23.8630937 C6.78595102,24.2435698 6.80784898,24.5606333 6.82899184,24.9836333 C6.14411429,25.2163952 5.50227755,25.4491571 4.83854286,25.6393952 C4.53876735,25.7453317 4.17480816,25.7662206 4.17480816,26.1466968 C4.17480816,26.5913317 4.5599102,26.6331095 4.92462449,26.6756333 C5.56646122,26.739046 6.20905306,26.8442365 7.0011551,26.950919 C6.37970612,27.3948079 5.48113469,27.0143317 5.3731551,27.9021095 C4.8174,27.8595857 4.34621633,27.796173 3.87578776,27.796173 C3.53297143,27.796173 3.12672653,27.9864111 3.29737959,28.3042206 C3.5971551,28.8958238 3.27623673,29.4038714 3.27623673,29.8686492 C2.95456327,30.1223 2.50527755,30.2707603 2.44184898,30.5453 C2.20625714,31.4121889 2.09827755,32.3216016 1.99180816,33.2101254 C1.90648163,33.7808397 2.16246122,34.4149667 1.58556327,34.9021254 C1.49948163,34.9655381 1.52137959,35.2191889 1.52137959,35.3669032 C1.52137959,35.832427 1.62784898,36.2972048 1.19970612,36.678427 C1.09248163,36.7836175 1.15666531,37.1432048 1.24274694,37.3341889 C1.34921633,37.6087286 1.56366531,37.8198556 1.75621633,38.1160302 C1.60670612,38.1376651 1.49948163,38.1376651 1.43529796,38.158554 C1.22084898,38.2219667 1.0071551,38.2853794 0.793461224,38.369681 C0.899930612,38.6024429 0.942971429,38.8568397 1.07133878,39.0463317 C1.22084898,39.2582048 1.45719592,39.405919 1.6708898,39.6177921 C0.64395102,39.8923317 0.471787755,40.1676175 1.02829796,40.674919 C2.09827755,41.6477444 2.91227755,42.7265063 3.0406449,44.2275222 C3.08368571,44.714681 3.4476449,45.0309984 4.02529796,45.2219825 C4.79625714,45.4965222 5.69482857,45.6024587 6.1864,46.3641571 C6.20905306,46.385046 6.31552245,46.3641571 6.46578776,46.3641571 C6.37970612,46.1313952 6.31552245,45.9195222 6.23019592,45.7083952 C5.26668571,43.4449349 4.43154286,41.1404429 4.38925714,38.6449667 C4.38925714,38.4756175 4.36735918,38.2428556 4.2608898,38.158554 C3.70362449,37.6930302 3.83274694,37.0797921 3.8546449,36.4881889 C3.89693061,35.4728397 3.96111429,34.4791254 3.98301224,33.4637762 C3.98301224,32.3641254 4.71017551,31.5815381 5.13831837,30.6512365 C5.20250204,30.5035222 5.43809388,30.3759508 5.60950204,30.2916492 C6.61529796,29.911173 7.64223673,29.5306968 8.64878776,29.1494746 C9.01274694,29.0226492 9.37595102,28.8749349 9.91131837,28.6630619 C9.41974694,28.4094111 9.11921633,28.2616968 8.7771551,28.0707127 C10.0185429,27.6268238 10.8959714,27.796173 11.7303592,28.5369825 C12.0089918,28.7689984 12.3518082,28.9592365 12.7157673,29.0442841 C13.1861959,29.1711095 13.4859714,28.7898873 13.3145633,28.3251095 C13.2292367,28.0707127 13.0147878,27.8386968 12.9936449,27.6059349 C12.8871755,26.6122206 12.372951,25.7871095 11.795298,25.0895698 C11.0031959,24.1585222 10.0827265,23.2707444 8.67068571,23.2073317 C8.24178776,23.1864429 7.79174694,22.953681 7.12952245,22.7418079 C7.74946122,22.3613317 8.17760408,22.107681 8.56270612,21.7906175 C8.73411429,21.6637921 8.90552245,21.3885063 8.86248163,21.2191571 C8.82019592,21.050554 8.58384898,20.8595698 8.3701551,20.7969032 C8.11342041,20.7118556 7.8144,20.7118556 7.51386939,20.6700778 C8.28482857,20.415681 8.47737959,19.8874905 8.30597143,19.1257921 C9.24758367,19.0414905 10.1250122,19.0414905 10.9601551,18.8512524 C11.4955224,18.7453159 11.8806245,18.8721413 12.3087673,19.1049032 C12.9083184,19.4219667 13.5078694,19.7390302 14.1066653,20.0352048 C14.4064408,20.182919 14.7273592,20.3313794 15.1343592,20.0352048 C14.8768694,19.8024429 14.6420327,19.6122048 14.4706245,19.4003317 C14.3422571,19.1892048 14.148951,18.9146651 14.1927469,18.7027921 C14.2780735,18.2589032 14.1278082,18.0261413 13.7857469,17.7724905 C13.6573796,17.666554 13.6785224,17.3494905 13.6362367,17.0958397 C14.2780735,17.0533159 14.8557265,17.1592524 15.2838694,16.9473794 C16.2043388,16.5243794 17.0606245,16.6728397 17.9380531,16.9264905 C18.3880939,17.0749508 18.8366245,17.2651889 19.2866653,17.3703794 C19.5645429,17.4337921 19.9934408,17.455427 20.142951,17.2860778 C20.4850122,16.8839667 20.8489714,16.9690143 21.2340735,17.0533159 C21.6841143,17.1383635 22.111502,17.2226651 22.5404,17.2860778 C23.3959306,17.4337921 24.4024816,17.0958397 24.8306245,16.4609667 C25.6227265,16.820554 26.4148286,17.2017762 27.2280735,17.5613635 C27.5489918,17.7090778 27.9340939,18.0470302 28.2119714,17.666554 C28.3403388,17.4979508 28.105502,17.0749508 28.0413184,16.7571413 C28.0413184,16.7153635 28.105502,16.6728397 28.1477878,16.5877921 C28.3403388,16.6512048 28.5117469,16.7787762 28.7050531,16.7996651 C28.8757061,16.820554 29.1966245,16.820554 29.2396653,16.7362524 C29.3249918,16.5669032 29.3249918,16.2923635 29.2396653,16.1021254 C29.1535837,15.8693635 28.9398898,15.6791254 28.7903796,15.4888873 C29.0259714,15.1710778 29.2396653,14.8756492 29.4541143,14.6003635 C29.6678082,14.6637762 29.881502,14.7271889 30.1382367,14.8122365 C30.3957265,13.9662365 29.7750327,13.5223476 29.4110735,12.8874746 C30.5240939,13.1836492 31.0164204,12.9299984 31.5087469,12.0623635 C31.8085224,11.5550619 32.1724816,11.0477603 32.8573592,10.8993 C33.2424612,10.8149984 33.6064204,10.6031254 34.0126653,10.4554111 C34.6975429,10.8358873 35.3831755,11.2379984 36.1322367,11.6818873 C36.3889714,11.5125381 36.6676041,11.3439349 36.9666245,11.1536968 C37.3305837,11.2805222 37.7156857,11.4073476 38.1007878,11.534173 C38.9140327,11.8087127 39.5354816,11.5550619 40.1131347,10.9627127 C40.4340531,10.6456492 40.8410531,10.4345222 41.1619714,10.2226492 C41.7396245,10.5188238 42.1896653,10.7515857 42.638951,11.0052365 C42.9598694,11.1745857 43.3238286,11.3223 43.5594204,11.5975857 C43.9445224,12.0839984 44.414951,12.1891889 44.9933592,11.957173 C45.2931347,12.4010619 45.5498694,12.7815381 45.8066041,13.1627603 C45.9780122,13.4156651 46.0633388,13.7543635 46.2996857,13.9028238 C46.5133796,14.0296492 46.8765837,13.9237127 47.1771143,13.9237127 C47.3054816,14.1348397 47.4761347,14.3258238 47.5403184,14.5369508 C47.818951,15.6157127 48.6321959,16.1230143 49.5957061,16.5243794 C49.8735837,16.6512048 50.1084204,16.9899032 50.2375429,17.2860778 C50.4731347,17.878427 50.5796041,18.5550778 50.8363388,19.1683159 C51.0515429,19.7390302 51.0296449,20.2679667 50.8151959,20.8177921 C50.4300939,21.9808556 50.7079714,23.1648079 50.7079714,24.3278714 C50.7079714,24.5397444 50.8793796,24.7725063 51.0296449,24.9411095 C51.1368694,25.0895698 51.3717061,25.2798079 51.4789306,25.2372841 C51.6495837,25.1738714 51.8428898,24.9627444 51.9070735,24.7725063 C52.0354408,24.4338079 51.9931551,24.0316968 52.1426653,23.6937444 C52.4205429,23.0596175 52.784502,22.4672683 53.1484612,21.8115063 C53.4270939,21.8331413 53.790298,21.896554 54.1761551,21.874919 C54.3687061,21.8540302 54.7326653,21.7480937 54.7538082,21.6212683 C54.8602776,21.1982683 54.9033184,20.7543794 54.8179918,20.3313794 C54.774951,20.1195063 54.4540327,19.9509032 54.3045224,19.781554 C54.3475633,19.4003317 54.389849,18.9989667 54.4540327,18.6184905 C54.5182163,18.2163794 54.4970735,17.7724905 54.6896245,17.455427 C55.4175429,16.2498397 55.2891755,15.0651413 54.6896245,13.9237127 C54.4970735,13.5641254 54.4759306,13.2679508 54.4759306,12.8874746 C54.4759306,12.2526016 54.5612571,11.5550619 54.3256653,11.0052365 C53.8333388,9.84217302 53.6838286,8.50976032 52.6561347,7.60109365 C52.613849,7.55782381 52.5708082,7.47352222 52.5708082,7.43099841 C52.7422163,6.79687143 52.206849,6.54322063 51.8859306,6.20452222 C51.3505633,5.65544286 50.7721551,5.14739524 50.1303184,4.53415714 C51.1149714,4.49237937 51.7568082,5.31674444 52.784502,4.97804603 C52.3352163,4.59756984 51.9931551,4.28050635 51.6284408,3.94180794 C52.184951,3.47703016 52.6780327,3.54044286 53.1907469,3.85750635 C53.5343184,4.06937937 53.8763796,4.30139524 54.2403388,4.47074444 C54.3475633,4.53415714 54.5612571,4.44985556 54.9033184,4.38569683 C54.4540327,4.09026825 54.1761551,3.92091905 53.9186653,3.70979206 C53.6626857,3.51880794 53.3410122,3.39198254 53.2979714,2.94809365 C54.3687061,2.90631587 55.374502,2.82126825 56.380298,2.79963333 C56.6808286,2.79963333 57.0009918,2.88468095 57.2577265,3.03239524 C57.7289102,3.32856984 58.0709714,3.85750635 58.7566041,3.79409365 C58.8207878,3.77320476 58.9272571,3.96344286 59.0133388,4.06937937 C59.5056653,4.74528413 59.5056653,4.74528413 60.2335837,4.49237937 C60.4472776,4.68187143 60.6186857,4.93626825 60.8542776,5.02056984 C61.4968694,5.29585556 61.8389306,5.82404603 62.1817469,6.35298254 C62.5026653,6.83939524 62.7586449,7.34669683 63.1233592,7.74880794 C63.4654204,8.17180794 63.9796449,8.42545873 64.0861143,9.03869683 C64.1080122,9.16552222 64.3858898,9.31323651 64.5791959,9.35576032 C65.2633184,9.46169683 65.4989102,9.94810952 65.7556449,10.5397127 C66.0554204,11.1954746 66.3340531,11.9780619 67.317951,12.0623635 C67.317951,12.4644746 67.317951,12.8240619 67.339849,13.2045381 C67.339849,13.4156651 67.339849,13.7752524 67.4893592,13.8603 C68.0677673,14.2198873 68.2603184,14.7271889 68.2603184,15.3613159 C68.2603184,15.5097762 68.4951551,15.7425381 68.6242776,15.763427 C68.7737878,15.7843159 68.9874816,15.6157127 69.115849,15.4888873 C69.2661143,15.2979032 69.3514408,15.0651413 69.522849,14.7271889 C69.6512163,15.1927127 69.6512163,15.5306651 69.8014816,15.7843159 C70.2084816,16.5460143 70.0363184,17.243554 69.6942571,17.9836175 C69.522849,18.3432048 69.4163796,18.7453159 69.3733388,19.1257921 C69.3514408,19.3160302 69.5447469,19.5070143 69.6512163,19.6965063 C69.8437673,19.5913159 70.100502,19.5279032 70.2084816,19.3794429 C70.4010327,19.1049032 70.4433184,18.6610143 70.6789102,18.512554 C71.3849306,18.0470302 71.4921551,17.3069667 71.7269918,16.6303159 C71.9633388,16.0170778 72.1981755,15.3829508 72.4337673,14.7271889 C72.5402367,14.8122365 72.6051755,14.8756492 72.6912571,14.917427 C72.8619102,14.9599508 73.1186449,15.0867762 73.2258694,15.0017286 C73.3549918,14.9383159 73.3972776,14.6854111 73.4191755,14.494427 C73.4403184,14.3892365 73.3549918,14.2407762 73.3111959,14.1139508" id="Fill-4" fill="#6E6E6D" mask="url(#mask-2)"></path>
            </g>
            <path d="M105.4043,88.9009427 C105.447119,88.517595 105.574822,88.1973869 105.51097,87.9425734 C105.233027,86.7068407 104.211398,86.0040365 103.487244,85.1088068 C103.828288,84.4691423 104.126513,83.8730741 104.509624,83.1484717 C103.57288,82.4659624 102.508433,81.7631582 102.16739,80.4214412 C103.231837,80.3575499 104.254217,80.3147051 105.468152,80.2290156 C105.233027,79.8246214 105.08429,79.5480097 104.914519,79.2698947 C104.807849,79.1210655 104.574227,78.9722364 104.574227,78.8016091 C104.509624,77.7996433 104.509624,76.8202275 105.361482,76.0106872 C104.743998,74.6674669 104.807849,73.2190137 104.765031,71.7705606 C105.106075,71.4721507 105.447119,71.1526943 105.808445,70.8114396 C105.296879,70.1514802 104.828883,69.5328622 104.38192,68.9149959 C103.807254,68.1054556 103.487244,67.2320241 103.828288,66.2729031 C104.126513,66.124074 104.59526,66.017338 104.659112,65.8046176 C104.743998,65.5272542 104.487839,65.164953 104.38192,64.82445 C104.722964,64.7816053 105.063257,64.717714 105.659707,64.6117296 C104.487839,63.4609348 103.041032,62.906208 102.401763,61.6494288 C102.571534,61.3938636 102.848726,61.0533607 102.826941,61.0105159 C102.295093,60.4986339 102.826941,59.9454105 102.763089,59.4763733 C102.358945,59.2629012 101.996868,59.1351187 101.677609,58.9006 C101.422201,58.7089262 101.25168,58.4112679 101.038339,58.1549511 C100.527525,57.6227743 100.016711,57.0898458 99.4841115,56.5148242 C100.144414,55.9608491 100.698047,55.4497188 100.527525,54.7890077 C101.698642,53.8516849 102.742056,52.9985483 103.955991,51.9973342 C103.381325,51.9123964 103.041032,51.8485051 102.571534,51.7846138 C103.35954,50.335409 104.083695,48.9718937 104.850668,47.5873319 C104.722964,47.5016424 104.574227,47.3949064 104.38192,47.288922 C104.680146,47.0972481 104.956586,46.8837761 105.233027,46.7139004 C105.701775,46.4786301 105.723559,46.5004283 105.765626,45.9464533 C104.892735,46.3515992 103.764436,45.8397172 103.083099,46.8627295 C103.487244,47.3528133 103.57288,47.9496331 103.295688,48.5246547 C102.742056,49.6536514 102.16739,50.7833997 101.549905,51.8485051 C101.315531,52.2318528 100.932421,52.594154 100.54931,52.8068744 C99.6118151,53.2759116 98.9094452,54.000514 98.1860419,54.7033182 C97.3552173,55.4918119 97.3762508,55.5136101 96.3749043,55.1084641 C96.1412819,54.5116443 95.8220228,54.000514 95.7792046,53.4675855 C95.7153528,52.7219366 94.7147575,52.7429831 94.8417099,52.0191324 C94.2677949,51.9762876 93.7562293,51.9334429 93.1177113,51.9123964 C93.3303002,51.5072504 93.5226068,51.2727318 93.6074921,50.9961201 C93.713411,50.6338189 93.7562293,50.228673 93.7772628,49.8453252 C93.7772628,49.4837757 93.5008221,49.3552415 93.2236301,49.2064123 C92.9900077,49.0996763 92.8623041,48.8012664 92.7128157,48.588546 C92.9261559,48.2901361 93.0538595,48.0984622 93.1815631,47.9067884 C93.2664484,47.8000523 93.3513337,47.6722698 93.458755,47.6083785 C93.9906029,47.288922 94.4593503,46.9687139 94.2888284,46.2020184 C94.2460101,46.0103446 94.7568246,45.7119347 94.4593503,45.4135248 C94.2677949,45.2218509 93.9267511,45.1790062 93.6503104,45.0730218 C92.8405193,44.7535653 92.0532642,44.4551554 91.3073249,44.1567455 C91.2652578,43.6448636 91.3711767,43.4742362 91.775321,43.3892984 C92.2658531,43.3254071 92.755634,43.1555314 93.2025966,42.9631059 C93.8839329,42.6436495 94.5014174,42.2603017 95.1617201,41.9197988 C95.7574198,41.5995906 96.1412819,41.0666621 96.6949145,40.4495474 C96.0135783,40.2360754 95.4809791,40.065448 94.9273464,39.8955724 C94.9273464,39.8309294 94.9273464,39.7670381 94.94838,39.7249451 C95.5020126,39.4904264 96.0563965,39.2769544 96.6310627,39.064234 C96.6100292,38.9785445 96.6100292,38.8936066 96.5889957,38.8086688 C96.3749043,38.7876223 96.1623154,38.7019328 95.97076,38.7658241 C95.2683902,38.9785445 94.5652692,39.2559078 93.8628993,39.4475817 C93.0538595,39.6610538 92.2230348,39.7888363 91.6904357,40.5555318 C91.6265839,40.6840661 91.413995,40.7261591 91.2652578,40.7690039 C90.5411033,40.917833 89.9656859,41.3440255 89.3917708,41.770218 C89.2204978,41.8762023 89.0289424,42.0047366 88.8591717,42.0257831 C87.6873033,42.0686279 86.5161862,42.110721 85.345069,42.1535657 C83.9403294,42.1964105 83.2589931,41.2590877 83.7052045,39.9166189 C83.7908411,39.6392556 83.8546929,39.3197991 84.0041812,39.064234 C84.1529183,38.7658241 84.3655073,38.4463676 84.6216657,38.318585 C86.5590045,37.2955728 88.560195,36.5070791 90.7747257,36.35825 C91.7114692,36.2725605 92.6497151,36.2725605 93.5864586,36.35825 C94.0965218,36.4010947 94.6080874,36.6348617 95.1617201,36.5709704 C95.6297162,36.5288773 96.1202483,36.5927686 96.4605409,36.6138151 C96.6949145,37.0400076 96.7805511,37.4023088 97.0141735,37.5939827 C97.5257392,38.0412217 98.1432236,38.3824763 98.8027752,38.8515136 C98.5263344,39.2559078 98.2919608,39.5971625 98.0358024,39.9805102 C99.3353743,41.2162429 100.101596,39.8955724 101.017306,39.2987526 C101.848131,39.8309294 102.678204,40.3638579 103.487244,40.8967865 C103.807254,40.2150288 103.871106,40.0444015 103.210803,39.4904264 C102.017901,38.5102589 101.613757,37.2316815 101.46502,35.8042749 C101.443986,35.5915545 101.422201,35.399129 101.380134,35.1864086 C101.337316,34.9947347 101.293747,34.6963248 101.166043,34.6324335 C100.50574,34.3122254 100.613162,33.652266 100.44264,33.0982909 C100.165448,32.1391699 99.8251552,31.1808006 99.505145,30.2216796 C99.4841115,30.1577883 99.3353743,30.1577883 99.1438189,30.0728504 L99.1438189,31.2446919 C98.8455934,31.4784588 98.5901862,31.6708843 98.228109,31.947496 C98.1642572,31.5641483 98.1432236,31.3085831 98.0996542,31.053018 C97.8870652,29.9879126 98.0147688,28.8153195 97.0141735,28.0275775 C96.8864699,27.3029751 96.2479519,26.7700466 96.5243927,25.8109256 C96.8864699,24.5330999 96.3538708,23.3612584 95.2473566,22.5509666 C95.119653,22.4449822 94.9273464,22.4660287 94.6509057,22.4239357 C94.7778581,23.2973672 95.5237974,23.8934353 95.2683902,24.7676185 C94.7778581,24.5541464 94.5870539,24.2128917 94.4375656,23.7656527 C94.03267,22.6577026 93.5864586,21.5497525 93.074893,20.4846471 C92.7128157,19.7810913 92.1381495,19.2278679 91.4568132,18.5671568 C91.3501432,19.0143958 91.2862914,19.269961 91.2224395,19.5255261 C90.7326587,19.4187901 90.2646625,19.3128057 89.7530969,19.2060697 C89.5194744,18.4393742 89.2204978,17.6719271 89.0499759,16.8834334 C88.7735352,15.4770734 87.8585764,14.6464866 86.6656745,14.0286203 C86.3892338,13.9008377 86.0902571,13.8790395 85.8138164,13.7730551 C85.4517391,13.6452725 85.1106954,13.3258161 84.7704028,13.1333906 C84.4293591,12.9417167 84.1529183,12.8357323 83.8546929,12.5794155 C83.4287638,12.1750212 82.9389829,11.8555648 82.5348386,11.4075741 C82.3853502,11.2376984 82.2358619,10.9174903 81.9804547,10.8964438 C82.0660912,11.0670711 82.2358619,11.365481 82.1937948,11.5571549 C81.491425,11.1948537 81.0654959,10.2785774 80.3413414,10.0012141 C80.3195567,10.40636 80.7672705,10.6829717 80.7672705,11.0881177 C80.7672705,11.0242264 80.4900785,10.853599 80.4472603,10.8325525 C80.3195567,10.7258165 80.2136378,10.6190804 80.0859342,10.5341426 C79.8297758,10.3424687 79.5743686,10.1507949 79.3189614,9.959121 C78.8719988,9.63966455 78.4250361,9.27736336 77.9352553,9 C77.9773223,9.06389129 78.0629589,9.08493783 78.1050259,9.14882912 C78.1688777,9.19167387 78.211696,9.2984099 78.2537631,9.36230119 C78.9140658,10.2575309 79.6382204,11.1309624 79.8943788,12.2389125 C79.937197,12.4087882 80.0010488,12.9417167 79.8733452,13.0912975 C79.234076,12.9417167 78.7653287,12.153223 78.3611843,11.6849375 C78.5317062,12.2599591 79.1281572,12.8996236 79.0417694,13.5167383 C78.6804433,13.4956918 78.4460697,13.0912975 78.1260595,13.005608 C78.1688777,13.1972819 78.3183661,13.4107539 78.4250361,13.6024278 C78.6586586,13.9857755 78.8719988,14.411968 79.1491907,14.7742692 C79.6810386,15.5627629 80.4262267,16.2016758 81.0437112,16.9262781 C81.4478555,17.3735172 81.8527511,17.7997097 82.129943,18.3536847 C82.2358619,18.5882033 82.2794314,18.8437685 82.407135,19.0572406 C82.5348386,19.2917592 82.5769056,19.5044796 82.6407574,19.7600447 C82.726394,20.0584546 82.7902458,20.3568645 82.8751311,20.676321 C82.8961646,20.7612588 83.152323,21.5497525 83.1095048,21.570799 C82.98105,21.6775351 82.8112793,21.8692089 82.5986904,21.9331002 C82.2358619,22.0398363 82.1509766,22.2954014 82.1509766,22.6148579 L82.1509766,25.1720127 C81.2780849,25.2787488 81.6619469,25.981553 81.5763103,26.4505902 C80.6177821,26.535528 80.4472603,26.6633106 80.7034187,27.4728508 C81.0016441,28.4109253 80.7034187,29.2204655 80.5328968,30.1149435 C80.3834085,30.0300057 80.2985231,29.9661144 80.2136378,29.9443162 C80.0010488,29.9232697 79.7869575,29.9022231 79.5743686,29.9022231 C79.5743686,30.1367417 79.5323015,30.4133534 79.6171868,30.6268255 C79.7448904,30.9034372 80.0220824,31.0951111 80.1708195,31.3514279 C80.3413414,31.606993 80.5539303,31.8836047 80.5539303,32.1609681 C80.5328968,34.3340236 80.4472603,36.5288773 79.3189614,38.5102589 C78.8291805,39.3408457 78.9997024,40.1721841 79.553335,40.9388795 C80.149786,40.7900504 80.6606004,40.6840661 81.3629702,40.5126871 C81.1503813,40.8749883 81.0437112,41.0666621 80.9160076,41.2801342 C81.1293477,41.365072 81.3201519,41.4289633 81.4703915,41.4718081 C81.426822,42.0475813 81.491425,42.6226029 81.0865295,43.0269972 C80.7244522,43.3682519 80.2557049,43.6448636 79.8943788,43.9011804 C79.4045979,43.0916402 78.9779176,42.3670378 78.5317062,41.6424354 C78.3401508,41.3440255 77.8714035,41.4289633 77.8496187,41.7912645 C77.8075517,42.1746122 77.8075517,42.6226029 77.9773223,42.9420594 C78.276299,43.4960344 78.6804433,44.0071647 79.0643054,44.4972485 C79.7448904,45.37068 79.8943788,45.37068 80.6823851,44.4972485 C80.7244522,44.4333572 80.8521558,44.4333572 80.9798594,44.3694659 C81.3419367,44.582938 81.6401621,45.0512236 82.2148284,44.7107206 C82.3004649,44.6468293 82.8533464,45.030177 82.8961646,45.2646956 C83.045653,46.0531893 83.7690563,46.0313911 84.2378037,46.3515992 C84.3444737,46.4154905 84.6644839,46.329801 84.7704028,46.223065 C85.0047765,45.9464533 85.238399,45.6480434 85.3661026,45.3067887 C85.6432945,44.582938 85.728931,44.4972485 86.6438898,44.4333572 C86.8144117,44.7317671 87.0059671,45.030177 87.1344219,45.2218509 C86.8782635,45.7329812 86.6867081,46.1591737 86.4523344,46.5643196 C86.3035972,46.8198848 86.2179607,47.0972481 85.7927828,47.0754499 C85.2173654,47.0326052 85.1106954,47.4377511 85.1963319,47.8857418 C85.3240355,48.5457013 85.4517391,49.2274589 85.6861128,49.8453252 C85.8776682,50.335409 86.1541089,50.8683375 86.5161862,51.2088405 C87.0487853,51.6989243 87.1764889,52.1679615 86.9210817,52.7858279 C86.6656745,52.4024801 86.4313008,51.9762876 86.1541089,51.6139865 C85.6432945,50.9743219 85.1324801,50.3572072 84.5998809,49.7603874 C84.3655073,49.5048223 83.7480228,49.5897601 83.4926156,49.8453252 C83.1733566,50.1437351 83.4077302,50.3782538 83.5992857,50.6338189 C84.0041812,51.2088405 84.4083255,51.8056603 84.7704028,52.4024801 C85.0686283,52.8925639 85.409672,53.3826477 85.5584092,53.9155762 C85.8776682,55.0445728 86.0902571,56.2164142 86.367449,57.3664575 C86.4313008,57.6009761 86.580038,57.899386 86.7715934,58.006122 C87.1554554,58.1977959 87.2403407,57.7505568 87.4536809,57.558883 C87.4957479,57.5160382 87.5806333,57.5160382 87.6444851,57.5160382 C88.1770842,58.006122 88.6676163,58.6029418 89.2843496,58.9862895 C90.3705814,59.6680472 90.6688069,60.7759973 91.0308841,61.8411027 C91.1375542,62.1605591 90.9024293,62.5657051 90.9880659,62.906208 C91.201406,63.7164999 91.4988803,64.5042419 91.775321,65.3145338 C91.9465941,65.7617728 92.2230348,66.1669188 92.7346004,66.0383845 C92.9471894,66.6141578 93.074893,67.1470863 93.3085155,67.6153719 C93.6074921,68.2121917 94.0965218,68.7451202 94.2677949,69.3629865 C94.4803838,70.1725268 94.9273464,70.7265018 95.5876492,71.1737408 C95.7363863,71.2586787 95.9286929,71.3443682 95.9925447,71.4721507 C96.2051337,71.8772967 96.4815744,72.281691 96.5454262,72.72893 C96.5889957,73.0491381 96.8436517,73.5602684 96.0774301,73.8368801 C95.9069082,73.5602684 95.693568,73.2190137 95.4381608,72.835666 C95.1835048,73.1340759 95.012983,73.3257498 94.7568246,73.6241597 C93.7351957,71.8554985 92.755634,70.1935733 91.797857,68.5316481 C91.6055504,68.1911451 91.6483686,67.6792632 91.3929614,67.423698 C90.7747257,66.7629869 90.1572413,65.9962914 89.1138277,65.9324002 C88.7525016,64.6966675 88.4114579,63.5030278 88.0711653,62.2890934 C88.0073135,62.0756213 87.98628,61.7133201 87.8367917,61.6494288 C87.1554554,61.3299724 87.1344219,60.6271682 86.8354452,60.0942397 C86.7077416,59.8815193 86.6018227,59.6680472 86.4313008,59.4974199 C86.3464155,59.3906838 86.1112906,59.305746 86.0053718,59.3485907 C85.8566346,59.412482 85.7071463,59.6041559 85.6432945,59.7740316 C85.5794427,59.9236123 85.622261,60.1152862 85.6432945,60.2859135 C85.8348499,61.3510189 86.0474388,62.4168759 86.2397454,63.4609348 C86.3035972,63.7164999 86.3464155,63.9510185 86.4313008,64.3343663 C85.8987017,64.0788011 85.4945574,63.9292203 85.1324801,63.7164999 C84.8342546,63.524826 84.6216657,63.1407267 84.3016555,63.0557888 C83.5992857,62.864115 83.5136491,62.3311864 83.364912,61.7772114 C83.2589931,61.4367084 83.0238682,61.1382985 82.8323128,60.818842 C82.2148284,59.7740316 81.5763103,58.7307244 80.9798594,57.6866656 C80.8521558,57.4731935 80.788304,57.2176283 80.8311223,56.9831097 C80.9798594,55.8330665 80.4900785,54.8949921 79.8297758,54.000514 C79.7020722,53.8516849 79.6382204,53.6592594 79.5323015,53.4675855 C79.7869575,53.1270825 79.8297758,52.6798435 80.4051932,52.7219366 C80.8521558,52.7647813 80.9160076,52.4024801 80.9377923,51.9762876 C80.6177821,51.7628156 80.2774896,51.5500952 79.9582306,51.3366231 C79.9154123,50.9743219 79.8943788,50.6338189 79.8515605,50.2933159 C79.765924,50.2715177 79.7020722,50.2504712 79.6382204,50.228673 L79.0643054,51.0600114 C78.1688777,50.5270829 78.3183661,49.5258688 77.9773223,48.7373751 C77.7219151,48.8230646 77.5311109,48.9080024 77.2959861,48.9929403 C77.4447232,48.1623535 76.4869462,47.8210989 76.6356833,47.0544034 C76.0610171,46.0742359 75.4014655,45.1369131 74.99657,44.0500095 C74.9109335,43.8154909 74.6983445,43.623817 74.5278227,43.4103449 C74.358052,43.2194227 74.1229271,43.0487954 74.0170082,42.8142768 C73.6128639,41.8341093 72.9307764,41.1951964 71.8663293,40.7900504 C71.8881141,41.0027708 71.8235111,41.2372895 71.9083964,41.3440255 C72.2922584,41.8980005 72.7399722,42.4091309 73.1223318,42.9631059 C73.4626244,43.4103449 73.8893046,43.8793822 73.9952235,44.3912641 C74.2506307,45.4563695 74.2942002,46.5425214 74.4639709,47.6083785 C74.4857556,47.8421454 74.5706409,48.1834001 74.7411628,48.2901361 C75.2737619,48.6095925 75.0386371,48.9718937 74.7832299,49.1635676 C74.4008703,49.440931 74.0380418,49.994906 73.377739,49.4837757 C73.2718202,49.9520613 73.2928537,50.3572072 73.1223318,50.6556171 C72.803824,51.2306387 73.016413,51.6778777 73.3138872,52.1679615 C73.6767157,52.7429831 73.9952235,53.3608495 74.3152337,53.9366227 C73.8254528,54.2350326 73.4626244,54.4267065 73.1651501,54.6183804 C72.8887094,54.4049083 72.632551,54.1703897 72.3350767,54.0215606 C72.2284066,53.9576693 71.9940329,53.9794675 71.8881141,54.0644053 C71.8024775,54.1493431 71.7386257,54.3838617 71.7806928,54.5116443 C71.9940329,55.0017281 72.1645548,55.4918119 72.7610058,55.7045323 C73.1012983,55.8330665 73.5272274,56.1307248 73.6338974,56.4291347 C73.7405675,56.8342806 73.9321229,56.9620632 74.2942002,57.0259545 C74.7832299,57.111644 75.1460583,57.2386749 75.2737619,57.8572929 C75.3376137,58.3255784 75.8266434,58.6878796 75.9550982,59.1569169 C76.1676872,59.817628 76.7002863,60.3926496 76.5079797,61.2021898 C76.4230944,61.4795531 76.6356833,61.8200561 76.7641381,62.118466 C76.93466,62.6295963 77.2531678,63.1196801 77.2959861,63.6308104 C77.4026561,64.8026518 77.5942115,65.9534467 78.0411741,67.0613968 C78.0629589,67.1252881 78.0411741,67.1891794 78.0411741,67.2748689 C77.8285852,67.2959154 77.6159963,67.316962 77.2749525,67.3598067 C77.573178,67.8927352 77.8285852,68.3189277 78.0839924,68.7451202 C77.2749525,68.9360424 77.2749525,68.9360424 77.4447232,69.7034895 C77.5311109,70.0447442 77.6580633,70.3852472 77.6370298,70.7047036 C77.6370298,71.0249117 77.573178,71.4511042 77.3598379,71.5999333 C76.8918417,71.9832811 76.8490234,72.4305201 76.8708082,72.9634486 C76.8708082,73.7308957 76.7213198,74.4975912 76.2743572,75.1793488 C76.01895,75.5634482 75.7199734,75.9039512 75.3796808,76.3301437 C75.2947955,76.3083455 75.1032401,76.3083455 74.9747853,76.2234077 C74.4639709,75.8400599 73.9531564,75.4559605 73.5061938,75.0305197 C73.0374465,74.5614825 72.5258809,74.0924453 72.2073731,73.5392219 C71.6958075,72.6011474 71.7386257,72.5590543 70.6741786,72.8785108 C70.5675086,72.8995573 70.4826232,72.8785108 70.5885421,72.8785108 C70.0349094,72.5162096 69.6517986,72.2388462 69.3956402,72.0682189 C69.3317884,71.536042 69.3107549,71.088803 69.2258695,70.641564 C69.1409842,70.0868373 68.9914959,69.5328622 68.885577,68.9578406 C68.8427587,68.6594307 68.8427587,68.3610208 68.7360887,68.0626109 C68.6932704,67.9137818 68.5227485,67.6792632 68.3740114,67.6582166 C68.2252743,67.6364184 67.9698671,67.7649527 67.8842305,67.9137818 C67.6288233,68.2121917 67.4583014,68.5744929 67.266746,68.9149959 L67.0323724,68.9149959 C66.9257023,68.5106016 66.7559316,68.1054556 66.7341469,67.6792632 C66.7131134,67.1470863 66.7979987,66.6141578 66.8197834,66.0601827 C66.8618505,65.5062077 66.9046688,64.9304344 66.8618505,64.3554128 C66.7979987,63.5669191 66.9685206,63.311354 67.7775605,63.2685092 C68.3740114,63.2474627 68.9914959,63.3324005 69.6097316,63.2474627 C70.1197948,63.1835714 70.6741786,63.0557888 71.142926,62.8212702 C71.7386257,62.5228603 72.3132919,62.1605591 72.803824,61.6922735 C73.4844091,61.0533607 74.1447119,60.712106 75.0596706,61.1382985 C75.4435326,61.3089258 75.847677,61.3089258 76.0828018,60.7759973 C75.7417581,60.2859135 75.1670919,60.2009757 74.677311,60.0942397 C73.9321229,59.9236123 73.4205573,59.6041559 73.4844091,58.7517709 C73.4844091,58.7307244 73.377739,58.6878796 73.335672,58.6668331 C72.9307764,58.8156622 72.5258809,58.9862895 72.1217365,59.1351187 C72.3771437,59.2418547 72.6115174,59.3485907 72.9735947,59.4763733 C72.3561102,59.9025658 71.8663293,59.3696373 71.3555149,59.4974199 C72.0158177,60.2438204 72.0796695,60.6910595 71.6109221,61.4367084 C71.0144712,62.4168759 70.0777277,62.6934876 68.9914959,62.7152858 C68.0765371,62.7573789 67.4372679,62.3529846 67.0534059,61.5434444 C66.521558,60.4775874 67.0962242,59.6470006 68.3311931,59.7319385 C68.5655668,60.4347426 67.7347422,59.8815193 67.6716416,60.2859135 C67.798594,60.7970438 68.1614225,60.9676712 68.6504521,60.818842 C68.7999405,60.7759973 69.0132806,60.6271682 69.0343141,60.5204321 C69.0553477,60.1152862 68.9914959,59.6890937 68.9704623,59.2846994 C69.1830513,59.2418547 69.3746067,59.19901 69.6735834,59.1351187 C68.1186042,58.8795535 66.9046688,59.7108919 65.5848145,60.0724415 C65.2227372,60.6692613 65.3925079,61.5005997 64.7322051,61.9478387 C64.6683533,62.01173 64.7111716,62.2034039 64.6901381,62.3311864 C64.6901381,62.4807672 64.7322051,62.7363324 64.6473198,62.7791771 C64.0944383,63.0986336 64.3070272,63.6097639 64.3280608,64.0570029 C64.3280608,64.3982576 64.4347308,64.7387605 64.4136973,65.0589686 C64.4136973,65.5490524 64.1582901,65.7189281 63.6895428,65.5911455 C63.3702838,65.5062077 63.0713071,65.3573786 62.7738328,65.2506425 C62.8166511,65.0371704 62.9225699,64.82445 62.8587181,64.6538227 C62.6250957,63.9931116 62.5612439,63.41809 63.1141254,62.864115 C63.2215466,62.7573789 63.306432,62.458969 63.2425802,62.3311864 C62.9015364,61.564491 63.02924,60.5204321 61.9858265,60.1581309 C62.1135301,58.858507 62.0707118,57.6227743 61.4532273,56.4719794 C61.3044902,56.194616 61.2406384,55.81202 60.836494,55.9608491 C60.4954503,56.0886317 60.5803356,56.4080881 60.6870057,56.6636533 C60.9641976,57.1747836 60.7290728,57.4949917 60.5164838,57.6438208 C60.0274541,57.7287586 59.7284775,57.7716034 59.4310032,57.8354947 C59.5369221,58.1549511 59.6225586,58.4744076 59.7502622,58.8156622 C59.3461179,59.3267925 59.3461179,59.3267925 59.6435921,59.9236123 C59.9846359,60.6271682 60.3887802,61.3299724 60.4736656,62.3740312 C59.9410664,62.0545747 59.5587068,61.7990096 59.1538113,61.5855375 C58.6858151,61.3510189 58.195283,61.0954537 57.7062534,60.9466246 C57.3434249,60.8398886 57.0249171,61.0744072 56.918247,61.4367084 C56.8333617,61.7990096 57.1098024,61.904994 57.3862432,61.9906835 C58.0465459,62.1823573 58.3019531,62.7152858 58.5581115,63.2474627 C58.0037276,63.865329 58.0037276,63.9081738 58.472475,64.3133197 C58.6001786,64.4193041 58.7707005,64.4831954 58.8766193,64.6117296 C59.2822661,65.0589686 59.9410664,65.4212698 59.5369221,66.2308101 C59.494855,66.3367944 59.5797403,66.571313 59.6864104,66.6780491 C60.3467132,67.4665428 60.2828614,68.3610208 60.091306,69.277297 C59.8779658,69.2344523 59.6646257,69.1923592 59.6225586,69.170561 C59.1538113,69.575707 58.791734,69.8741169 58.3868384,70.1935733 C58.3868384,70.3431541 58.472475,70.5987192 58.3868384,70.7265018 C57.8129234,71.5788868 58.3868384,72.1539084 58.7496669,72.835666 C59.1320265,73.5174237 59.6646257,74.1991813 59.2822661,75.094411 C59.2394478,75.2432401 59.3461179,75.4777587 59.4092185,75.6694326 C59.6864104,76.5857088 59.6646257,76.6706467 58.8555858,77.2674665 C58.7707005,77.3313578 58.6858151,77.4591404 58.5791451,77.5658764 C58.791734,78.3754166 59.4092185,78.9083451 59.9628511,79.3766307 C60.5164838,79.8667145 61.2196048,80.1440778 61.8799076,80.506379 C62.3486549,80.7829907 62.7738328,80.9318198 63.3913173,80.6552081 C64.2431754,80.2500622 64.9245117,80.6770063 65.2009525,81.6353757 C65.3076225,81.9766303 65.4991779,82.1472576 65.8191881,82.2111489 C66.0745953,82.2750402 66.3517873,82.3389315 66.5854098,82.4659624 C67.3944496,82.8290153 68.2252743,83.1695183 68.3740114,84.2135771 C68.4168297,84.4060026 68.5655668,84.6397696 68.7143039,84.6826143 C69.3956402,84.85249 69.4812768,85.3433254 69.5458798,85.918347 C69.6097316,86.5144152 69.6946169,86.5572599 70.3121014,86.3445395 C70.3969867,86.3227413 70.5036568,86.2806482 70.5885421,86.25885 C70.9926865,86.7278872 70.9506194,87.1961728 70.6313604,87.66521 C70.4608385,87.8786821 70.2692831,88.0914025 70.2054313,88.3477193 C70.162613,88.5393932 70.2054313,88.8160049 70.3331349,88.964834 C70.4187714,89.0723217 70.7800975,89.0933683 70.8867676,89.0076788 C71.2706296,88.6882223 71.8235111,88.4965484 71.7806928,87.7929926 C71.7386257,87.4096449 71.9083964,87.0052506 72.0368512,86.4084308 C72.5897327,87.0683902 73.05848,87.5802722 73.97419,87.5592257 C74.1657454,87.0262971 74.4429373,86.4723221 74.5496074,85.8762539 C74.6555263,85.1298533 75.0176035,84.5330335 75.4224991,84.000105 C75.7417581,83.5957107 75.8056099,83.2544561 75.7627916,82.8079687 C75.7199734,82.3389315 75.6779063,81.8698943 75.635088,81.3798105 C76.5718315,81.6353757 76.8490234,81.6564222 77.1682825,81.6782204 C77.4447232,81.9766303 77.8075517,82.1683042 78.1050259,82.4449159 C78.4678544,82.7861705 78.7442951,83.2762543 78.4678544,83.7234933 C78.211696,84.1278876 78.3611843,84.3842044 78.5317062,84.7247074 C78.6804433,85.0020708 78.7653287,85.3433254 78.8291805,85.6620302 C78.9140658,86.0671761 78.9568841,86.4505239 79.0207359,86.8556698 C79.0643054,87.217971 79.1281572,87.5802722 79.1912578,88.0064647 C78.5737733,87.8997286 78.3401508,88.1124491 78.4040026,88.6664241 C78.4460697,89.0076788 78.4678544,89.36998 78.4678544,89.7315295 C78.4678544,90.2005667 78.6165915,90.8402313 78.3822179,91.0957964 C77.9134705,91.5858802 77.9352553,92.0970105 77.8496187,92.6509856 C77.8285852,92.7366751 77.7436999,92.8216129 77.6580633,92.9275973 C77.4665079,92.7148768 77.2959861,92.5450012 77.1254642,92.3533273 C76.5079797,92.6509856 75.9340647,92.9275973 75.315829,93.2267588 C75.1881254,91.5858802 73.8893046,91.2025325 72.6964028,90.5839144 C72.8458911,90.1156289 73.0374465,89.6683899 73.1012983,89.2211508 C73.1441166,89.0505235 72.9735947,88.8160049 72.9097429,88.624331 C72.7399722,88.6882223 72.4838138,88.6882223 72.3981773,88.8160049 C72.0368512,89.3489334 71.716841,89.923955 71.3126967,90.5839144 C71.0565383,90.5200232 70.7162457,90.4140388 70.3549196,90.3922406 C70.1836466,90.3922406 69.9920912,90.5200232 69.8643876,90.6485574 C69.8223205,90.6914021 69.9500241,90.9680138 70.055943,91.0529517 C70.439805,91.3085168 70.8439493,91.5437871 71.1849931,91.735461 C71.1639595,93.3327432 69.6517986,93.9934543 68.4168297,94.1640816 C68.0765371,94.2069264 67.7347422,94.1640816 67.3944496,94.1851282 C66.947487,94.2069264 66.6702951,94.5684759 66.6920798,94.9097305 C66.7131134,95.229187 66.9685206,95.5914882 67.224679,95.8049602 C67.543938,96.0387272 67.8624458,95.8688515 68.0765371,95.5275969 C68.2463078,95.2930783 68.4806815,95.1014044 68.6722369,94.888684 C69.1830513,95.0803579 69.6307651,95.2502335 70.0987612,95.4216125 C70.8649829,94.376802 72.1217365,93.6950444 72.2073731,92.2465913 C74.1447119,92.3104826 74.6983445,92.4382651 74.5706409,94.3978486 C74.1447119,94.5474293 73.7187828,94.6759636 73.335672,94.781948 C73.2928537,95.5275969 73.2500354,96.1454632 73.2079684,96.7633296 C73.0802648,96.8272209 72.9946282,96.8482674 72.9097429,96.8911122 C72.3981773,97.1895221 71.8445446,97.4029941 71.8881141,98.1907361 C71.8881141,98.4463013 71.5681039,98.9371367 71.3555149,98.9581833 C70.7380304,98.9792298 70.7800975,99.3625776 70.7162457,99.7677235 C70.6103268,100.684 70.4826232,101.578478 70.3759532,102.324127 C70.0138759,102.580444 69.6946169,102.708226 69.6097316,102.920947 C69.524095,103.155465 69.6735834,103.475673 69.7156504,103.794378 C69.1830513,103.475673 69.2897213,102.708226 68.6083851,102.558645 C68.4806815,102.793164 68.3529779,103.006636 68.2463078,103.176512 C68.0126853,103.091574 67.8203787,103.006636 67.4800862,102.878853 C67.4162344,103.667347 67.3523826,104.349105 67.2885308,104.945173 C66.7769652,105.030862 66.3300026,105.158645 65.9040735,105.158645 C64.6473198,105.1158 63.413102,105.030862 62.2412337,104.540779 C61.8370893,104.370151 61.5606486,103.837223 61.0062647,104.135633 C60.9852312,104.156679 60.8793123,104.00785 60.7936758,103.943959 C60.5375174,103.816176 60.2610766,103.688394 59.8561811,103.49672 C59.7502622,102.729273 58.4304079,102.68718 58.3447714,101.663416 C58.3229866,101.621323 58.2381013,101.578478 58.1742495,101.578478 C57.7911387,101.514587 57.4929132,101.301866 57.130836,101.19513 C56.8115769,101.110192 56.4705332,101.068099 56.1520254,100.98241 C55.6614933,100.832829 55.1506789,100.577264 54.7675681,100.236761 C53.9585282,99.4911118 53.2982255,98.4252548 52.9579329,97.3601494 C52.7438416,96.742283 53.1277036,96.1665098 53.1066701,95.5493951 C53.0428183,94.5256311 52.8512629,93.482324 53.2343737,92.5021564 C53.4469626,91.8842901 53.8090399,90.77634 54.4693426,90.4989766 C54.7675681,90.371194 55.2783825,90.4779301 55.5127562,90.6914021 C55.9379341,90.0735358 56.1520254,89.2632439 56.7905434,88.8370514 C57.3652096,88.4326572 58.1742495,88.4537037 58.8555858,88.3477193 C59.6007739,88.2620298 60.2400431,88.2191851 60.836494,87.7719461 C61.1767866,87.5163809 61.368342,87.3878467 61.5381127,87.0262971 C61.752204,86.5572599 61.9437594,85.8537041 62.4125067,85.5770924 C62.8166511,85.3433254 63.306432,85.3433254 63.6895428,85.0441639 C64.4775491,84.4270492 64.754741,83.2762543 64.7757746,82.3171333 C64.7757746,82.1472576 64.6045015,81.9766303 64.5196162,81.806003 C63.1787283,82.2960868 62.2622672,83.5318195 60.8154605,83.659602 C60.6441874,82.6801862 60.5375174,82.5088072 59.5587068,82.3599781 C58.8555858,82.2750402 58.1103977,82.1893507 57.4290614,82.3389315 C56.2579443,82.6155432 55.1288942,83.0627822 53.9795618,83.4897264 C53.2764407,83.7452915 52.6168892,83.8941207 52.0632565,83.1695183 C51.1685801,83.7024468 50.3377555,83.44613 49.4866485,83.1905648 C48.1450095,82.8079687 46.8251552,82.3599781 45.482765,82.0833664 C43.8646852,81.7421117 43.4605409,81.8480961 42.97076,83.617509 C42.4163761,83.4040369 41.7996428,83.2544561 41.2880772,82.9567979 C40.7554781,82.6576363 40.2874819,82.2111489 39.7338493,81.7842048 C39.6061456,82.0615681 39.5002268,82.253242 39.478442,82.4238693 C39.436375,83.3183474 39.9682229,83.9580119 40.6495592,84.3203131 C41.5652692,84.7885987 41.94838,85.5342476 42.1617201,86.4505239 C42.267639,86.9413593 42.4809791,87.4096449 42.6725345,87.8997286 C43.0346118,88.8160049 43.9713553,88.4326572 44.6526916,88.1552938 C45.482765,87.8147908 46.7184851,88.0064647 47.5485586,88.3048746 C48.1878278,88.5393932 48.762494,88.964834 48.9548006,89.6044986 C49.2312413,90.6057126 50.4016073,91.1386412 50.423392,92.2037465 C50.423392,92.7366751 50.3595402,93.2696036 50.3805737,93.8017804 C50.4451767,94.6331188 50.742651,95.4216125 50.7005839,96.2521993 C50.6577657,97.1895221 50.0192477,97.7645437 49.2733084,98.2335809 C48.6986422,98.5958821 48.123976,98.9371367 47.527525,99.2558415 C47.0159594,99.5121583 46.5058962,99.7248787 46.1220342,100.193916 C46.0371489,100.300652 45.8245599,100.38559 45.6750716,100.364543 C44.7803952,100.279605 44.1208436,100.747891 43.4605409,101.216928 C42.6086827,101.813748 41.6501545,102.239189 40.9695694,103.048729 C40.5218556,103.560611 40.01029,104.00785 39.5212603,104.476887 C39.5851121,104.774546 39.6699974,105.137598 39.7548828,105.520194 C38.6265839,105.755465 37.6890892,105.733667 36.9446523,104.859483 C36.7523457,104.646763 36.475905,104.412996 36.092043,104.455089 C36.263316,104.966971 36.5187232,105.286428 37.179026,105.690822 C37.5403521,105.883247 37.7536922,106.095968 37.7536922,106.543958 C37.7754769,107.353499 38.0519177,108.013458 38.8819911,108.311868 C38.9458429,108.333666 38.9886612,108.354713 39.0314794,108.375759 C39.2868866,108.311868 39.5002268,108.22693 39.8187346,108.119442 C39.691031,108.460697 39.6271792,108.674169 39.5422938,108.88689 C40.2236301,109.185299 40.5646739,108.716262 40.9477847,108.354713 C41.097273,108.184085 41.2880772,107.906722 41.3947473,107.927769 C41.8845282,108.077349 42.0760836,107.736846 42.2886725,107.438436 C43.0556453,106.308688 44.2057289,105.626931 45.3340278,104.966971 C45.6322533,104.795592 46.0153641,104.391198 46.3346231,105.009816 C46.3774414,105.051909 46.569748,105.073707 46.5907815,105.030862 C47.0377441,104.497934 47.4636732,105.179692 47.9316694,104.966971 C48.0390906,105.41421 48.1029424,105.755465 48.1878278,106.117014 C48.2516796,106.436471 48.4222014,106.565005 48.7407092,106.543958 C49.3799785,106.521409 49.7210222,106.159859 49.9974629,105.584086 C51.0408765,105.883247 52.0850412,106.032076 53.0638518,105.286428 C53.4679961,105.711868 53.8518582,106.138813 54.2988208,106.60785 C54.5549792,106.393626 54.980157,106.22375 55.0229753,105.989232 C55.1717124,105.350319 55.6614933,105.286428 56.1092071,105.265381 C56.5133515,105.243583 56.7905434,105.158645 57.0459506,104.859483 C57.1946878,104.689608 57.621368,104.60467 57.7911387,104.689608 C58.5791451,105.1158 59.4310032,105.541993 60.1761913,106.01103 C60.5375174,106.22375 60.836494,106.479315 61.155753,106.735632 C61.7732375,107.224964 62.3696885,107.821784 62.7310145,108.524588 C63.0930918,109.313082 63.3702838,110.122622 63.5190209,110.975007 C63.625691,111.784547 63.5408056,112.615886 63.5828727,113.425426 C63.5828727,113.510364 63.5618392,113.596053 63.5190209,113.787727 C63.3702838,113.489317 63.2425802,113.276597 63.0713071,112.957141 C62.6033109,113.937308 63.0713071,114.852833 62.4545738,115.599233 C62.0707118,115.151243 62.4545738,114.51233 61.9009411,114.128982 C61.8160558,115.002413 61.7304193,115.790155 61.6665675,116.578649 L61.5170791,116.600447 C61.4321938,116.42982 61.368342,116.259193 61.2616719,115.960783 C60.836494,116.72823 60.8793123,117.452081 60.091306,117.601661 C59.814114,117.047686 59.3881849,117.005593 58.9832894,117.388189 C58.6219633,117.751242 58.4304079,117.260407 58.195283,117.282205 C57.8549905,117.494925 57.9826941,118.070699 57.3862432,118.070699 C57.4290614,117.643754 57.450095,117.282205 57.4929132,116.877059 C56.5561697,116.685385 56.5772033,117.921118 55.7471299,117.857227 C55.8102305,117.579863 55.895867,117.282205 56.0025371,116.983795 C55.7891969,116.962749 55.6614933,116.941702 55.5337897,116.919904 L55.5337897,115.748062 C55.0011906,116.238146 55.0440088,116.962749 54.3837061,117.175469 C53.8090399,116.493711 55.1078606,116.196053 54.6826828,115.471451 C54.2131842,115.981829 53.7880063,116.450867 53.3620773,116.919904 C53.2982255,116.898106 53.2343737,116.855261 53.1915554,116.813168 C53.319259,116.472665 53.4469626,116.132162 53.5536327,115.790155 C52.6799898,116.578649 52.2548119,117.815133 50.9131729,118.091745 C50.6577657,117.751242 50.4016073,117.431034 50.104133,117.047686 C50.0613147,117.452081 50.0192477,117.708397 49.9764294,118.198481 C49.5287156,117.708397 49.2312413,117.388189 48.8909488,117.005593 C48.8481305,117.154422 48.827097,117.23936 48.7835275,117.303252 C48.7407092,117.409988 48.6558239,117.515972 48.5281203,117.751242 C48.2727131,117.388189 48.0390906,117.133376 47.8896023,116.855261 C47.4847067,116.045721 46.9521076,115.513544 45.9515123,115.705218 C45.866627,115.854047 45.7607081,116.024674 45.6750716,116.153208 C45.3129943,115.917938 45.0147688,115.726264 44.6098733,115.471451 C44.524988,115.939736 44.4611362,116.259193 44.3762508,116.621494 C43.8008334,116.621494 43.2689855,116.664339 42.7363863,116.600447 C42.2037872,116.536556 41.6501545,116.196053 41.2031919,116.323084 C40.5857074,116.514758 40.2454149,115.875845 39.6489639,116.045721 C39.5640786,116.834214 40.074893,117.260407 40.5428891,117.643754 C41.0116365,118.006807 41.2460101,117.431034 41.629121,117.218314 C42.0122318,117.708397 42.4163761,118.155636 42.7574198,118.667518 C43.5454262,119.838608 44.2695807,121.075093 45.0786206,122.225136 C45.3978796,122.694173 45.8245599,123.119614 46.2925561,123.439822 C47.5913768,124.356098 48.9548006,125.186685 50.2956884,126.03907 C50.9131729,126.443464 51.5524421,126.827564 51.8070981,127.616057 C51.8499164,127.74384 52.042223,127.828778 52.2548119,128.020451 C52.9579329,126.870408 52.7017745,125.421204 53.5536327,124.483881 C54.7675681,124.441036 54.7675681,123.247396 55.3850526,122.673126 C55.5127562,122.843002 55.6194263,123.034676 55.7253451,123.22635 C56.6410551,122.928692 57.5995833,122.843002 58.0255124,121.75685 C58.7496669,122.352918 59.4520367,122.587437 60.3038949,122.310074 C60.665221,122.906893 61.2406384,123.034676 61.8160558,122.8648 C62.326119,122.673126 62.7527993,122.289027 63.2425802,121.969571 C63.306432,122.054508 63.413102,122.1184 63.4551691,122.182291 C63.9877682,122.906893 64.3280608,123.82317 65.4353261,123.887061 C65.5202115,123.887061 65.6065992,123.993797 65.6696998,124.079486 C66.1166624,124.824384 66.9046688,125.314467 67.1180089,126.230744 C67.266746,126.784719 67.543938,126.84861 68.0126853,126.529905 C68.2463078,126.358526 68.4168297,126.145806 68.6294186,125.975179 C68.8427587,125.805303 69.0343141,125.52794 69.3956402,125.633924 C69.2897213,126.422418 69.2686878,127.189113 69.0132806,127.871622 C68.7999405,128.510535 68.3311931,129.065262 67.9698671,129.640284 C66.947487,128.702209 66.9046688,128.702209 65.7125181,129.511749 C65.2009525,129.511749 64.8185929,129.426812 64.4985826,129.554594 C64.1793236,129.662082 63.9231652,129.95974 63.6895428,130.151414 C62.9864217,129.662082 62.3486549,129.193045 61.7093857,128.723256 C61.6665675,128.702209 61.5816821,128.660116 61.5170791,128.660116 C60.6870057,128.7661 59.7712957,128.361706 59.0899595,129.107355 C57.9188423,128.318861 57.3862432,128.489489 56.8972135,129.74702 C56.7905434,130.023631 56.6838733,130.32129 56.5982368,130.577606 C55.7681634,130.620451 55.7471299,130.620451 55.7043116,131.345054 C55.6832781,131.87723 55.5555745,132.282376 55.1078606,132.431205 C54.1072654,132.346268 53.703121,131.642712 53.3620773,130.876016 L52.1699266,130.876016 C52.042223,131.06769 51.8927346,131.281162 51.7432463,131.514929 C51.4668056,131.131581 51.2331831,130.833172 50.9342064,130.428777 C50.6577657,131.06769 50.4662103,131.557774 50.2528701,132.069656 C50.1890183,132.047858 50.1251665,132.026811 50.0402812,132.026811 C49.9764294,131.557774 49.9125776,131.088737 49.8487258,130.641498 C49.784874,130.641498 49.7210222,130.641498 49.6571704,130.663296 C49.6353857,131.06769 49.5925674,131.472836 49.5715339,131.962168 C49.1884231,131.600619 48.9119823,131.302209 48.5070868,130.918109 C48.230646,131.557774 48.0165547,132.047858 47.740114,132.707817 C47.3577543,131.749448 47.6980469,130.854218 47.143663,130.087523 C46.9310741,130.364134 46.8033705,130.641498 46.569748,130.812125 C46.3346231,130.960954 46.0371489,131.024845 45.7389234,131.131581 C45.6968563,130.684342 45.6750716,130.215305 45.6322533,129.704175 C45.3978796,129.662082 45.1852907,129.618485 45.0365536,129.597439 C44.6737251,129.086309 44.9937353,128.106141 43.9075035,128.233924 C43.4815744,127.467228 43.6520963,126.422418 42.7792046,125.612877 C42.651501,125.826349 42.5448309,126.03907 42.4381608,126.25179 C42.0760836,125.67752 41.7786093,125.144592 41.4157808,124.63271 C40.9906029,124.03589 40.3303002,124.335052 39.7766675,124.335052 C39.2868866,123.482667 38.9458429,122.609235 38.0939847,121.948524 C37.8813958,122.352918 37.7116251,122.673126 37.5613856,122.991831 C36.7313122,122.289027 36.7523457,121.011201 35.6878986,120.265552 C35.518128,120.94731 35.4114579,121.457689 35.2619696,122.1184 C34.8150069,121.16003 34.0270006,120.648148 33.6649233,119.75367 C33.4523344,119.199695 33.0692236,118.496891 32.2601837,118.496891 C32.1535136,118.64572 32.0468436,118.773503 31.8763217,118.94413 C31.5998809,118.198481 31.961207,117.473879 31.4083255,116.855261 C31.3437225,117.346096 31.2798707,117.815133 31.1949854,118.453295 C30.8967599,117.815133 30.684171,117.367143 30.4069791,116.770323 C30.1943901,117.346096 30.0666865,117.708397 29.9600164,118.006807 C28.9812059,118.13459 29.129943,117.324298 28.8527511,116.983795 C28.4906738,117.02664 28.1714148,117.069485 27.8303711,117.111578 C27.6606004,117.83618 27.469045,118.539736 27.2128866,119.498105 C26.8297758,118.773503 26.5315503,118.304466 26.2971766,117.793335 C26.0425206,117.23936 25.8719988,116.64254 25.5948068,116.110364 C25.3604331,115.641326 25.530955,115.002413 24.9345041,114.42664 C24.8068005,116.2171 24.7429487,117.815133 23.9128752,119.391369 C23.3164243,118.432248 23.5079797,117.452081 23.166936,116.536556 C22.6989398,117.260407 23.2525725,118.112792 22.6568727,118.688565 C21.9327182,118.411202 21.3790855,117.772289 20.5272274,117.985009 C20.4415908,118.006807 20.1433654,117.730196 20.1433654,117.601661 C20.1643989,117.090531 19.9307764,116.749276 19.5686992,116.408773 C19.419962,116.280991 19.4409955,115.981829 19.4409955,115.981829 C18.7596593,115.556389 18.1849931,115.32187 17.7372792,114.916724 C17.481872,114.682957 17.4390538,114.21392 17.2903166,113.766681 C16.8643876,113.830572 16.417425,113.894463 15.9486776,113.979401 C14.863197,113.148814 14.5003685,112.253585 14.2877796,111.401951 C13.6702951,110.932914 13.0956289,111.017852 12.4571109,111.614672 C12.3714743,111.230572 12.2437707,110.953961 12.2655555,110.719442 C12.3932591,109.611492 11.4775491,108.73806 11.5624344,107.63011 C10.8600646,107.374545 11.1785724,106.777725 11.2213907,106.074921 C10.5821215,106.990446 10.0720583,106.500362 9.49664087,106.22375 C9.51767441,105.840403 9.53945914,105.435257 9.56049267,105.030862 C8.47501205,104.753499 9.3268702,103.70944 8.79427105,103.155465 C7.6870057,102.729273 6.66462568,103.752285 5.51454205,103.645549 C5.55736032,102.473707 6.68641041,101.621323 6.2386966,100.428435 C5.94122233,100.449481 5.70609746,100.471279 5.38683845,100.492326 C5.70609746,99.7038322 6.02610766,99.0220746 6.28151487,98.3185187 C6.3664002,98.0847518 6.40921847,97.6367611 6.3025484,97.5728698 C5.62121212,97.147429 5.87661933,96.6994383 6.15381127,96.2101062 C6.3664002,95.8470533 6.26048133,95.6343329 5.79173399,95.6343329 C5.62121212,96.0387272 5.47247498,96.4649197 5.28091958,96.8482674 C4.5995833,98.1696896 3.96031409,99.5339565 3.1512742,100.768938 C2.25659778,102.196344 1.17111716,103.517766 0.169770672,104.881282 C0.0848853361,105.009816 0.0638518015,105.179692 0,105.371365 C0.190804207,105.392412 0.34104374,105.435257 0.468747342,105.41421 C1.74578337,105.350319 3.0235706,105.243583 4.23675483,104.795592 C4.47187969,104.710654 4.74832044,104.795592 5.00372764,104.795592 C4.98194291,105.051909 5.02476118,105.328521 4.91809111,105.541993 C4.76935397,105.883247 4.5357315,106.180906 4.34417609,106.500362 C3.89646228,107.203918 3.47053321,107.906722 2.9597188,108.73806 L4.15186949,108.73806 C4.49291323,108.759107 4.85423931,108.780154 5.32298665,108.801952 C5.15321598,109.057517 5.08861298,109.164253 5.00372764,109.270989 C4.02416589,110.442079 4.74832044,111.081743 5.68506392,111.401951 C6.06892593,111.528982 6.47307027,111.571827 6.83514755,111.656765 C6.85693228,111.742454 6.89899935,111.763501 6.89899935,111.806346 L6.89899935,112.104004 C6.87796581,113.084923 6.94181761,113.148814 7.8785611,113.169861 C8.81530459,113.212706 8.90018993,113.532162 9.0707118,114.469485 C9.15634833,114.895677 9.0707118,115.385761 9.0707118,115.833 C9.0707118,116.685385 8.66656745,119.370323 9.62434447,119.710826 C10.2636137,118.624674 10.4123508,117.388189 10.9239164,116.259193 C11.3919126,116.386975 11.3701278,117.069485 11.3280608,117.515972 C11.5203674,117.197267 11.6052527,116.64254 11.9665788,116.621494 C11.9883635,117.090531 11.9665788,117.558817 11.9883635,118.027854 C12.0732489,117.879025 12.1581342,117.579863 12.3076225,117.388189 C12.6907333,117.921118 12.3932591,118.539736 12.605848,119.092959 C12.9461405,118.709612 12.9461405,117.963963 13.3082178,117.730196 C13.5425915,117.942916 13.6702951,118.262373 13.7551804,118.581829 C13.9903053,118.411202 14.1811095,118.411202 14.3726649,118.64572 C14.7137086,118.389403 15.2673413,118.262373 15.3522267,118.816348 C15.4160785,118.816348 15.4806815,118.795301 15.5655668,118.795301 C15.7143039,119.370323 15.8637923,119.860406 15.8637923,120.478273 C16.0553477,120.030282 16.4602432,119.477059 16.8215693,119.220742 C16.9492729,120.329444 16.3746067,121.479487 16.5023103,122.587437 C16.9492729,122.630282 17.5667574,122.289027 17.8867676,121.969571 C18.2488449,121.607269 18.4824673,120.563211 18.9301811,120.499319 C19.5904839,121.436642 19.3132919,122.800909 19.6753692,123.802123 C21.0808601,123.695387 20.7187828,121.564425 21.5698897,121.202875 C22.8484282,122.71522 22.8904952,124.973965 23.3374578,126.806517 C23.7213198,126.018023 24.0398276,124.952918 24.1900672,124.057688 C24.5724268,124.611663 24.8706523,125.101747 25.1478442,125.719613 C25.3604331,126.209697 25.5099215,127.040284 25.8719988,127.424383 C26.2551096,127.296601 26.2761431,126.720828 26.3610284,126.33748 C26.8936276,126.571998 27.0002976,127.381539 27.5539303,127.488275 C27.5757151,127.275554 27.7665193,127.083129 27.8521558,126.9343 C28.0857783,127.125973 28.2142331,128.127939 28.3847549,128.170032 C28.7040139,128.233924 28.8099328,127.977607 28.7888993,127.637104 C29.1727613,127.95656 29.2358619,128.55338 29.6828245,128.745054 C29.768461,128.233924 29.7474275,127.722042 29.7902458,127.210911 C30.1305383,127.637104 30.5782521,130.087523 31.0672818,129.597439 C31.4721773,129.171246 31.1739519,127.531119 31.1739519,126.998191 C31.1739519,126.230744 31.0883153,125.400157 31.3234402,124.63271 C34.5175327,128.170032 35.3693908,132.516143 36.4338379,137.033633 C36.9446523,136.117357 36.5607903,134.945516 37.0085041,134.029239 C37.7116251,134.541121 37.9031805,135.839994 38.2645066,136.607441 C38.8181393,137.737189 39.1373983,138.930077 39.6489639,140.080872 C40.2664484,139.78171 40.4369703,138.738403 40.6495592,138.16263 C41.2460101,138.908279 41.5014174,142.595182 42.3314908,142.616229 C42.8002381,142.637275 43.0346118,140.67694 43.1623154,140.336437 C43.7159481,141.615014 43.609278,142.786104 43.7797999,144.08648 C44.4821697,143.809117 44.631658,142.147191 44.8870652,141.48648 C44.8232134,142.062253 45.0365536,142.744011 45.1214389,143.319033 C45.5255832,143.127359 45.4406979,142.338865 45.8027752,142.253176 C46.4412932,142.0833 46.3564079,143.084514 46.9310741,143.020623 C46.9949259,142.722965 47.1226295,142.424555 47.2075148,142.126145 C47.7829322,142.786104 48.2727131,143.446815 48.7835275,144.150371 C49.3589449,144.917067 49.2312413,144.768238 49.4648638,144.150371 C49.9336111,142.956732 49.6571704,141.103133 49.5925674,139.803509 C50.104133,140.250748 50.6367321,140.655893 51.0829436,141.145977 C51.8709499,141.998362 52.3396973,143.170204 53.1277036,143.958697 C53.2343737,143.638489 53.4041443,143.297986 53.5318479,142.977778 C54.4272756,143.617443 55.0011906,145.023803 55.576608,145.940079 C55.9597188,145.812296 56.0453553,145.300414 56.0881736,144.938865 C56.3856479,145.918281 56.5561697,147.921461 57.5785498,146.515101 C58.195283,145.663467 58.6429969,144.490874 59.3671514,143.745225 C59.6646257,143.446815 61.155753,142.424555 60.665221,141.78489 C60.8793123,142.062253 60.9641976,142.488446 61.1339683,142.786104 C61.6027157,142.360663 61.7093857,141.615014 61.9647929,141.061039 C62.1984154,141.657859 62.1984154,142.29602 62.4125067,142.89284 C62.6033109,142.722965 62.5394591,142.190036 62.6250957,141.912673 C62.9015364,140.805474 63.5408056,139.803509 63.9021317,138.738403 C64.1793236,137.886018 64.8824447,135.0515 65.9679253,134.987609 C66.244366,134.966562 66.1384471,135.265724 66.4366726,135.073298 C66.7559316,134.881624 66.628228,134.434385 67.0751906,134.455432 C67.4372679,134.47723 67.6077898,135.137189 68.0765371,134.881624 C68.2673413,134.774888 68.3311931,134.305851 68.3950449,134.114177 C68.4168297,134.413339 68.7578734,134.987609 68.9914959,135.201081 C69.2469031,134.83878 69.3746067,133.709783 69.9500241,133.922503 C70.162613,134.008193 70.3759532,134.68995 70.4608385,134.817733 C70.759064,135.307817 71.2067778,136.203046 71.716841,136.415767 C71.8663293,136.203046 72.0368512,135.989574 72.1645548,135.755056 C72.3561102,135.414553 72.3771437,134.945516 72.5686992,134.668904 C72.5476656,135.073298 72.7399722,135.542335 72.803824,135.94673 C72.9097429,136.607441 72.9525612,137.246354 73.016413,137.907065 C73.4205573,137.140369 73.6338974,136.330829 73.8893046,135.478444 C74.0380418,135.009407 74.0808601,134.263758 74.4429373,133.922503 C74.6134592,134.47723 74.4429373,135.158236 74.677311,135.691164 C74.9327182,135.329615 75.2309437,134.881624 75.5073844,134.519323 C76.01895,133.901457 76.93466,132.771708 77.8075517,133.28359 C78.3611843,133.624845 78.808147,133.496311 79.234076,132.98518 C79.4684497,132.750662 79.6171868,132.431205 79.8087422,132.111749 C80.2346713,132.622879 80.6395669,133.134761 81.0865295,133.603047 C81.2142331,133.731581 81.4478555,133.88041 81.6401621,133.88041 C81.7257987,133.88041 81.8955694,133.581249 81.9166029,133.411373 C81.9594212,132.771708 81.9166029,132.111749 81.9383876,131.472836 C81.9594212,131.152628 82.023273,130.833172 82.0660912,130.428777 C82.9171982,131.216519 82.9171982,131.216519 83.4287638,131.173675 C83.684171,129.725973 83.9613629,128.297815 84.2167701,126.870408 C84.3016555,126.891455 84.3655073,126.891455 84.4293591,126.891455 C84.4932109,127.083129 84.5360291,127.296601 84.5780962,127.488275 C85.8776682,127.275554 85.8987017,127.253756 86.8354452,126.273588 C87.6662698,126.63589 87.7721887,126.571998 87.8367917,125.655722 C87.8796099,125.250576 87.9644953,124.824384 88.0283471,124.313253 C88.7953199,125.22953 88.837387,125.22953 89.6043598,124.249362 C89.9446523,124.356098 90.2856961,124.441036 90.7747257,124.589865 C90.8385775,123.866014 90.9024293,123.247396 90.9452476,122.630282 C91.0737024,122.545344 91.201406,122.502499 91.2862914,122.41681 C91.9255606,121.905679 92.1381495,120.989403 92.9900077,120.669947 C93.1387448,120.606055 93.1815631,120.179863 93.2446637,119.923546 C93.3303002,119.583043 93.3949032,119.220742 93.4797885,118.837394 C93.9906029,118.901285 94.4593503,118.858441 94.8417099,119.029068 C95.2255719,119.220742 95.5237974,119.583043 95.9497265,119.966391 C96.0346118,119.029068 96.1412819,118.262373 96.1623154,117.494925 C96.2051337,115.833 96.1841001,115.833 96.6310627,115.364715 C96.7587663,115.684171 96.8226181,116.024674 96.99314,116.302037 C97.0990589,116.472665 97.3552173,116.600447 97.5467727,116.600447 C97.6744763,116.600447 97.8660317,116.365929 97.9080988,116.196053 C97.9937353,115.939736 97.9719506,115.663125 97.9719506,115.385761 C97.9937353,114.852833 97.9937353,114.298858 97.9937353,113.894463 C99.1438189,113.254799 98.8455934,112.040113 99.3564079,111.273417 C99.5269297,111.230572 99.6967004,111.209526 99.8679735,111.187728 C99.8679735,110.911116 99.889007,110.719442 99.889007,110.527768 C99.9107917,110.29325 99.9318253,110.058731 99.9528588,109.846011 C100.975239,109.525802 100.953454,109.525802 100.847535,108.503542 C100.761899,107.651157 100.719832,106.82057 100.65598,105.989232 C101.528872,105.647977 101.528872,105.647977 101.528872,104.732452 C101.528872,104.263415 101.549905,103.794378 101.528872,103.325341 C101.507838,102.751071 101.677609,102.282034 102.017901,101.813748 C102.316878,101.429649 102.571534,100.939565 102.678204,100.471279 C102.955396,99.1919502 102.955396,97.8930779 103.317473,96.6145005 C103.78622,94.8247927 104.041628,92.970442 103.955991,91.0957964 C103.934958,90.9469673 103.977776,90.8191847 103.998809,90.6914021 C104.105479,89.9667998 104.552442,89.7104829 105.211994,90.030691 C105.425334,90.1156289 105.638674,90.264458 105.829478,90.371194 C105.89333,90.3283493 105.936148,90.264458 106,90.2223649 C105.787411,89.7533277 105.574822,89.2632439 105.4043,88.9009427 M86.9631488,52.8068744 C87.5167815,52.6580453 87.7301216,53.0842378 88.1560507,53.5104302 C87.4536809,53.553275 87.3259773,52.9775017 86.9631488,52.8068744 M95.2683902,68.6594307 C95.4809791,69.0856232 95.693568,69.5118157 95.9497265,70.0018994 C95.332242,69.8530703 95.332242,69.8530703 95.2683902,68.6594307 M64.4347308,79.2698947 C64.0726536,79.2916929 63.8172464,79.1849568 63.9877682,78.8872986 C64.2221419,78.4393079 64.009553,78.2055409 63.7533946,77.907131 C63.5190209,77.6508142 63.306432,77.3952491 63.1141254,77.1186374 C63.02924,76.9901031 62.8805029,76.7773827 62.9225699,76.6706467 C63.3274655,75.5424017 62.709981,74.5614825 62.4763585,73.5392219 C62.4545738,73.4114393 62.4335403,73.2618585 62.4125067,73.0912312 C62.5394591,73.0062933 62.6889475,72.8995573 62.8166511,72.8146195 C63.4769538,72.3666288 63.5618392,72.2177997 63.306432,71.4721507 C63.02924,70.6197658 62.7527993,69.7463343 62.3696885,68.9149959 C61.8799076,67.8498905 62.00686,66.8058317 62.2202001,65.7407263 C62.2412337,65.570099 62.5394591,65.4423164 62.7310145,65.2927356 C62.5394591,66.571313 63.02924,67.6792632 63.5828727,68.7872133 C63.7316098,69.1074214 63.9021317,69.4479244 63.6895428,69.8530703 C63.5828727,70.0018994 63.6467245,70.3431541 63.7744281,70.5130297 C64.1154718,71.0249117 64.0944383,71.5999333 64.0726536,72.1757066 C64.05162,73.0491381 64.1365054,73.9225696 64.370879,74.7749546 C64.7968081,76.2655007 64.7322051,77.7785968 64.4347308,79.2698947 M78.0839924,81.3369658 C77.9134705,81.2520279 77.6580633,81.2099349 77.6370298,81.1031988 C77.4882927,80.6770063 77.3170196,80.4214412 76.8069564,80.2500622 C76.338209,80.0801865 76.4441279,79.4833667 76.8279899,78.9511899 C77.0833971,79.100019 77.2959861,79.2916929 77.5521445,79.3976772 C77.7857669,79.5051649 78.0629589,79.5480097 78.3401508,79.6329475 C78.7653287,80.2079691 78.3822179,80.7190994 78.0839924,81.3369658 M97.2267625,79.2916929 C96.7587663,79.5901028 96.3966891,79.2698947 96.0563965,78.9722364 C95.97076,78.9083451 95.8858746,78.8655004 95.8009893,78.8234073 C95.6086827,78.9293917 95.4381608,79.0150812 95.2255719,79.1428637 C94.8634946,78.2686806 94.4375656,77.4380938 93.6074921,76.8623205 C93.2025966,77.3313578 93.5646739,77.6087211 93.7772628,77.8424881 C94.2249766,78.2904788 94.4803838,78.8016091 94.2677949,79.3766307 C94.0965218,79.8456679 93.7562293,80.2290156 94.2039431,80.7190994 C94.5014174,81.0596024 94.6509057,81.5504378 95.2255719,81.6143291 C95.3960938,81.6353757 95.5658644,81.9555838 95.6297162,82.1472576 C95.8648411,82.87186 96.0774301,83.617509 96.2689855,84.3421113 C95.8430564,84.2135771 95.7153528,83.44613 95.0340165,83.7452915 C95.5658644,84.8742882 96.0984636,85.9822383 96.7377328,87.2600641 C96.3328373,87.111235 96.1623154,87.0262971 95.8858746,86.9413593 C95.8220228,87.3668001 95.7574198,87.7291013 95.6725345,88.1552938 C95.119653,87.9425734 95.0768348,87.5163809 94.9273464,87.1540797 C94.7568246,86.770732 94.629121,86.3227413 94.3954985,85.9822383 C94.2888284,85.811611 93.9477847,85.7898128 93.713411,85.7048749 C93.6713439,85.918347 93.5864586,86.1310674 93.5864586,86.3445395 C93.5864586,86.5362134 93.6713439,86.7278872 93.713411,86.9195611 C93.5226068,87.0683902 93.3513337,87.217971 93.1387448,87.3878467 C94.0965218,89.3910265 94.3098619,91.5437871 95.012983,93.6739978 C94.6929728,93.6101066 94.5014174,93.5462153 94.1183065,93.4605258 C94.2039431,94.0791438 94.2888284,94.5895224 94.3526802,95.1652957 L93.5008221,95.1652957 C93.5226068,95.4216125 93.5226068,95.6553795 93.5436403,95.8688515 C93.5436403,96.0176807 93.6285257,96.2739975 93.5646739,96.3378888 C93.1387448,96.635547 93.3513337,96.97605 93.4159367,97.3391028 C93.6285257,98.5958821 93.7990475,99.8526613 94.3098619,101.046301 C94.5232021,101.49354 94.8417099,102.111406 94.1183065,102.558645 C93.9906029,102.644335 93.9477847,103.091574 94.03267,103.304294 C94.6080874,104.774546 93.9049664,106.202704 93.9477847,107.694002 C93.7562293,107.118228 93.5646739,106.565005 93.3723673,105.989232 L92.2440684,105.989232 C92.0314794,106.671741 92.5422938,107.246011 92.6497151,107.970613 C92.2230348,108.077349 92.0532642,108.375759 92.0532642,108.865843 C92.0742977,109.355927 92.0104459,109.888855 91.8617088,110.357141 C91.7114692,110.826178 91.3929614,110.847225 91.0737024,110.484923 C91.0098506,110.399986 90.9880659,110.250405 90.9024293,110.229358 C90.7326587,110.165467 90.5200697,110.101576 90.3705814,110.14442 C90.2856961,110.165467 90.1782748,110.421032 90.2008107,110.549566 C90.2218443,110.783333 90.3495479,110.996805 90.4344332,111.230572 C90.6049551,111.69961 90.817544,112.168647 90.9662811,112.636932 C91.1796213,113.276597 91.1796213,113.894463 90.7326587,114.534128 C90.6688069,114.256013 90.6259886,114.001199 90.5411033,113.809525 C90.4562179,113.638147 90.2856961,113.532162 90.1572413,113.382581 C90.0085041,113.532162 89.8379823,113.680991 89.6892451,113.830572 C89.6464269,113.91551 89.6464269,114.022246 89.6253933,114.128982 C89.1138277,114.319904 88.7735352,114.192122 88.6886498,113.6171 C88.6676163,113.40438 88.6676163,113.190907 88.5812286,113.021032 C88.518128,112.913544 88.3047878,112.785762 88.1770842,112.785762 C88.0711653,112.80756 87.8585764,112.978187 87.8585764,113.084923 C87.8367917,113.425426 87.8585764,113.766681 87.9006435,114.086137 C88.0073135,115.044507 88.1132324,115.981829 88.198869,116.834214 C87.7083369,117.23936 87.283159,117.515972 86.9631488,117.879025 C86.8144117,118.070699 86.8354452,118.453295 86.8572299,118.752456 C86.8782635,119.413167 86.9421153,120.073127 86.9841823,120.733838 C86.7077416,120.883419 86.4951526,120.968357 86.1969272,121.096139 C86.1751424,120.754884 86.0902571,120.456475 86.1330754,120.179863 C86.2825637,119.434214 85.7709981,118.986223 85.4517391,118.453295 C85.3878873,118.368357 85.1324801,118.283419 85.02581,118.325512 C84.8981064,118.368357 84.7704028,118.581829 84.7704028,118.709612 C84.7704028,119.071913 84.8560393,119.45526 84.8981064,119.817562 C84.9829918,120.86162 85.2173654,121.905679 84.7704028,122.928692 C84.2167701,122.758064 84.0252147,122.373965 84.0252147,121.841788 L84.0252147,119.114006 C84.0252147,118.858441 84.0252147,118.624674 83.9613629,118.411202 C83.9185447,118.283419 83.7269893,118.13459 83.5992857,118.13459 C83.4715821,118.13459 83.2800266,118.283419 83.2372084,118.389403 C83.152323,118.624674 83.1733566,118.858441 83.152323,119.092959 C83.152323,119.987437 83.1951413,120.86162 83.152323,121.735804 C83.1095048,122.331872 82.9389829,122.906893 82.8112793,123.546558 C82.3853502,123.482667 82.0022394,123.119614 81.7888993,123.652542 C81.6619469,123.950952 81.5342433,124.249362 81.426822,124.504927 C81.2142331,124.228316 80.9377923,123.950952 80.7462369,123.631496 C80.6613516,123.482667 80.6823851,123.247396 80.6823851,123.055723 C80.7034187,122.437856 80.7462369,121.841788 80.7672705,121.223922 C80.788304,120.669947 80.7034187,120.13777 81.2780849,119.689779 C81.5552768,119.45526 81.491425,118.816348 81.5980951,118.325512 C81.8317175,118.304466 82.2148284,118.368357 82.3643167,118.219528 C82.5348386,118.027854 82.5558721,117.665553 82.5558721,117.367143 C82.5348386,116.003628 82.6835757,114.619066 82.2148284,113.233752 C82.0871248,112.871451 82.4709868,112.232538 82.7902458,111.827392 C82.98105,111.550781 83.4497973,111.465843 83.8764776,111.251619 C84.0252147,111.763501 84.1529183,112.1476 84.2806219,112.636932 C84.9409247,112.1476 84.6644839,111.465843 84.8770729,110.932914 C85.0686283,110.421032 85.238399,109.888855 85.4307056,109.355927 C85.4945574,109.376973 85.5584092,109.376973 85.622261,109.398772 C85.728931,109.69643 85.8138164,109.973793 85.983587,110.484923 C86.1751424,110.14442 86.367449,109.973793 86.367449,109.803918 C86.367449,107.800738 87.0487853,105.947139 87.4318961,104.028897 C87.4747144,103.858269 87.6234515,103.624502 87.7511551,103.581658 C88.240936,103.453875 88.3047878,103.091574 88.2837543,102.729273 C88.198869,101.046301 88.518128,99.341531 87.98628,97.6796058 C87.9224282,97.4668854 87.9434617,97.1684755 88.0493806,96.9978482 C88.4114579,96.3799819 88.4114579,95.6982242 88.3686396,95.0375131 C88.3047878,93.8235786 88.198869,92.6088925 88.1132324,91.3513616 C88.3904244,91.3085168 88.7096834,91.3513616 88.837387,91.2025325 C88.9868753,91.0529517 89.0289424,90.7334952 89.0289424,90.4779301 C89.0717606,89.2850421 89.0289424,88.1124491 88.6458316,86.9624058 C88.3904244,86.1739122 88.518128,85.2576359 87.98628,84.5330335 C87.9224282,84.4060026 88.0073135,84.1496858 88.0493806,83.9580119 C88.198869,83.4040369 88.0921989,82.9139531 87.5385662,82.6801862 C87.0705701,82.4449159 86.9841823,82.0615681 87.0487853,81.6782204 C87.1764889,80.9746646 87.4108626,80.3147051 87.602418,79.6329475 C87.6234515,79.5480097 87.7301216,79.440522 87.7939734,79.440522 C88.3047878,79.3555841 88.3476061,79.0150812 88.3265726,78.6099352 C88.3265726,78.2686806 88.3265726,77.9499758 88.6676163,77.7147055 C88.7735352,77.6297677 88.8802052,77.3952491 88.837387,77.2674665 C88.6676163,76.5218176 89.156646,76.0317338 89.4556226,75.434914 C89.540508,75.2432401 89.5615415,74.9455819 89.540508,74.7103116 C89.4128044,73.9225696 89.2415313,73.1340759 89.0927942,72.3245357 C89.0717606,72.1967531 89.0499759,72.0471723 89.0927942,71.9193898 C89.156646,71.7495141 89.2415313,71.5149955 89.3910196,71.4721507 C89.5194744,71.4082595 89.7741305,71.5149955 89.9018341,71.6427781 C90.3705814,72.0900171 90.3495479,72.0900171 91.0308841,72.1328618 C91.0737024,72.4523183 91.0947359,72.7928213 91.1157695,73.1130294 C91.1796213,74.1991813 91.6904357,75.1365041 92.0953312,76.0956251 C92.159183,76.2016095 92.2440684,76.3090972 92.3507384,76.4158332 C92.6917822,76.6924449 92.9900077,76.6075071 93.0959265,76.1805629 C93.1815631,75.9249978 93.2446637,75.6483861 93.3303002,75.2860849 C93.8839329,75.7551221 94.3316467,76.0956251 94.7568246,76.500771 C95.0768348,76.7984293 95.374309,76.9262118 95.6725345,76.5218176 C95.97076,76.1166716 96.2261672,76.2444542 96.4815744,76.5646623 C96.7166993,76.841274 96.99314,77.0968392 97.2057289,77.3952491 C97.3552173,77.6087211 97.5257392,77.8635346 97.5467727,78.0988049 C97.6106245,78.5242457 97.6744763,79.0361277 97.2267625,79.2916929" id="Fill-7" fill="#6E6E6D"></path>
            <path d="M66,134.171466 C66.0806318,134.788742 65.9950125,135.448075 66.3915212,136 C66.5951787,135.326432 66.79468,134.661922 67,134 C66.6733167,134.065351 66.3391521,134.122291 66,134.171466" id="Fill-9" fill="#6E6E6D"></path>
            <path d="M36.8855748,70.2348228 C37.1110609,70.6663431 37.3770189,71.1191731 37.6234636,71.5506935 C38.6265875,70.9030324 39.4873372,70.1054428 39.6506701,68.7028113 C39.4461427,68.400671 39.1187542,68.012531 38.93374,67.5810106 C38.8311149,67.3222506 38.8925454,66.9120399 39.0154064,66.6319703 C39.3644762,65.8336195 39.5075732,65.3807895 39.5278091,64.4096785 C39.1801847,64.3670592 38.810879,64.3236788 38.3808655,64.2802985 C38.4632546,64.0215384 38.5037265,63.8487781 38.565157,63.6547081 C38.8311149,62.877667 38.6475461,62.4682174 37.8684629,62.3175277 C37.2541578,62.2094574 36.6188942,62.230767 36.0255478,62.101387 C35.2674232,61.9286267 34.5092985,61.713247 33.8126044,61.3677263 C33.4028268,61.1523466 33.0956743,60.6995166 32.808035,60.2893059 C32.3375497,59.5777159 32.3577856,59.5556452 31.579425,59.7497152 C31.456564,59.7717859 31.3329803,59.7930956 31.1898834,59.7930956 C31.1494115,59.7930956 31.087981,59.7284056 31.0265505,59.7070959 C31.0265505,59.6424059 30.9853559,59.5343356 31.0055919,59.5130259 C31.4977586,59.0381252 32.0506331,58.6286755 32.1120636,57.8303248 C32.1120636,57.7656348 32.4401747,57.7222545 32.6244662,57.7222545 C32.8289937,57.7001838 33.1773407,57.8082541 33.2590072,57.7001838 C33.9152295,56.901833 34.8569229,57.2907341 35.6360062,57.0319741 C36.0255478,56.901833 36.5372278,57.2039734 37.0084358,57.3120438 C37.0084358,57.3767338 36.9881999,57.4634945 36.9881999,57.5494941 C36.8039084,57.5494941 36.5986583,57.5281845 36.4143668,57.5494941 C35.8810055,57.6141841 35.3693256,57.6354938 34.8569229,57.7435641 C34.2628538,57.8950148 33.7714098,58.2184648 33.6687848,58.9300548 C33.5871183,59.7070959 33.7511739,60.3539959 34.447868,60.7855163 C35.4719506,61.4111066 36.5776996,61.6051766 37.7456019,61.454487 C38.442296,61.3677263 38.810879,60.8288966 38.8520736,59.9871656 C38.8520736,59.5777159 38.7906431,59.1675052 38.7696844,58.7146752 C39.3435176,58.7359848 39.6101982,59.1028152 39.7532952,59.5556452 C39.8768789,59.8577856 39.9173507,60.2033063 39.9585453,60.5480659 C40.1226009,61.8860074 40.2245032,63.2018781 40.3885588,64.5390585 C40.4290307,64.8625085 40.5518917,65.1867195 40.6957113,65.4888599 C41.1669194,66.4805195 41.1054889,67.0634906 40.4087947,67.8405317 C40.4290307,68.1632206 40.5316557,68.4874317 40.4290307,68.724882 C40.0402117,69.6092324 39.8559202,70.6008921 39.2004206,71.3779331 C38.8520736,71.7660732 38.7906431,72.4350439 38.6475461,72.9746346 C38.5246851,73.3840842 38.3606296,73.6002249 37.9096574,73.2980846 C37.8482269,73.7942949 37.2743938,74.182435 37.8070324,74.7220257 C37.8482269,74.765406 37.7867964,74.9160957 37.7665605,75.0020953 C37.6234636,75.671066 37.4789212,76.3187271 37.3155884,76.9876978 C37.2743938,77.1383875 37.2541578,77.3971475 37.1515328,77.4618375 C36.2705471,77.9580478 36.0255478,79.2092286 34.8778815,79.4253693 C34.570729,79.4900593 34.3040484,79.9421282 34.0583264,80.2450296 C33.9152295,80.3957193 33.8740349,80.6331696 33.730938,80.7404789 C33.5871183,80.8698589 33.3616323,80.9140004 33.1773407,81 C33.1159102,80.7838593 32.9525774,80.5250993 33.0140079,80.3744096 C33.3616323,79.5973686 33.7923685,78.7563986 34.6119236,78.5189482 C35.6562421,78.2168078 35.7791031,77.3750768 36.1686448,76.4694168 C35.5745757,76.4694168 35.2262286,76.2753468 35.2876591,75.6276857 C35.3078951,75.4343767 35.0412144,75.1748557 34.8778815,74.9160957 C35.1843113,74.2684346 35.4517147,73.5568446 35.20527,72.8018742 C34.590965,72.4784242 34.1399928,72.0682135 34.2830898,71.2698628 C34.2830898,71.2272435 34.3242843,71.1838631 34.3040484,71.1625535 C33.6897434,70.4288928 34.3040484,69.6305421 34.1811874,68.8755717 C34.1399928,68.594741 34.1602288,68.2933617 34.0380905,68.077221 C33.853799,67.753771 33.9354654,67.5383913 34.1197569,67.2575606 C34.3445203,66.9120399 34.4890626,66.5025903 34.6523955,66.1570695 C33.9152295,65.5748595 33.3204377,65.0786492 32.7061327,64.5824388 C32.6244662,64.5177488 32.5218412,64.4530588 32.5016052,64.3670592 C32.4401747,64.1296088 32.2963551,63.8274684 32.3787442,63.6760177 C32.5420771,63.3738774 32.8694655,63.4819477 33.0342438,63.7193981 C33.4642573,64.2802985 34.0785623,64.4956781 34.6726314,64.7765088 C34.8778815,64.8625085 35.082409,65.0139592 35.2876591,65.0139592 C36.1274502,65.0786492 36.5372278,65.6829299 36.9058108,66.3298299 C37.0286718,66.5885899 37.1110609,66.7826599 37.4174907,66.8473499 C37.8482269,66.9554203 37.9710879,67.300941 37.8070324,67.7317003 C37.4998799,68.5521217 37.1927273,69.3717821 36.8855748,70.2348228" id="Fill-11" fill="#6E6E6D"></path>
            <path d="M32.5573152,42.0877433 C32.5993926,41.7662597 32.6621395,41.3373628 32.7034786,40.9084658 C32.7455559,40.5650456 32.5993926,40.1361487 33.0179513,40.0294918 C33.2268616,39.965195 33.5199265,40.2004454 33.8129914,40.3078588 C33.7502445,39.4720013 34.5246151,38.8282777 34.4411986,37.9281235 C34.4197908,37.7564135 34.7128558,37.4992266 34.921766,37.3918132 C35.3196552,37.1346263 35.675467,36.8986195 35.779553,36.3411291 C35.8009608,36.1482389 36.0519484,35.9341687 36.2401891,35.7836387 C36.5539236,35.5476319 36.9097354,35.3759218 37.2448777,35.1618516 C37.7261833,34.861548 37.9771709,34.9689614 37.9978405,35.5695684 C38.01851,36.0408256 37.8937544,36.4273624 37.4958653,36.8131427 C36.9938901,37.3063364 36.302936,37.7352334 36.302936,38.6353875 C36.302936,38.8502142 36.0733562,39.0854646 35.9478624,39.3214714 C35.8009608,39.5574782 35.6127201,39.793485 35.4872263,40.0506719 C35.1941614,40.5650456 35.2783161,41.3585429 34.4618682,41.5302529 C34.3363744,41.5521895 34.294297,41.8948532 34.1894728,42.0446267 C34.0219017,42.2594534 33.8550687,42.5597569 33.6461585,42.580937 C32.975874,42.731467 32.6621395,43.2458408 32.3269972,43.717098 C32.0346705,44.1459949 31.7622751,44.4674786 31.3437164,44.3820017 C30.5486763,45.7972861 29.8163831,47.1270936 29.021343,48.4130281 C28.6441234,49.0136351 28.1428864,49.5499455 27.6195034,50.0000225 C26.3003421,51.0930668 24.9191722,52.0794542 23.5808177,53.1308947 C23.266345,53.3873252 23.0153575,53.7307454 22.6809534,53.9455721 C22.5340518,54.0310489 22.2409869,54.0098688 22.074154,53.9236355 C21.9907375,53.9024554 21.9693297,53.5378552 22.0534844,53.4092617 C22.2623947,53.0234814 22.5133823,52.6800612 22.8064472,52.3585776 C23.3711693,51.8010872 23.7690584,51.15812 23.9986383,50.3858029 C24.0407156,50.2140928 24.313111,50.0643192 24.5013517,50.0212026 C24.5847681,50.0000225 24.7523392,50.2783895 24.8357557,50.4500996 C24.877833,50.5143963 24.8357557,50.6429898 24.8357557,50.7504031 C24.8357557,50.8146998 24.8564253,50.8789966 24.877833,51.0930668 C25.8197747,50.3646228 26.259003,49.3994155 26.6775617,48.4349646 C27.2002065,47.2556871 27.7656668,46.0975896 28.3724662,44.9606722 C28.6441234,44.4894151 28.9165187,43.9107446 29.6274042,43.9531048 C30.1301176,43.2670209 31.3437164,43.4810912 31.5740344,42.3668668 C31.594704,42.2594534 32.0553401,42.2375169 32.5573152,42.0877433" id="Fill-13" fill="#6E6E6D"></path>
            <path d="M66,35.8903828 C66.0906224,35.405766 66.2045019,34.7013631 66.3865487,34.0412281 C66.5910506,33.3150795 66.8637199,32.5881544 67.1363891,31.8837515 C67.2053584,31.6857109 67.4323154,31.5319383 67.6143622,31.3773891 C67.8188641,31.2236164 68.0915333,31.0915894 68.2278679,30.8927723 C68.7956615,29.8583018 69.3418019,28.8020858 69.8879423,27.7676153 C70.0691872,27.4367712 70.1148993,26.7983818 70.7284051,27.0624358 C71.2288333,27.2604763 70.9104519,27.7233475 70.7741173,28.053415 C70.2055218,29.6159934 69.6369262,31.1576029 69.0466776,32.6984358 C68.8878878,33.0727712 68.682584,33.4471066 68.5229923,33.7989197 C68.8189186,34.6796175 69.4099692,35.4500339 69.0915878,36.5070266 C68.9785103,36.9031076 69.3193468,37.4312157 69.4781365,37.8715646 C69.5463038,38.0703817 69.7740628,38.2024087 69.8422301,38.3996726 C69.9103974,38.5324762 69.9561096,38.7965303 69.8879423,38.8625438 C69.7283506,38.9728251 69.4781365,39.0163164 69.2960897,38.9945708 C69.1148449,38.9503029 68.910343,38.8182759 68.7507513,38.6645032 C68.251125,38.1363952 67.7506968,37.5857649 67.2278135,37.0351346 C66.886175,36.6833215 66.5004282,36.3524774 66,35.8903828" id="Fill-15" fill="#6E6E6D"></path>
            <path d="M65.8448734,54.7272768 C65.7263863,54.4857381 65.6554609,54.2008463 65.4894121,54.0692386 C64.543184,53.3446225 64.4488949,52.2693107 64.0709043,51.3256066 C63.9766153,51.0840679 63.7630047,50.8649799 63.5735922,50.6675684 C62.8167766,49.9212757 62.8167766,49.7896681 63.5268649,48.9558951 C63.6211539,48.8684147 63.6445176,48.7143563 63.739641,48.6044253 C64.2361188,47.8147795 64.9929344,47.836456 65.7263863,48.4511411 C66.7911016,49.3948452 66.6016891,50.5800881 66.6726144,51.7212036 C66.7201762,52.4016925 66.6258871,53.03728 66.9087543,53.7402195 C67.1457285,54.4207084 66.9087543,55.1879035 66.3413512,55.7592355 C66.1995004,55.9125196 65.8924352,55.9341962 65.679659,56 C65.6087336,55.780912 65.4894121,55.5827264 65.5136102,55.3860891 C65.5611719,55.1445504 65.7263863,54.9471389 65.8448734,54.7272768" id="Fill-17" fill="#6E6E6D"></path>
            <path d="M52.9953934,43 C53.1041371,43.0212676 53.146722,43.0212676 53.1687749,43.0432948 C53.4699112,43.1503924 54.0949971,44.5289898 53.9877743,44.8518018 C53.8797911,45.1313191 53.7718079,45.4328635 53.6204793,45.6911132 C52.9307556,46.9185585 52.952048,48.2105663 53.146722,49.5671365 C53.2547052,50.191493 53.2326523,50.8371171 53.2113598,51.4827412 C53.1900674,51.6559203 52.952048,51.8275804 52.8227724,52 C52.6942571,51.848848 52.5003436,51.7417504 52.4569982,51.5693307 C52.3277226,50.9449743 52.2417923,50.3206178 52.1117562,49.6749937 C52.0471183,49.4592793 51.961188,49.2443244 51.8532048,49.02861 C51.7239291,48.7270656 51.4653778,48.4262807 51.4227929,48.1247363 C51.378687,47.4783526 51.0988432,47.1335134 50.4737573,46.9831209 C50.3011363,46.9185585 50.1718606,46.6815765 50,46.5311841 C50.1718606,46.3800321 50.3011363,46.1650772 50.4950498,46.0792472 C50.8615843,45.8848004 51.2707038,45.6911132 51.6805838,45.583256 C52.5649815,45.3257659 52.7155496,44.7006498 52.6942571,43.9259009 C52.6722042,43.7109461 52.6722042,43.4952317 52.7155496,43.3228121 C52.7581345,43.1724196 52.9094631,43.08583 52.9953934,43" id="Fill-19" fill="#6E6E6D"></path>
            <path d="M43,49.3195489 C42.8899236,49.5435753 42.6480657,49.8085296 42.6038801,50.0928708 C42.4062078,51.3961013 41.4620316,52.3927315 40.9558353,53.5530734 C40.7806433,53.9192704 40.670567,54.3263953 40.4728946,54.6925923 C40.3852986,54.8354809 40.1868511,54.9575466 40.0116591,54.9984745 C39.9015828,55.0185794 39.7256156,54.8354809 39.6380196,54.7134152 C39.5504236,54.5913496 39.5279432,54.4082511 39.4395721,54.2861854 C39.3077905,54.0212311 39.0225222,53.8180277 39.000817,53.5530734 C38.9791118,53.4109028 39.3961617,53.2479092 39.506238,53.0439878 C39.6380196,52.7998564 39.7039104,52.5155152 39.748096,52.230456 C39.835692,51.7622983 39.8573972,51.2733176 39.9457683,50.8051599 C39.9674735,50.6629893 40.0550695,50.4999957 40.1868511,50.398035 C40.5170802,50.1337987 40.7806433,49.8695624 40.7147526,49.4215096 C40.6922722,49.278621 40.8240537,49.0553126 40.9558353,49.0143847 C41.4620316,48.8714961 41.8348959,48.6474697 42.0992342,48.1592071 C42.2310158,47.8949708 42.6263605,47.9761086 42.7356617,48.2812727 C42.8682184,48.566332 42.912404,48.8923191 43,49.3195489" id="Fill-21" fill="#6E6E6D"></path>
            <path d="M32.0822709,105.201269 C32.130818,104.662183 32.5511781,104.208376 32.0497159,103.777411 C32.2604671,103.237563 31.7584337,102.654315 32.163373,102.071827 C32.292451,101.877665 32.21192,101.424619 32.227912,101.078934 C32.243904,100.73401 32.276459,100.366244 32.292451,100 C32.6813983,100.086041 32.6488433,100.366244 32.6488433,100.625888 C32.6488433,101.812944 32.6488433,102.97868 32.6654064,104.165736 C32.6654064,104.230457 32.6654064,104.337817 32.6973903,104.337817 C32.8915784,104.467259 33.0697745,104.618782 32.9726805,104.942386 C32.8590233,105.26599 32.6973903,105.568274 32.5191942,106 C32.340998,105.655076 32.21192,105.438832 32.0822709,105.201269" id="Fill-23" fill="#6E6E6D"></path>
            <path d="M27,101.115394 C26.8108333,101.696273 26.8108333,101.696273 26.1025,102.016392 C25.9133333,102.658043 25.725,103.279202 25.4891667,104 C25.1575,103.819094 24.9216667,103.698961 24.6616667,103.578828 C25.0158333,103.099002 25.2991667,102.67783 25.7008333,102.116738 C25.0391667,102.236871 24.5675,102.337218 24,102.437564 C24.1658333,101.916752 24.6383333,101.936539 24.9683333,101.796619 C25.3225,101.636206 25.7483333,101.515366 25.9608333,101.275807 C26.3158333,100.875128 26.6225,100.995261 27,101.115394" id="Fill-25" fill="#6E6E6D"></path>
            <path d="M33.4356487,87 C33.0342558,85.609319 32.6875126,84.3054141 33.4620313,83 C33.595829,83.0430108 33.6759191,83.0641388 33.6759191,83.0860215 C33.7823919,84.026976 33.9161895,84.9679306 33.9962796,85.9307678 C34.0226623,86.3156008 33.9161895,86.7011885 33.4356487,87" id="Fill-27" fill="#6E6E6D"></path>
            <path d="M28.5864798,95 C28.3714602,93.9092784 28.1964121,93.0130584 28,92.1168385 C28.0592682,92.0776632 28.1178473,92.038488 28.1764263,92 C28.4300392,92.3120275 28.7629061,92.5649485 28.9186575,92.8962199 C29.1143805,93.3443299 28.9386433,94.3965636 28.5864798,95" id="Fill-29" fill="#6E6E6D"></path>
            <path d="M65.518458,99 C64.982032,98.8111988 64.5370794,98.6857016 64.1293695,98.4969004 C64.0365893,98.4497002 64.0365893,98.2131434 64,98.0559942 C64.1672656,98.0398906 64.3338778,97.977142 64.481542,98.0087939 C64.8709572,98.1031945 65.259719,98.1975951 65.6301862,98.339196 C65.7967984,98.4019446 65.8889252,98.5751974 66,98.6857016 C65.8333878,98.7956505 65.6857236,98.8900511 65.518458,99" id="Fill-31" fill="#6E6E6D"></path>
            <path d="M32.7200567,99 C32.4521597,97.5334117 31.3135972,96.4446404 31,95 C31.8265412,95.9335685 32.4521597,97.0003919 32.9438296,98.1338428 C33.055716,98.3556731 32.9658917,98.6895944 32.9658917,98.9553204 C32.8760674,98.9780521 32.8090931,98.9780521 32.7200567,99" id="Fill-33" fill="#6E6E6D"></path>
            <path d="M27.0342719,90 C28.0883547,90.8645216 28.0883547,91.9204064 27.9133196,93 C27.2542274,92.1845893 26.8809226,91.2726503 27.0342719,90" id="Fill-35" fill="#6E6E6D"></path>
            <path d="M36,59.4112965 C36.1385222,59.2992956 36.261291,59.2140559 36.4465305,59.0743026 C36.3384288,58.7650611 36.2460807,58.5400681 36.1537325,58.2873226 C36.2770445,57.9503287 36.5546321,57.8938327 36.7849593,58.2030741 C37.0473367,58.5965641 37.0777573,59.2992956 36.8311334,59.720538 C36.5698424,60.1695328 36.3541823,60.0852843 36,59.4112965" id="Fill-37" fill="#6E6E6D"></path>
            <path d="M36.8796346,90 C36.6663044,89.9786984 36.4802279,90 36.346779,89.9353345 C36.1870163,89.8493675 36,89.698735 36,89.569404 C36,89.201952 36.3730929,89.1593489 36.7198719,89.1593489 C37.1455925,89.1806504 37.5995066,88.7492937 37.9716597,89.2232536 C38.051541,89.3320437 37.9453458,89.5260401 37.8654645,89.6766726 C37.811897,89.7413381 37.6793879,89.8060036 37.5722529,89.8493675 C37.3316691,89.914033 37.0929648,89.9566361 36.8796346,90" id="Fill-39" fill="#6E6E6D"></path>
            <path d="M67.1646573,87 C67.4272716,87.1535421 67.6909778,87.2678532 67.9071841,87.4410108 C67.9847127,87.5181201 67.9694254,87.7474187 68,87.9198999 C67.8918968,87.9395154 67.7679604,88.0159483 67.6598572,87.9970091 C67.5048001,87.9584545 67.350289,87.8624061 67.1957779,87.7670342 C66.9320717,87.5945529 66.947905,87.3456389 67.1646573,87" id="Fill-41" fill="#6E6E6D"></path>
            <path d="M35.3684362,95 C35.2211658,94.7870045 35.1181286,94.6450074 35,94.5021751 C35.1030372,94.3367903 35.1915036,94.0527963 35.3096321,94.0294085 C35.5157066,93.95841 35.7373928,94.0294085 35.9585585,94.1004071 C35.9877004,94.1004071 36.0173626,94.4553996 35.9877004,94.4787874 C35.7961968,94.6692305 35.6046933,94.8103922 35.3684362,95" id="Fill-43" fill="#6E6E6D"></path>
            <path d="M40.507267,98 C40.3045986,97.7442378 40.1525973,97.5734789 40,97.3816573 C40.1698838,97.2537762 40.3212889,97.0619546 40.507267,97.0190768 C40.7439121,96.9551362 41.0312243,97.0408918 40.9972475,97.4455979 C40.9805572,97.6374195 40.7272217,97.7653006 40.507267,98" id="Fill-45" fill="#6E6E6D"></path>
            <path d="M61.6308861,93 C61.4367673,92.9278157 61.3077354,92.9278157 61.2426485,92.8318531 C61.1450182,92.7112629 61.0805022,92.5193377 61,92.3503416 C61.1130457,92.2306006 61.2266622,92.0616045 61.3562651,92.0131986 C61.4367673,91.9647927 61.5338267,92.0616045 61.6468723,92.1091612 C61.8415621,92.1813455 62.0842106,92.2781573 61.9711649,92.6874846 C61.9226352,92.8556315 61.7119592,92.9278157 61.6308861,93" id="Fill-47" fill="#6E6E6D"></path>
            <path d="M39.2592163,94 C39.1876585,93.9127175 39.0261784,93.8039971 39.0084473,93.6524011 C38.9356229,93.370647 39.3491385,92.9794068 39.6537342,93.0008446 C39.7797519,93.0008446 39.9589631,93.1968475 39.9950587,93.3270057 C40.0488854,93.6087598 39.6537342,93.9777965 39.2592163,94" id="Fill-49" fill="#6E6E6D"></path>
            <path d="M33.2448148,98 C33.6978148,99.0818392 33.5848148,99.9181608 33.4998148,101 C32.9328148,100.213129 32.8488148,99.2050318 33.2448148,98" id="Fill-51" fill="#6E6E6D"></path>
            <path d="M70,90.6833969 C69.7925709,90.8411039 69.6609332,91.0161277 69.547911,90.9988108 C69.1709485,90.9808755 69.0393108,90.66608 69.0014151,90.3673645 C68.9827997,90.2622265 69.1523331,90.1224548 69.246075,90 C69.4727844,90.2096575 69.6988289,90.4199335 70,90.6833969" id="Fill-53" fill="#6E6E6D"></path>
            <path d="M28.8324923,102 C29.2003779,103.477355 28.9793011,103.931864 28,104 C28.2452571,103.409218 28.5146944,102.79519 28.8324923,102" id="Fill-55" fill="#6E6E6D"></path>
            <path d="M42.4534827,97 C42.2563466,96.7589508 42.118421,96.6059773 42,96.4522311 C42.1776315,96.2992576 42.3350617,96.0806136 42.5126932,96.0149432 C42.7697363,95.9492727 43.0657888,96.1022462 42.9870736,96.4305985 C42.9473678,96.6283825 42.6910212,96.7589508 42.4534827,97" id="Fill-57" fill="#6E6E6D"></path>
            <path d="M40.5727148,89 C40.7843053,89.2124625 40.9958957,89.3400901 40.9958957,89.4677177 C41.0385129,89.8513514 40.7424358,90 40.4239286,90 C40.27589,90 40.1271038,89.8085586 40,89.6801802 C40.169721,89.4887387 40.3394419,89.2762763 40.5727148,89" id="Fill-59" fill="#6E6E6D"></path>
            <path d="M66,93.5836796 C65.8846676,94.0053184 65.692673,94.1163994 65.4430122,93.872334 C65.2693351,93.6947607 65.1540027,93.4287919 65,93.1847264 C65.1350068,93.1182342 65.3270014,92.9633465 65.4233379,93.0079354 C65.6350068,93.1628231 65.8270014,93.4061063 66,93.5836796" id="Fill-61" fill="#6E6E6D"></path>
            <path d="M34.3082712,102 C33.9962712,101.399451 33.7972712,100.777734 34.3362712,100 C34.7042712,100.80047 34.5912712,101.399451 34.3082712,102" id="Fill-63" fill="#6E6E6D"></path>
            <path d="M30.312,94 C30.199,93.671875 30.114,93.3427419 30,93.0282258 C30.114,93.0141129 30.227,93 30.34,93 C30.681,93.2998992 30.993,93.5997984 30.653,93.9712702 C30.54,93.9858871 30.426,93.9858871 30.312,94" id="Fill-65" fill="#6E6E6D"></path>
            <path d="M67.5454805,89 C67.7723555,89.3020625 67.9702465,89.4903526 67.9982311,89.6793081 C68.0262157,89.7731204 67.7153869,89.9055223 67.5454805,90 C67.3755742,89.8489687 67.0917305,89.6793081 67.0067774,89.4903526 C66.9498087,89.4151697 67.2626364,89.2641384 67.5454805,89" id="Fill-67" fill="#6E6E6D"></path>
            <path d="M44,91.3820578 C43.7502819,91.6770269 43.5910066,91.9181074 43.410121,91.9984676 C43.2964673,92.0258846 42.978717,91.6770269 43.0011276,91.6231383 C43.0691598,91.3820578 43.2284351,91.1145056 43.410121,91.0076739 C43.5005638,90.9537853 43.7270709,91.1948658 44,91.3820578" id="Fill-69" fill="#6E6E6D"></path>
            <path d="M45.447884,92 C45.2394796,91.7383664 44.9539565,91.5002128 45.0062871,91.4289344 C45.1100303,91.2394178 45.3441408,91.0725425 45.5782514,91.0012641 C45.6819945,90.9769456 46.0464726,91.3106962 45.9950601,91.3819745 C45.9427295,91.5958097 45.7077008,91.7383664 45.447884,92" id="Fill-71" fill="#6E6E6D"></path>
            <path d="M66.4893781,89 C66.7163781,89.3095908 66.9143781,89.4757127 66.9993781,89.6896576 C66.9993781,89.7609725 66.6313781,90.0227403 66.5743781,89.9984094 C66.3473781,89.9036024 66.1213781,89.7374805 66.0073781,89.5470276 C65.9503781,89.4757127 66.2343781,89.2617678 66.4893781,89" id="Fill-73" fill="#6E6E6D"></path>
            <path d="M35.4594118,102 L35.4594118,103 C34.8074118,102.672065 35.0064118,102.327357 35.1194118,102 L35.4594118,102 Z" id="Fill-75" fill="#6E6E6D"></path>
            <path d="M63.5114156,92 C63.7384156,92.2431749 63.9934156,92.4133115 63.9654156,92.4863499 C63.8514156,92.6814054 63.6244156,92.8773202 63.4264156,92.9984781 C63.3694156,93.0225378 62.9734156,92.7544438 63.0014156,92.6814054 C63.0864156,92.4622902 63.2844156,92.2921536 63.5114156,92" id="Fill-77" fill="#6E6E6D"></path>
            <path d="M60.425,97 C60.227,96.723804 60.029,96.5312449 60,96.3377132 C60,96.2278183 60.34,95.9525949 60.397,96.007056 C60.596,96.0897203 60.794,96.283252 60.851,96.4758112 C60.879,96.5584755 60.624,96.7510346 60.425,97" id="Fill-79" fill="#6E6E6D"></path>
            <path d="M65.936,90.5420628 C65.624,90.6270628 65.398,90.7690628 65.255,90.7120628 C65.142,90.6550628 65.085,90.4000628 65,90.2300628 C65.17,90.1460628 65.37,89.9750628 65.511,90.0030628 C65.653,90.0310628 65.738,90.2870628 65.936,90.5420628" id="Fill-81" fill="#6E6E6D"></path>
            <path d="M66.964,87.396 C66.709,87.566 66.539,87.792 66.398,87.764 C66.255,87.764 66,87.538 66,87.396 C66.028,87.254 66.255,87 66.398,87 C66.539,87 66.709,87.198 66.964,87.396" id="Fill-83" fill="#6E6E6D"></path>
        </g>
    </g>
</svg>
