<svg width="106" height="147" viewBox="0 0 106 147" xmlns="http://www.w3.org/2000/svg" xmlns:xlink="http://www.w3.org/1999/xlink"><defs><path id="a" d="M.716.41h72.706v45.963H.716z"/></defs><g fill="none" fill-rule="evenodd"><g transform="translate(2)"><mask id="b" fill="#fff"><use xlink:href="#a"/></mask><path d="M73.31 14.114c-.362-.93-.62-1.925-1.112-2.792-.513-.867-.75-1.945-1.67-2.558-.106-.064-.064-.318-.127-.487-.534-1.458-1.52-2.58-2.74-3.51-.106-.043-.235-.085-.363-.127-.086 0-.15 0-.193.042-.385.36-.77.042-1.027-.084-.75-.36-1.434-.846-2.14-1.29v-.064c-.108-.085-.215-.148-.3-.232-.15-.106-.3-.212-.428-.338-.686-.297-1.35-.614-2.014-.952-.577-.127-1.09-.402-1.605-.74-.234-.17-.49-.36-.79-.466-.13-.063-.322-.106-.493-.106-.064 0-.128 0-.172.022-1.134.465-2.332.317-3.488.4-.32.023-.62.15-.942.234-.17.063-.343.212-.535.254-.835.105-1.67.21-2.504.296-1.2.127-2.377.212-3.553.338-.15.02-.28.148-.514.275.32.19.534.317.662.38-.45.95-1.39.91-2.16 1.1-1.05.232-2.142.232-3.234.36-1.37.168-2.76.36-4.13.57-.515.084-1.092.127-1.477.783 1.285.57 2.654.444 3.832.74-.107.233-.365.486-.343.72.02.38.427.337.727.38.3.02.664-.107.942.274-.216.064-.322.148-.45.127-1.927-.085-3.875-.19-5.8-.317-1.05-.064-2.1-.21-3.148-.254-.77-.042-.77 0-1.07.973h-5.5c.064.274.085.423.128.592-.706.444-1.755.042-2.44.973.427.043.728.064 1.006.106.406.064 1.006 0 1.155.233.408.57.986.485 1.542.655.043.147.15.317.13.465-.11.38-.28.74-.472 1.205-1.178-1.057-2.59-.57-3.938-.57-.13 0-.278.105-.515.21l2.035 1.206c-.022.065-.065.128-.087.212-.64-.232-1.262-.465-1.883-.697-.835-.296-1.648-.698-2.504-.825-.985-.17-2.012-.17-3.018-.063-.792.063-1.563.422-2.376.57-1.455.275-2.954.508-4.41.783-.214.043-.384.17-.685.317.535.444 1.027.296 1.476.36.43.084 1.028-.296 1.285.4-.62.403-1.412-.146-1.97.445.45.656 1.222.15 1.842.508-.814.275-1.712.106-2.268.89.663.38 1.648-.128 1.925.866-1.092.507-1.092.507-2.14.296-.364-.085-.707-.19-1.092-.276-1.563-.338-3.125-.655-4.688-.993-.064 0-.128-.043-.193-.02-.234.083-.577.147-.64.315-.13.296.148.445.448.508.32.085.663.127.984.233.856.253 1.67.506 2.504.78v.276c-.77.148-1.54.296-2.333.444-.063.254-.127.53-.192.804.857.57.857.57.428 1.523-.064.148-.043.422.064.528.3.38.664.698 1.006 1.036-.085.15-.128.234-.193.318-.49.805-.363 1.08.557 1.143.256.022.514.022.835.043.02.38.043.698.064 1.12-.686.233-1.328.466-1.99.656-.3.105-.665.126-.665.507 0 .444.385.486.75.53.64.062 1.284.167 2.076.274-.62.445-1.52.064-1.627.952-.556-.042-1.027-.106-1.497-.106-.343 0-.75.19-.58.508.3.592-.02 1.1-.02 1.565-.32.252-.77.4-.834.675-.236.867-.344 1.777-.45 2.665-.086.57.17 1.205-.406 1.692-.087.064-.065.317-.065.465 0 .465.108.93-.32 1.31-.108.107-.043.466.043.657.106.275.32.486.513.782-.15.022-.257.022-.32.043-.215.062-.43.125-.643.21.107.232.15.487.278.676.15.212.387.36.6.572-1.026.274-1.198.55-.642 1.057 1.07.973 1.884 2.052 2.013 3.553.044.487.408.803.985.994.77.275 1.67.38 2.16 1.142.024.02.13 0 .28 0-.085-.233-.15-.444-.235-.656-.963-2.263-1.798-4.568-1.84-7.063 0-.17-.023-.402-.13-.486-.556-.467-.427-1.08-.405-1.672.042-1.015.106-2.01.128-3.024 0-1.1.727-1.882 1.155-2.813.065-.146.3-.274.472-.358 1.005-.38 2.032-.76 3.04-1.143.363-.127.726-.275 1.26-.487-.49-.254-.79-.4-1.133-.592 1.242-.443 2.12-.274 2.953.467.28.232.622.422.986.507.47.127.77-.254.6-.72-.087-.253-.3-.485-.322-.718-.107-.994-.62-1.82-1.2-2.516-.79-.93-1.71-1.82-3.123-1.883-.428-.02-.878-.253-1.54-.465.62-.38 1.048-.634 1.433-.95.17-.128.343-.403.3-.573-.043-.17-.28-.36-.493-.423-.257-.085-.556-.085-.856-.127.77-.254.963-.783.792-1.544.942-.085 1.82-.085 2.654-.275.536-.105.92.022 1.35.255.598.317 1.198.634 1.797.93.3.148.62.296 1.027 0-.257-.233-.492-.423-.663-.635-.128-.21-.32-.485-.277-.697.085-.444-.065-.677-.407-.93-.13-.106-.107-.424-.15-.677.642-.043 1.22.063 1.648-.15.92-.422 1.777-.273 2.654-.02.45.15.9.34 1.35.444.277.064.705.085.855-.084.342-.402.706-.317 1.09-.233.45.085.88.17 1.307.233.856.148 1.862-.19 2.29-.825.793.36 1.585.742 2.398 1.1.32.15.706.487.984.107.128-.17-.106-.592-.17-.91 0-.042.064-.084.106-.17.192.064.364.192.557.213.17.02.492.02.535-.064.085-.17.085-.444 0-.634-.086-.233-.3-.423-.45-.613.236-.32.45-.614.664-.89.214.064.428.127.684.212.258-.846-.363-1.29-.727-1.925 1.114.297 1.606.043 2.1-.825.3-.507.662-1.014 1.347-1.163.385-.085.75-.297 1.156-.445.685.38 1.37.783 2.12 1.227.256-.17.535-.338.834-.528.364.127.75.253 1.134.38.814.275 1.435.02 2.013-.57.32-.318.728-.53 1.05-.74.577.295 1.027.528 1.476.78.32.17.684.318.92.594.385.486.855.59 1.433.36l.814 1.205c.17.253.256.59.493.74.213.127.577.02.877.02.128.212.3.403.363.614.28 1.08 1.092 1.586 2.056 1.987.278.127.512.466.642.762.235.592.342 1.27.598 1.882.216.57.194 1.1-.02 1.65-.386 1.163-.108 2.347-.108 3.51 0 .212.17.445.322.613.107.15.342.34.45.297.17-.063.363-.274.427-.464.128-.34.086-.74.236-1.08.278-.633.642-1.226 1.005-1.88.28.02.642.084 1.028.062.193-.02.557-.127.578-.254.106-.422.15-.866.064-1.29-.043-.21-.364-.38-.513-.548.043-.382.085-.783.15-1.164.063-.402.042-.846.235-1.163.728-1.205.6-2.39 0-3.53-.193-.36-.214-.657-.214-1.038 0-.634.085-1.332-.15-1.882-.493-1.163-.642-2.495-1.67-3.404-.042-.042-.085-.126-.085-.17.172-.633-.363-.887-.684-1.225-.535-.55-1.114-1.058-1.756-1.67.985-.043 1.627.782 2.655.443-.45-.38-.792-.697-1.157-1.036.557-.465 1.05-.402 1.563-.084.344.21.686.443 1.05.613.108.064.32-.02.663-.084-.45-.296-.727-.465-.984-.676-.257-.19-.58-.318-.622-.762 1.07-.042 2.077-.127 3.082-.148.3 0 .62.085.878.232.47.297.813.826 1.5.762.063-.02.17.17.255.275.493.675.493.675 1.22.422.214.19.386.444.62.53.644.274.986.802 1.33 1.33.32.487.576.995.94 1.397.342.422.857.675.963 1.29.022.126.3.273.493.316.683.106.92.592 1.176 1.184.3.655.578 1.438 1.562 1.522 0 .402 0 .762.022 1.143 0 .21 0 .57.15.655.578.36.77.867.77 1.5 0 .15.235.383.364.403.15.02.363-.147.492-.274.15-.192.235-.425.407-.763.128.466.128.804.278 1.057.408.762.236 1.46-.106 2.2-.17.36-.278.76-.32 1.142-.023.19.17.38.277.57.194-.105.45-.168.558-.317.193-.275.235-.72.47-.867.707-.466.814-1.206 1.05-1.883.235-.613.47-1.247.706-1.903.106.085.17.15.257.19.172.043.43.17.536.085.13-.064.17-.317.193-.508.02-.105-.065-.253-.11-.38" fill="#6E6E6D" mask="url(#b)"/></g><path d="M105.404 88.9c.043-.382.17-.703.107-.957-.277-1.236-1.3-1.94-2.023-2.834.34-.64.64-1.237 1.023-1.962-.937-.682-2.002-1.385-2.343-2.727 1.065-.062 2.087-.105 3.3-.19-.234-.405-.383-.682-.552-.96-.107-.15-.34-.298-.34-.468-.065-1.002-.065-1.982.786-2.79-.616-1.345-.552-2.793-.595-4.24.34-.3.682-.62 1.043-.96-.51-.66-.98-1.28-1.426-1.897-.575-.81-.895-1.683-.554-2.642.3-.15.767-.256.83-.468.086-.278-.17-.64-.276-.98.34-.043.68-.107 1.278-.213-1.172-1.15-2.62-1.706-3.258-2.963.17-.256.447-.597.425-.64-.532-.51 0-1.065-.064-1.534-.404-.213-.766-.34-1.085-.575-.256-.19-.426-.49-.64-.745-.51-.532-1.02-1.065-1.554-1.64.66-.554 1.214-1.065 1.044-1.726 1.17-.938 2.214-1.79 3.428-2.793-.575-.085-.915-.148-1.384-.212.788-1.45 1.512-2.813 2.28-4.198-.13-.085-.278-.192-.47-.298.298-.193.575-.406.85-.576.47-.235.492-.214.534-.768-.873.406-2.002-.106-2.683.917.404.49.49 1.087.213 1.662-.554 1.13-1.13 2.258-1.746 3.324-.234.382-.618.744-1 .957-.938.47-1.64 1.194-2.364 1.896-.83.79-.81.81-1.81.405-.235-.596-.554-1.107-.597-1.64-.065-.746-1.065-.725-.938-1.45-.574-.042-1.086-.085-1.724-.106.212-.405.405-.64.49-.916.105-.362.148-.767.17-1.15 0-.362-.277-.49-.554-.64-.234-.106-.362-.405-.51-.617.212-.3.34-.492.468-.683.084-.107.17-.235.277-.3.53-.318 1-.638.83-1.405-.044-.192.467-.49.17-.788-.192-.192-.533-.235-.81-.34-.81-.32-1.597-.62-2.343-.917-.042-.512.064-.683.468-.768.49-.065.98-.234 1.428-.427.68-.32 1.298-.703 1.96-1.043.594-.32.978-.853 1.532-1.47-.68-.214-1.214-.385-1.768-.554 0-.065 0-.13.02-.17.555-.236 1.11-.45 1.684-.662-.02-.085-.02-.17-.04-.255-.215-.022-.428-.108-.62-.044-.702.213-1.405.49-2.107.682-.81.213-1.64.34-2.173 1.108-.063.128-.276.17-.425.213-.724.148-1.3.574-1.873 1-.172.106-.363.235-.533.256l-3.515.128c-1.405.042-2.086-.895-1.64-2.237.086-.278.15-.597.3-.853.148-.298.36-.618.617-.745 1.937-1.024 3.938-1.813 6.153-1.962.936-.085 1.875-.085 2.81 0 .512.043 1.023.277 1.577.213.468-.04.958.023 1.3.044.233.426.32.788.552.98.512.447 1.13.788 1.79 1.258-.278.404-.512.745-.768 1.13 1.3 1.234 2.066-.086 2.98-.683.832.53 1.662 1.064 2.47 1.597.32-.682.385-.853-.275-1.407-1.192-.98-1.596-2.258-1.745-3.686-.02-.212-.043-.405-.085-.618-.043-.19-.086-.49-.214-.554-.66-.32-.553-.98-.723-1.534-.278-.96-.618-1.917-.938-2.876-.02-.064-.17-.064-.36-.15v1.173c-.3.233-.555.426-.917.702-.064-.383-.085-.638-.128-.894-.213-1.065-.085-2.238-1.086-3.025-.128-.725-.766-1.258-.49-2.217.362-1.277-.17-2.45-1.277-3.26-.127-.105-.32-.084-.596-.126.128.873.874 1.47.618 2.344-.49-.214-.68-.555-.83-1.002-.405-1.108-.852-2.216-1.363-3.28-.362-.705-.937-1.258-1.618-1.92-.107.448-.17.704-.235.96-.49-.107-.957-.213-1.47-.32-.233-.767-.532-1.534-.702-2.323-.276-1.406-1.19-2.237-2.384-2.854-.277-.13-.576-.15-.852-.257-.362-.128-.703-.447-1.044-.64-.34-.19-.617-.297-.915-.554-.426-.405-.916-.724-1.32-1.172-.15-.17-.3-.49-.555-.512.086.17.256.47.214.66-.703-.36-1.13-1.277-1.853-1.555-.02.406.427.683.427 1.088 0-.064-.277-.234-.32-.255-.127-.107-.233-.214-.36-.3-.257-.19-.513-.382-.768-.574-.448-.32-.895-.683-1.385-.96.042.064.128.085.17.15.064.042.107.148.15.212.66.896 1.383 1.77 1.64 2.877.042.17.106.702-.022.85-.64-.148-1.108-.937-1.512-1.405.172.575.768 1.215.682 1.832-.362-.02-.596-.426-.916-.51.043.19.192.404.3.595.233.384.446.81.723 1.172.53.79 1.276 1.428 1.894 2.152.404.448.81.874 1.086 1.428.106.234.15.49.277.703.128.235.17.447.234.703.086.298.15.597.235.916.02.085.277.874.235.895-.13.108-.3.3-.51.363-.364.107-.45.362-.45.682v2.557c-.872.107-.488.81-.574 1.28-.958.084-1.13.21-.873 1.02.3.94 0 1.748-.17 2.643-.15-.085-.234-.15-.32-.17-.212-.022-.426-.043-.64-.043 0 .235-.04.51.044.725.128.276.405.468.554.724.17.257.384.534.384.81-.02 2.174-.107 4.37-1.235 6.35-.49.83-.32 1.662.233 2.43.597-.15 1.108-.256 1.81-.427-.213.362-.32.554-.447.767.213.085.404.15.554.192-.043.576.02 1.15-.383 1.555-.363.34-.83.618-1.193.874-.49-.808-.916-1.533-1.362-2.258-.192-.298-.66-.213-.682.15-.042.383-.042.83.127 1.15.3.554.703 1.065 1.087 1.555.68.874.83.874 1.618 0 .042-.064.17-.064.298-.128.362.213.66.68 1.235.34.085-.063.638.32.68.555.15.788.874.766 1.343 1.087.106.063.426-.022.532-.13.235-.276.468-.574.596-.915.277-.724.363-.81 1.278-.874.17.3.362.597.49.79-.256.51-.447.936-.682 1.34-.148.257-.234.534-.66.512-.575-.042-.68.363-.596.81.128.66.256 1.342.49 1.96.192.49.468 1.023.83 1.364.533.49.66.958.405 1.576-.254-.384-.49-.81-.766-1.172-.51-.64-1.022-1.257-1.554-1.854-.234-.255-.852-.17-1.107.085-.32.3-.085.533.106.79.404.574.808 1.17 1.17 1.767.3.49.64.98.788 1.514.32 1.13.532 2.3.81 3.45.063.235.212.533.404.64.383.192.468-.255.682-.447.042-.044.127-.044.19-.044.533.49 1.024 1.087 1.64 1.47 1.087.682 1.385 1.79 1.747 2.855.108.32-.128.726-.042 1.066.213.81.51 1.598.787 2.41.172.446.448.85.96.722.212.576.34 1.11.574 1.577.297.597.787 1.13.958 1.748.212.81.66 1.364 1.32 1.81.148.086.34.17.405.3.212.404.49.81.552 1.256.044.32.3.83-.468 1.107-.17-.277-.383-.618-.64-1-.253.297-.424.49-.68.787-1.022-1.77-2-3.43-2.96-5.092-.19-.34-.15-.853-.404-1.108-.618-.66-1.236-1.428-2.28-1.492-.36-1.235-.702-2.43-1.042-3.643-.063-.214-.084-.577-.233-.64-.682-.32-.703-1.023-1.002-1.556-.127-.212-.233-.426-.404-.597-.084-.106-.32-.19-.425-.148-.148.062-.298.254-.362.424-.064.15-.02.34 0 .512.192 1.065.404 2.13.597 3.175.064.256.106.49.19.874-.53-.255-.935-.405-1.298-.618-.298-.19-.51-.575-.83-.66-.703-.192-.788-.725-.937-1.28-.106-.34-.34-.638-.533-.957-.617-1.046-1.256-2.09-1.852-3.133-.128-.214-.192-.47-.15-.704.15-1.15-.34-2.088-1-2.982-.128-.148-.192-.34-.298-.532.255-.34.298-.788.873-.746.447.043.51-.32.533-.746-.32-.213-.66-.426-.98-.64-.043-.362-.064-.702-.106-1.043-.086-.02-.15-.043-.214-.064l-.574.83c-.895-.533-.746-1.534-1.087-2.323-.255.086-.446.17-.68.256.148-.83-.81-1.172-.66-1.94-.576-.98-1.236-1.916-1.64-3.003-.086-.235-.3-.426-.47-.64-.17-.19-.404-.36-.51-.596-.404-.98-1.086-1.62-2.15-2.024.02.213-.043.447.04.554.385.554.833 1.065 1.215 1.62.34.446.767.915.873 1.427.256 1.066.3 2.153.47 3.218.02.234.106.575.276.682.534.32.3.682.043.874-.382.277-.745.83-1.405.32-.106.468-.085.873-.256 1.172-.318.575-.106 1.022.192 1.512.363.575.68 1.193 1 1.77-.49.297-.85.49-1.15.68-.275-.213-.53-.448-.83-.596-.106-.064-.34-.043-.446.042-.086.085-.15.32-.107.448.214.49.385.98.98 1.193.34.128.767.426.874.724.107.404.298.532.66.596.49.086.852.213.98.83.064.47.553.832.68 1.3.214.662.746 1.237.554 2.046-.085.278.128.618.256.916.17.512.49 1.002.532 1.513.107 1.173.298 2.323.745 3.43.023.065 0 .13 0 .215-.21.02-.424.042-.765.085.298.533.554.96.81 1.385-.81.19-.81.19-.64.958.086.342.213.682.192 1.002 0 .32-.064.746-.277.895-.468.383-.51.83-.49 1.363 0 .768-.15 1.535-.596 2.216-.255.383-.554.724-.894 1.15-.085-.022-.277-.022-.405-.107-.51-.383-1.022-.767-1.47-1.192-.468-.47-.98-.938-1.298-1.49-.51-.94-.468-.98-1.533-.66-.106.02-.19 0-.085 0-.555-.364-.938-.64-1.194-.812-.064-.532-.085-.98-.17-1.426-.085-.555-.235-1.11-.34-1.684-.043-.3-.043-.597-.15-.895-.043-.15-.213-.384-.362-.405-.15-.022-.404.107-.49.256-.255.298-.426.66-.617 1h-.235c-.106-.403-.276-.81-.298-1.235-.02-.533.064-1.066.086-1.62.042-.554.085-1.13.042-1.705-.064-.788.107-1.044.916-1.086.596-.023 1.213.062 1.832-.023.51-.063 1.064-.19 1.533-.426.596-.297 1.17-.66 1.66-1.128.68-.64 1.342-.98 2.257-.554.384.17.788.17 1.023-.362-.34-.49-.916-.575-1.406-.682-.745-.17-1.256-.49-1.193-1.342 0-.02-.106-.064-.148-.085-.405.15-.81.32-1.214.468.255.107.49.214.852.34-.618.428-1.108-.105-1.618.022.66.747.724 1.194.255 1.94-.596.98-1.532 1.256-2.62 1.278-.913.042-1.553-.362-1.937-1.172-.53-1.065.043-1.896 1.278-1.81.236.702-.595.15-.658.553.127.51.49.682.978.533.15-.044.363-.193.384-.3.02-.405-.043-.83-.064-1.235.213-.043.405-.086.704-.15-1.555-.255-2.77.576-4.09.937-.36.597-.19 1.43-.852 1.876-.064.064-.02.255-.042.383 0 .15.042.406-.043.45-.553.32-.34.83-.32 1.277 0 .34.108.682.087 1.002 0 .49-.256.66-.724.53-.32-.084-.62-.233-.916-.34.043-.213.15-.426.085-.596-.235-.66-.3-1.236.254-1.79.108-.107.192-.405.13-.533-.342-.766-.215-1.81-1.258-2.172.128-1.3.085-2.535-.533-3.686-.15-.277-.212-.66-.617-.51-.34.127-.256.446-.15.702.278.51.043.83-.17.98-.49.085-.788.128-1.085.19.107.32.193.64.32.982-.404.51-.404.51-.106 1.108.34.703.745 1.406.83 2.45-.533-.32-.915-.575-1.32-.788-.468-.235-.96-.49-1.448-.64-.363-.106-.68.128-.788.49-.085.363.192.47.468.555.66.192.916.725 1.172 1.257-.554.618-.554.66-.086 1.066.128.106.3.17.405.3.405.446 1.064.808.66 1.618-.042.107.043.34.15.448.66.79.596 1.683.404 2.6-.212-.044-.425-.086-.467-.107-.47.406-.83.704-1.236 1.024 0 .15.085.405 0 .533-.574.852 0 1.427.363 2.11.382.68.915 1.362.532 2.257-.043.15.064.384.127.575.276.916.255 1-.554 1.597-.085.064-.17.192-.277.3.212.808.83 1.34 1.383 1.81.553.49 1.257.767 1.917 1.13.47.276.894.425 1.51.148.853-.405 1.535.022 1.81.98.108.342.3.512.62.576.255.065.532.13.765.256.81.363 1.64.704 1.79 1.748.042.192.19.426.34.47.68.168.766.66.83 1.234.065.596.15.64.767.427.085-.022.192-.064.277-.086.403.468.36.936.04 1.405-.17.214-.36.426-.425.683-.042.19 0 .468.128.617.086.107.447.128.554.043.384-.32.937-.51.894-1.215-.04-.383.128-.788.257-1.385.553.66 1.02 1.172 1.937 1.15.192-.532.47-1.086.576-1.682.106-.746.468-1.343.872-1.876.32-.404.384-.746.34-1.192l-.127-1.428c.937.255 1.214.276 1.533.298.277.3.64.49.937.767.363.34.64.83.363 1.278-.256.405-.107.66.064 1.002.148.277.233.618.297.937.084.405.127.79.19 1.194.044.362.108.724.17 1.15-.616-.106-.85.106-.786.66.042.342.064.704.064 1.066 0 .47.15 1.108-.086 1.364-.47.49-.447 1-.532 1.555-.02.087-.106.172-.192.278-.19-.213-.362-.383-.533-.575l-1.81.874c-.127-1.64-1.426-2.024-2.62-2.643.15-.468.342-.916.406-1.363.044-.17-.126-.404-.19-.596-.17.064-.426.064-.512.192-.36.533-.68 1.108-1.085 1.768-.256-.064-.597-.17-.958-.192-.17 0-.363.128-.49.257-.043.04.085.318.19.403.385.256.79.49 1.13.682-.02 1.598-1.533 2.258-2.768 2.43-.34.042-.682 0-1.023.02-.447.022-.724.383-.702.725.02.32.277.68.533.895.32.234.637.064.852-.277.17-.235.404-.427.595-.64.51.192.96.362 1.427.534.765-1.045 2.022-1.727 2.107-3.175 1.938.063 2.49.19 2.364 2.15-.425.15-.85.28-1.234.385-.043.746-.086 1.363-.128 1.98-.128.065-.213.086-.298.13-.512.298-1.065.51-1.022 1.3 0 .254-.32.745-.532.766-.618.02-.576.405-.64.81-.106.916-.233 1.81-.34 2.556-.362.256-.68.384-.766.597-.086.235.064.556.106.874-.533-.318-.426-1.086-1.108-1.235-.127.233-.255.447-.362.617-.233-.085-.426-.17-.766-.298-.064.787-.128 1.47-.19 2.065-.513.086-.96.214-1.386.214-1.257-.044-2.49-.13-3.663-.62-.403-.17-.68-.703-1.234-.404-.02.02-.127-.128-.212-.192-.256-.128-.533-.256-.938-.447-.106-.768-1.426-.81-1.51-1.834-.023-.042-.108-.085-.172-.085-.383-.063-.68-.276-1.043-.383-.318-.085-.66-.127-.978-.213-.49-.15-1-.405-1.384-.745-.81-.746-1.47-1.812-1.81-2.877-.214-.618.17-1.193.15-1.81-.065-1.024-.257-2.068.126-3.048.213-.618.575-1.726 1.235-2.003.298-.13.808-.022 1.043.19.425-.616.64-1.427 1.278-1.853.575-.404 1.384-.383 2.066-.49.745-.085 1.384-.128 1.98-.575.34-.256.532-.384.702-.746.214-.47.406-1.172.875-1.45.404-.233.893-.233 1.277-.532.788-.617 1.065-1.768 1.086-2.727 0-.17-.17-.34-.256-.51-1.34.49-2.258 1.725-3.705 1.853-.17-.98-.277-1.15-1.256-1.3-.704-.085-1.45-.17-2.13-.02-1.172.276-2.3.723-3.45 1.15-.704.255-1.363.404-1.917-.32-.894.532-1.725.276-2.576.02-1.342-.382-2.662-.83-4.004-1.107-1.618-.34-2.022-.235-2.512 1.535-.554-.214-1.17-.364-1.682-.66-.533-.3-1-.747-1.554-1.174-.128.278-.234.47-.256.64-.042.894.49 1.534 1.172 1.896.915.47 1.298 1.214 1.512 2.13.106.49.32.96.51 1.45.363.916 1.3.533 1.98.255.83-.34 2.066-.15 2.897.15.638.234 1.212.66 1.405 1.3.276 1 1.447 1.534 1.468 2.6 0 .532-.063 1.065-.042 1.597.065.83.363 1.62.32 2.45-.042.938-.68 1.513-1.427 1.982-.574.362-1.15.703-1.745 1.022-.512.256-1.022.47-1.406.938-.085.107-.297.192-.447.17-.895-.084-1.554.384-2.214.853-.85.597-1.81 1.022-2.49 1.832-.448.51-.96.958-1.45 1.427.065.298.15.66.235 1.043-1.128.235-2.066.214-2.81-.66-.193-.213-.47-.447-.853-.405.17.512.427.83 1.087 1.236.36.193.574.406.574.854.02.81.298 1.47 1.128 1.768.064.022.107.043.15.064.255-.064.468-.15.787-.257-.13.34-.193.554-.278.767.682.298 1.023-.17 1.406-.532.15-.17.34-.448.447-.427.49.15.68-.19.894-.49.766-1.13 1.916-1.81 3.044-2.47.298-.172.68-.577 1 .042.043.042.236.064.257.02.448-.532.874.15 1.342-.063.107.447.17.788.256 1.15.064.32.234.448.553.427.64-.023.98-.384 1.257-.96 1.044.3 2.088.448 3.067-.298.404.426.788.853 1.235 1.322.255-.214.68-.384.723-.62.15-.638.638-.702 1.086-.723.403-.02.68-.106.936-.406.15-.17.575-.255.745-.17.79.426 1.64.852 2.386 1.32.362.214.66.47.98.726.617.49 1.214 1.086 1.575 1.79.363.787.64 1.597.79 2.45.106.81.02 1.64.063 2.45 0 .084-.02.17-.064.362-.15-.3-.277-.51-.45-.83-.467.98 0 1.895-.615 2.64-.384-.447 0-1.086-.554-1.47-.084.874-.17 1.662-.233 2.45l-.15.022c-.085-.17-.15-.34-.255-.64-.426.768-.383 1.492-1.17 1.642-.278-.554-.704-.596-1.11-.214-.36.363-.552-.128-.787-.106-.34.213-.212.79-.81.79.044-.428.065-.79.108-1.195-.937-.192-.916 1.044-1.746.98.063-.277.15-.575.256-.873-.214-.02-.342-.042-.47-.064v-1.172c-.532.49-.49 1.215-1.15 1.427-.574-.68.725-.98.3-1.704-.47.512-.895.98-1.32 1.45-.065-.022-.13-.065-.17-.107.126-.34.254-.68.36-1.023-.873.79-1.298 2.025-2.64 2.302-.255-.34-.51-.66-.81-1.044-.042.404-.084.66-.127 1.15-.447-.49-.745-.81-1.085-1.192-.042.148-.063.233-.106.297-.043.107-.128.213-.256.448-.255-.362-.49-.617-.638-.895-.405-.81-.938-1.34-1.938-1.15-.085.15-.19.32-.277.448-.362-.235-.66-.427-1.065-.682-.085.47-.15.79-.234 1.15-.575 0-1.107.044-1.64-.02-.532-.063-1.086-.404-1.533-.277-.617.192-.958-.447-1.554-.277-.086.788.425 1.214.893 1.598.47.363.703-.213 1.086-.426.382.49.786.938 1.127 1.45.788 1.17 1.513 2.407 2.322 3.557.318.47.745.895 1.213 1.215 1.298.916 2.662 1.747 4.003 2.6.617.403 1.256.788 1.51 1.576.044.128.236.213.45.404.702-1.15.446-2.6 1.298-3.536 1.214-.043 1.214-1.237 1.83-1.81.13.17.235.36.34.552.917-.297 1.876-.383 2.302-1.47.724.597 1.426.83 2.278.554.36.597.937.725 1.512.555.51-.192.937-.576 1.427-.895.063.085.17.148.212.212.533.725.873 1.64 1.98 1.705.085 0 .172.107.235.192.447.744 1.235 1.234 1.448 2.15.15.555.426.62.895.3.233-.17.404-.384.616-.555.213-.17.404-.447.766-.34-.106.787-.127 1.554-.383 2.237-.213.64-.682 1.193-1.043 1.768-1.023-.938-1.065-.938-2.257-.128-.512 0-.894-.085-1.214.043-.32.107-.577.405-.81.596-.704-.488-1.34-.957-1.98-1.427-.043-.02-.128-.063-.193-.063-.83.106-1.746-.298-2.427.447-1.17-.788-1.704-.618-2.193.64-.106.277-.213.574-.3.83-.83.043-.85.043-.893.768-.02.532-.148.937-.596 1.086-1-.084-1.405-.787-1.746-1.554H52.17c-.128.192-.277.405-.427.64-.276-.384-.51-.683-.81-1.087-.275.638-.467 1.128-.68 1.64-.064-.022-.128-.043-.213-.043-.064-.47-.127-.938-.19-1.386-.065 0-.13 0-.193.023-.022.405-.064.81-.085 1.3-.384-.362-.66-.66-1.065-1.045-.276.64-.49 1.13-.767 1.79-.382-.96-.042-1.854-.596-2.62-.213.276-.34.553-.574.724-.235.15-.533.213-.83.32-.043-.448-.065-.917-.108-1.428-.234-.042-.447-.086-.595-.107-.363-.51-.043-1.49-1.13-1.363-.425-.767-.255-1.812-1.128-2.62-.128.212-.235.425-.342.638-.362-.574-.66-1.107-1.022-1.62-.425-.596-1.086-.297-1.64-.297-.49-.852-.83-1.726-1.682-2.386-.213.403-.382.723-.533 1.042-.83-.703-.808-1.98-1.872-2.726-.17.68-.277 1.192-.426 1.852-.447-.958-1.235-1.47-1.597-2.364-.213-.554-.596-1.257-1.405-1.257-.106.15-.213.277-.384.447-.276-.746.085-1.47-.468-2.09-.064.492-.128.96-.213 1.6-.298-.64-.51-1.087-.788-1.684-.213.576-.34.938-.447 1.237-.98.128-.83-.683-1.107-1.023-.362.043-.682.085-1.023.128-.17.724-.36 1.428-.617 2.386-.383-.724-.68-1.194-.916-1.705-.254-.554-.425-1.15-.702-1.683-.235-.47-.064-1.108-.66-1.683-.128 1.79-.192 3.388-1.022 4.964-.597-.958-.405-1.938-.746-2.853-.468.723.086 1.576-.51 2.152-.724-.28-1.278-.918-2.13-.705-.085.022-.384-.255-.384-.383.02-.51-.212-.853-.574-1.193-.15-.13-.13-.428-.13-.428-.68-.426-1.255-.66-1.703-1.065-.255-.234-.298-.703-.447-1.15-.426.064-.873.127-1.34.212-1.087-.83-1.45-1.726-1.662-2.578-.618-.47-1.192-.384-1.83.213-.087-.384-.214-.66-.192-.896.127-1.11-.788-1.982-.704-3.09-.702-.255-.383-.852-.34-1.555-.64.915-1.15.425-1.725.15l.063-1.194c-1.085-.277-.233-1.32-.766-1.875-1.107-.426-2.13.597-3.28.49.043-1.17 1.172-2.024.725-3.217-.3.02-.534.043-.853.064.32-.788.64-1.47.895-2.173.084-.235.127-.683.02-.747-.68-.426-.425-.874-.148-1.363.212-.363.106-.576-.362-.576-.17.405-.32.83-.51 1.214-.682 1.322-1.322 2.686-2.13 3.92-.895 1.428-1.98 2.75-2.982 4.113-.085.13-.106.3-.17.49.19.022.34.065.47.044 1.276-.064 2.554-.17 3.767-.618.235-.085.51 0 .767 0-.022.256.02.533-.086.746-.15.34-.382.64-.574.958-.448.704-.873 1.407-1.384 2.238h1.192c.34.02.702.042 1.17.064-.17.256-.233.362-.318.47-.98 1.17-.256 1.81.68 2.13.385.127.79.17 1.15.255.023.085.065.107.065.15v.297c-.022.98.042 1.045.98 1.066.935.043 1.02.362 1.19 1.3.086.426 0 .916 0 1.363 0 .852-.403 3.537.554 3.878.64-1.085.788-2.322 1.3-3.45.468.127.446.81.404 1.256.192-.32.277-.873.64-.895.02.47 0 .94.02 1.408.085-.15.17-.448.32-.64.383.533.085 1.152.298 1.705.34-.383.34-1.13.702-1.363.235.213.362.532.447.852.235-.17.426-.17.618.064.34-.257.894-.384.98.17.063 0 .128-.02.213-.02.148.574.298 1.064.298 1.682.19-.448.596-1 .958-1.257.127 1.11-.447 2.26-.32 3.367.447.043 1.065-.298 1.385-.617.362-.363.595-1.407 1.043-1.47.66.937.383 2.3.745 3.302 1.406-.107 1.044-2.238 1.895-2.6 1.278 1.513 1.32 3.772 1.767 5.605.384-.79.703-1.854.853-2.75.382.555.68 1.045.958 1.663.212.49.362 1.32.724 1.704.383-.127.404-.703.49-1.087.532.235.638 1.045 1.192 1.15.022-.21.213-.404.298-.553.234.192.362 1.194.533 1.236.32.064.425-.192.404-.533.383.32.446.916.893 1.108.085-.51.064-1.023.107-1.534.34.427.788 2.878 1.277 2.387.405-.426.107-2.066.107-2.6 0-.766-.086-1.597.15-2.364 3.194 3.537 4.045 7.883 5.11 12.4.51-.916.127-2.087.575-3.004.702.51.893 1.81 1.255 2.577.553 1.13.872 2.323 1.384 3.474.616-.298.787-1.342 1-1.917.596.745.85 4.432 1.68 4.453.47.02.705-1.94.832-2.28.554 1.28.447 2.45.618 3.75.702-.277.852-1.94 1.107-2.6-.064.576.15 1.258.234 1.833.406-.193.32-.98.683-1.067.638-.17.553.832 1.128.768.065-.297.193-.595.278-.894.575.66 1.065 1.32 1.576 2.024.575.767.447.618.68 0 .47-1.193.193-3.047.13-4.346.51.447 1.043.852 1.49 1.342.787.852 1.256 2.024 2.044 2.813.106-.322.276-.662.404-.982.895.64 1.47 2.046 2.045 2.962.383-.128.468-.64.51-1 .3.978.47 2.98 1.492 1.575.615-.852 1.063-2.024 1.787-2.77.298-.298 1.79-1.32 1.298-1.96.214.277.3.703.47 1 .468-.424.574-1.17.83-1.724.233.598.233 1.236.448 1.833.19-.17.126-.703.212-.98.277-1.108.916-2.11 1.277-3.175.277-.852.98-3.686 2.066-3.75.276-.02.17.278.47.085.318-.19.19-.64.637-.618.362.022.533.682 1.002.427.19-.107.254-.576.318-.768.022.3.363.874.596 1.087.257-.36.385-1.49.96-1.277.213.085.426.767.51.895.3.49.747 1.385 1.257 1.598.15-.213.32-.426.448-.66.19-.34.212-.81.404-1.087-.022.403.17.872.234 1.277.106.66.15 1.3.212 1.96.405-.767.618-1.576.873-2.43.148-.468.19-1.213.553-1.554.17.554 0 1.235.234 1.768.256-.36.554-.808.83-1.17.512-.62 1.428-1.748 2.3-1.236.554.34 1 .212 1.427-.3.234-.233.383-.553.575-.872.425.51.83 1.023 1.277 1.49.127.13.36.278.553.278.086 0 .256-.3.277-.47.042-.638 0-1.298.02-1.937.022-.32.086-.64.13-1.044.85.787.85.787 1.362.744.254-1.448.53-2.876.787-4.304.085.02.15.02.212.02.063.193.106.407.148.598 1.3-.212 1.32-.234 2.257-1.214.83.362.937.298 1.002-.618.043-.405.127-.832.19-1.343.768.917.81.917 1.577-.064.34.106.682.19 1.17.34.065-.724.128-1.343.17-1.96.13-.085.257-.128.342-.213.64-.51.852-1.428 1.704-1.747.15-.064.192-.49.255-.746.085-.34.15-.703.235-1.087.51.064.98.02 1.362.192.384.19.682.553 1.108.936.085-.937.19-1.704.212-2.47.043-1.663.022-1.663.47-2.13.127.318.19.66.36.936.107.17.363.298.555.298.127 0 .32-.234.36-.404.087-.256.065-.533.065-.81.022-.533.022-1.087.022-1.492 1.15-.64.852-1.854 1.362-2.62.17-.043.34-.064.512-.086 0-.277.02-.47.02-.66l.065-.682c1.022-.32 1-.32.895-1.342-.086-.853-.128-1.683-.192-2.515.873-.342.873-.342.873-1.258 0-.47.02-.938 0-1.407-.022-.574.148-1.043.488-1.51.3-.385.554-.875.66-1.344.277-1.278.277-2.577.64-3.855.468-1.79.724-3.645.638-5.52-.02-.148.022-.276.043-.404.105-.723.552-.98 1.212-.66.213.086.427.234.617.34.063-.042.106-.106.17-.148-.213-.47-.425-.96-.596-1.32m-18.44-36.095c.553-.15.766.277 1.192.703-.702.043-.83-.532-1.193-.703m8.305 15.852c.213.426.426.852.682 1.342-.618-.15-.618-.15-.682-1.343M64.435 79.27c-.362.022-.618-.085-.447-.383.234-.448.022-.68-.235-.98-.234-.256-.447-.512-.64-.788-.084-.13-.232-.343-.19-.45.404-1.128-.213-2.11-.447-3.13-.02-.13-.042-.278-.063-.45.126-.084.276-.19.404-.275.66-.448.745-.597.49-1.343-.278-.852-.554-1.726-.937-2.557-.49-1.065-.363-2.11-.15-3.174.02-.17.32-.298.51-.447-.19 1.278.3 2.386.853 3.494.15.32.32.66.107 1.066-.107.15-.043.49.084.66.34.512.32 1.087.3 1.663-.022.873.063 1.747.297 2.6.427 1.49.362 3.003.065 4.494m13.65 2.067c-.172-.085-.427-.127-.448-.234-.15-.426-.32-.682-.83-.853-.47-.17-.363-.767.02-1.3.256.15.47.342.725.448.234.107.51.15.788.235.425.575.042 1.086-.256 1.704m19.143-2.045c-.468.298-.83-.022-1.17-.32-.086-.064-.17-.106-.256-.15-.19.107-.362.193-.574.32-.363-.873-.788-1.704-1.62-2.28-.403.47-.04.747.17.98.45.448.704.96.492 1.535-.17.47-.512.852-.064 1.342.297.34.447.83 1.022.894.17.02.34.342.404.533.235.725.447 1.47.64 2.195-.427-.128-.555-.896-1.236-.597.532 1.13 1.064 2.237 1.704 3.515-.405-.15-.576-.234-.852-.32-.064.427-.13.79-.213 1.215-.553-.212-.596-.64-.746-1-.17-.384-.298-.832-.532-1.173-.106-.17-.447-.192-.682-.277-.042.213-.127.426-.127.64 0 .19.085.383.127.575-.19.148-.362.298-.574.468.957 2.003 1.17 4.156 1.873 6.286-.32-.064-.512-.128-.895-.213.086.62.17 1.13.235 1.705H93.5c.023.257.023.49.044.704 0 .148.085.404.02.468-.425.298-.213.638-.148 1 .213 1.258.383 2.515.894 3.708.213.448.532 1.065-.192 1.513-.127.084-.17.532-.085.744.575 1.47-.128 2.9-.085 4.39-.192-.576-.383-1.13-.576-1.705h-1.128c-.213.682.298 1.256.406 1.98-.427.107-.597.406-.597.896.02.49-.043 1.023-.19 1.49-.152.47-.47.49-.79.13-.063-.086-.085-.236-.17-.257-.17-.065-.383-.128-.532-.086-.084.02-.192.277-.17.406.022.233.15.447.234.68.17.47.384.94.532 1.407.214.64.214 1.257-.233 1.897-.064-.278-.107-.533-.192-.724-.084-.172-.254-.278-.383-.427-.148.15-.32.298-.468.448-.044.086-.044.192-.065.3-.51.19-.85.062-.936-.513-.022-.213-.022-.426-.11-.596-.062-.106-.275-.234-.403-.234-.106.022-.318.192-.318.3-.023.34 0 .68.04 1 .107.96.213 1.896.3 2.748-.492.405-.917.682-1.237 1.045-.15.19-.128.573-.106.872.02.66.085 1.32.127 1.982-.276.15-.49.234-.787.362-.022-.34-.107-.64-.064-.916.15-.746-.362-1.194-.68-1.727-.065-.085-.32-.17-.427-.127-.128.042-.256.256-.256.384 0 .362.086.745.128 1.108.085 1.044.32 2.088-.128 3.11-.553-.17-.745-.554-.745-1.086v-2.728c0-.256 0-.49-.064-.703-.04-.127-.233-.275-.36-.275-.128 0-.32.148-.363.254-.085.235-.064.468-.085.703 0 .894.043 1.77 0 2.643-.042.596-.213 1.17-.34 1.81-.427-.063-.81-.426-1.023.107-.128.298-.256.596-.363.852-.213-.277-.49-.554-.68-.874-.086-.147-.065-.383-.065-.574.02-.618.064-1.214.085-1.832.02-.554-.064-1.086.51-1.534.278-.235.214-.874.32-1.364.235-.022.618.042.767-.106.17-.192.192-.554.192-.853-.02-1.363.128-2.748-.34-4.133-.13-.363.255-1 .574-1.407.19-.276.66-.36 1.086-.575.15.512.277.896.405 1.385.66-.49.384-1.17.597-1.704.192-.512.36-1.044.554-1.577.065.02.128.02.192.043.107.296.192.574.362 1.085.19-.34.383-.51.383-.68 0-2.004.682-3.858 1.065-5.776.043-.172.19-.405.32-.448.49-.128.553-.49.532-.853-.085-1.684.234-3.388-.298-5.05-.064-.213-.043-.512.063-.682.36-.618.36-1.3.32-1.96-.065-1.214-.17-2.43-.257-3.687.277-.04.597 0 .724-.147.15-.15.192-.47.192-.725.042-1.193 0-2.366-.384-3.516-.256-.788-.128-1.704-.66-2.43-.064-.126.02-.382.063-.574.15-.554.042-1.044-.51-1.278-.47-.235-.556-.618-.49-1.002.126-.703.36-1.363.552-2.045.02-.085.128-.192.192-.192.51-.084.554-.425.533-.83 0-.34 0-.66.34-.895.107-.085.213-.32.17-.448-.17-.745.32-1.235.62-1.832.084-.192.105-.49.084-.725-.127-.787-.298-1.576-.447-2.385-.02-.128-.043-.278 0-.406.064-.17.15-.405.298-.448.13-.064.384.043.512.17.47.448.448.448 1.13.49.042.32.063.66.084.98.064 1.087.574 2.025.98 2.984.063.106.148.213.255.32.342.276.64.192.746-.235.086-.255.15-.532.234-.894.554.47 1.002.81 1.427 1.215.32.298.617.426.916.022.298-.405.553-.278.81.043.234.276.51.532.723.83.15.214.32.47.34.704.065.424.128.936-.32 1.192" fill="#6E6E6D"/><path d="M66 134.17c.08.62-.005 1.278.392 1.83.203-.674.403-1.338.608-2-.327.065-.66.122-1 .17M36.886 70.235c.225.43.49.884.737 1.316 1.004-.647 1.864-1.445 2.028-2.847-.204-.302-.53-.69-.716-1.122-.103-.258-.04-.668.08-.948.35-.798.494-1.25.514-2.222-.348-.043-.717-.086-1.147-.13.083-.258.124-.43.185-.625.266-.777.083-1.187-.697-1.337-.614-.11-1.25-.087-1.842-.217-.76-.17-1.517-.387-2.213-.732-.41-.216-.717-.668-1.005-1.08-.47-.71-.45-.732-1.23-.538-.12.022-.245.043-.388.043-.04 0-.102-.065-.163-.086 0-.065-.042-.173-.02-.194.49-.475 1.044-.884 1.105-1.683 0-.064.328-.108.512-.108.205-.022.553.086.635-.022.655-.798 1.597-.41 2.376-.668.39-.13.9.172 1.372.28 0 .065-.02.15-.02.237-.184 0-.39-.022-.574 0-.533.064-1.045.085-1.557.194-.594.15-1.086.474-1.188 1.186-.083.777.08 1.424.778 1.856 1.024.625 2.13.82 3.298.668.696-.086 1.065-.625 1.106-1.467 0-.41-.06-.82-.082-1.272.574.02.84.388.983.84.124.303.164.648.206.993.163 1.338.265 2.654.43 3.99.04.325.162.65.306.95.47.993.41 1.575-.287 2.353.02.323.122.647.02.885-.39.884-.574 1.876-1.23 2.653-.348.388-.41 1.057-.552 1.597-.123.41-.287.625-.738.323-.062.496-.636.884-.103 1.424.04.043-.02.194-.04.28-.144.67-.288 1.317-.45 1.986-.043.15-.063.41-.165.474-.88.496-1.126 1.747-2.274 1.963-.307.065-.574.517-.82.82-.143.15-.184.388-.327.495-.143.13-.368.174-.553.26-.06-.216-.224-.475-.163-.626.348-.777.778-1.618 1.598-1.855 1.044-.303 1.167-1.145 1.557-2.05-.595 0-.944-.195-.882-.842.02-.194-.247-.453-.41-.712.306-.648.574-1.36.327-2.114-.614-.324-1.065-.734-.922-1.532 0-.043.04-.086.02-.107-.613-.734 0-1.532-.122-2.287-.04-.28-.02-.583-.142-.8-.184-.322-.103-.538.082-.818.225-.346.37-.755.532-1.1-.737-.583-1.332-1.08-1.946-1.576-.082-.064-.184-.13-.204-.215-.062-.237-.206-.54-.123-.69.162-.303.49-.195.654.042.43.56 1.045.776 1.64 1.057.204.086.408.237.614.237.84.065 1.25.67 1.618 1.316.123.26.205.453.51.517.432.108.555.454.39.885-.306.82-.613 1.64-.92 2.503M32.557 42.088c.042-.322.105-.75.146-1.18.043-.343-.104-.772.315-.88.21-.063.502.172.795.28-.063-.836.712-1.48.628-2.38-.02-.172.273-.43.482-.536.398-.257.753-.493.858-1.05.02-.194.272-.408.46-.558.314-.236.67-.408 1.005-.622.48-.3.732-.193.753.408.02.47-.104.857-.502 1.243-.502.493-1.193.922-1.193 1.822 0 .215-.23.45-.355.686-.147.237-.335.473-.46.73-.294.515-.21 1.31-1.026 1.48-.126.022-.168.365-.273.515-.168.214-.335.515-.544.536-.67.15-.984.666-1.32 1.137-.29.43-.564.75-.982.665-.795 1.415-1.528 2.745-2.323 4.03-.376.602-.877 1.138-1.4 1.588-1.32 1.093-2.7 2.08-4.04 3.13-.314.257-.565.6-.9.816-.146.085-.44.064-.606-.022-.083-.022-.105-.386-.02-.515.208-.387.46-.73.752-1.05.565-.56.963-1.202 1.193-1.974.04-.172.313-.322.5-.365.085-.02.252.258.336.43.042.064 0 .193 0 .3 0 .065.02.13.042.343.942-.728 1.38-1.694 1.8-2.658.522-1.18 1.088-2.337 1.694-3.474.272-.47.545-1.05 1.255-1.007.503-.686 1.717-.472 1.947-1.586.02-.108.48-.13.983-.28M66 35.89c.09-.484.205-1.19.387-1.85.204-.725.477-1.452.75-2.156.068-.198.295-.352.477-.507.205-.153.478-.285.614-.484.568-1.035 1.114-2.09 1.66-3.125.18-.33.227-.97.84-.706.5.198.182.66.046.99-.568 1.564-1.137 3.106-1.727 4.646-.16.375-.364.75-.524 1.1.296.882.887 1.652.57 2.71-.114.395.226.923.385 1.364.068.198.296.33.364.528.068.132.114.397.046.463-.16.11-.41.153-.592.132-.18-.045-.386-.177-.545-.33-.5-.53-1-1.08-1.522-1.63-.342-.352-.728-.683-1.228-1.145M65.845 54.727c-.12-.24-.19-.526-.356-.658-.947-.725-1.04-1.8-1.42-2.744-.093-.242-.307-.46-.496-.658-.757-.747-.757-.878-.047-1.712.094-.088.118-.242.213-.352.496-.79 1.253-.768 1.986-.153 1.065.945.876 2.13.947 3.27.047.682-.047 1.317.236 2.02.236.68 0 1.448-.57 2.02-.14.153-.448.174-.66.24-.07-.22-.19-.417-.166-.614.047-.24.212-.44.33-.66M52.995 43c.11.02.152.02.174.043.3.107.925 1.486.818 1.81-.108.278-.216.58-.368.838-.69 1.23-.668 2.52-.473 3.877.108.624.086 1.27.064 1.916-.02.173-.258.345-.387.517-.13-.15-.323-.258-.366-.43-.13-.625-.215-1.25-.345-1.895-.065-.216-.15-.43-.26-.646-.128-.303-.387-.604-.43-.905-.043-.647-.323-.99-.948-1.142-.173-.064-.302-.3-.474-.452.172-.15.3-.365.495-.45.367-.195.776-.39 1.186-.497.885-.257 1.036-.882 1.014-1.657-.022-.215-.022-.43.022-.603.042-.15.193-.237.28-.323M43 49.32c-.11.224-.352.49-.396.773-.198 1.303-1.142 2.3-1.648 3.46-.175.366-.285.773-.483 1.14-.088.142-.286.265-.46.305-.11.02-.287-.163-.375-.285-.088-.122-.11-.305-.198-.427-.132-.265-.417-.468-.44-.733-.02-.142.396-.305.506-.51.132-.243.198-.527.242-.813.088-.468.11-.957.198-1.425.02-.142.11-.305.24-.407.33-.264.595-.528.53-.976-.024-.143.108-.367.24-.408.506-.143.88-.367 1.143-.855.13-.265.526-.184.636.12.132.286.176.612.264 1.04M32.082 105.2c.05-.538.47-.992-.032-1.423.21-.54-.292-1.123.113-1.705.13-.194.05-.647.065-.993.016-.346.048-.714.064-1.08.39.086.357.366.357.626 0 1.187 0 2.353.015 3.54 0 .064 0 .172.032.172.195.13.373.28.276.604-.114.324-.276.626-.454 1.058-.18-.345-.308-.56-.438-.8M27 101.115c-.19.58-.19.58-.898.9-.19.643-.377 1.264-.613 1.985-.332-.18-.568-.3-.828-.42.354-.48.637-.902 1.04-1.463-.663.12-1.135.22-1.702.32.166-.52.638-.5.968-.64.355-.16.78-.282.993-.52.356-.402.662-.282 1.04-.162M33.436 87c-.402-1.39-.748-2.695.026-4 .134.043.214.064.214.086.106.94.24 1.882.32 2.845.027.386-.08.77-.56 1.07M28.586 95c-.215-1.09-.39-1.987-.586-2.883.06-.04.118-.08.176-.117.254.312.587.565.743.896.194.448.02 1.5-.334 2.104M65.518 99c-.536-.19-.98-.314-1.39-.503-.09-.047-.09-.284-.128-.44.167-.017.334-.08.482-.048.39.093.778.188 1.148.33.167.062.26.235.37.346-.167.11-.314.204-.482.314M32.72 99c-.268-1.467-1.406-2.555-1.72-4 .827.934 1.452 2 1.944 3.134.112.222.022.556.022.82-.09.024-.157.024-.246.046" fill="#6E6E6D"/><path d="M27.034 90c1.054.865 1.054 1.92.88 3-.66-.815-1.033-1.727-.88-3M36 59.41c.14-.11.26-.196.447-.336-.11-.31-.2-.534-.293-.787.123-.337.4-.393.63-.084.263.394.294 1.096.047 1.518-.26.45-.476.365-.83-.31M36.88 90c-.214-.02-.4 0-.533-.065-.16-.086-.347-.236-.347-.366 0-.368.373-.41.72-.41.426.02.88-.41 1.252.063.08.11-.027.303-.107.454-.053.064-.186.13-.293.172-.24.064-.48.107-.692.15M67.165 87c.262.154.526.268.742.44.078.078.062.307.093.48-.108.02-.232.096-.34.077-.155-.04-.31-.135-.464-.23-.264-.172-.248-.42-.03-.767M35.368 95c-.147-.213-.25-.355-.368-.498.103-.165.192-.45.31-.473.206-.072.427 0 .65.07.028 0 .057.355.028.38-.192.19-.383.33-.62.52M40.507 98c-.202-.256-.354-.427-.507-.618.17-.128.32-.32.507-.363.237-.065.524.02.49.426-.016.19-.27.32-.49.554M61.63 93c-.193-.072-.322-.072-.387-.168-.098-.12-.162-.313-.243-.482.113-.12.227-.288.356-.337.08-.048.178.05.29.096.196.07.438.168.325.577-.047.17-.258.24-.34.313M39.26 94c-.072-.087-.234-.196-.252-.348-.072-.28.34-.673.646-.65.126 0 .305.195.34.325.055.282-.34.65-.735.673M33.245 98c.453 1.082.34 1.918.255 3-.567-.787-.65-1.795-.255-3M70 90.683c-.207.158-.34.333-.452.316-.377-.02-.51-.334-.547-.633-.017-.105.152-.245.246-.367.227.21.453.42.754.683M28.832 102c.368 1.477.147 1.932-.832 2 .245-.59.515-1.205.832-2M42.453 97c-.197-.24-.335-.394-.453-.548.178-.153.335-.37.513-.437.257-.066.553.087.474.416-.04.198-.296.33-.534.57M40.573 89c.21.212.423.34.423.468.043.383-.254.532-.572.532-.148 0-.297-.19-.424-.32.17-.19.34-.404.573-.68M66 93.584c-.115.42-.307.532-.557.288-.174-.177-.29-.443-.443-.687.135-.067.327-.222.423-.177.212.155.404.398.577.576M34.308 102c-.312-.6-.51-1.222.028-2 .368.8.255 1.4-.028 2M30.312 94c-.113-.328-.198-.657-.312-.972.114-.014.227-.028.34-.028.34.3.653.6.313.97-.113.016-.227.016-.34.03M67.545 89c.227.302.425.49.453.68.028.093-.283.226-.453.32-.17-.15-.453-.32-.538-.51-.057-.075.256-.226.538-.49M44 91.382c-.25.295-.41.536-.59.616-.114.028-.43-.32-.41-.375.07-.24.228-.508.41-.615.09-.054.317.187.59.374M45.448 92c-.21-.262-.494-.5-.442-.57.104-.19.338-.357.572-.43.104-.023.468.31.417.382-.052.214-.287.356-.547.618M66.49 89c.226.31.424.476.51.69 0 .07-.37.333-.426.308-.227-.094-.453-.26-.567-.45-.057-.072.227-.286.482-.548M35.46 102v1c-.653-.328-.454-.673-.34-1h.34zM63.51 92c.228.243.483.413.455.486-.114.195-.34.39-.54.512-.056.025-.452-.244-.424-.317.086-.218.284-.388.51-.68M60.425 97c-.198-.276-.396-.47-.425-.662 0-.11.34-.385.397-.33.2.082.397.275.454.468.03.082-.226.275-.425.524M65.936 90.542c-.312.085-.538.227-.68.17-.114-.057-.17-.312-.256-.482.17-.084.37-.255.51-.227.143.028.228.284.426.54M66.964 87.396c-.255.17-.425.396-.566.368-.143 0-.398-.226-.398-.368.028-.142.255-.396.398-.396.14 0 .31.198.566.396" fill="#6E6E6D"/></g></svg>
