<?xml version="1.0" encoding="UTF-8"?>
<svg width="65px" height="65px" viewBox="0 0 65 65" version="1.1" xmlns="http://www.w3.org/2000/svg" xmlns:xlink="http://www.w3.org/1999/xlink">
    <!-- Generator: Sketch 46.2 (44496) - http://www.bohemiancoding.com/sketch -->
    <title>preloader_small</title>
    <desc>Created with Sketch.</desc>
    <defs>
        <polygon id="path-1" points="32.0511991 64.2369722 64.102037 64.2369722 64.102037 0.00012037037 32.0511991 0.00012037037 0.000361111111 0.00012037037 0.000361111111 64.2369722"></polygon>
        <path d="M60.6441574,41.784287 L56.0881389,33.0526204 L62.2125833,33.0526204 C62.1126759,36.1040093 61.5794352,39.0229907 60.6441574,41.784287 L60.6441574,41.784287 Z M48.9032315,46.8241944 L48.9032315,39.1301204 L54.3186944,33.700213 L59.4452685,43.4959537 L48.9032315,46.8241944 Z M54.023787,52.8439167 L49.7121204,48.5093796 L59.1010093,45.5591019 C57.7769352,48.2385463 56.0628611,50.7049352 54.023787,52.8439167 L54.023787,52.8439167 Z M45.4702685,59.2223426 L48.3880463,49.8358611 L52.7249907,54.1643796 C50.5727685,56.2094722 48.1436944,57.8958611 45.4702685,59.2223426 L45.4702685,59.2223426 Z M33.6101759,54.4604907 L39.0256389,49.0257685 L46.6944352,49.0257685 L43.4119352,59.6003056 L33.6101759,54.4604907 Z M32.9950833,62.3688241 L32.9950833,56.23475 L41.6990648,60.7955833 C38.9510093,61.739287 36.0079537,62.27975 32.9950833,62.3688241 L32.9950833,62.3688241 Z M27.698787,49.0257685 L36.4027685,49.0257685 L32.04175,53.3795648 L27.698787,49.0257685 Z M31.1064722,62.3688241 C28.0936019,62.27975 25.15175,61.739287 22.4024907,60.7955833 L31.1064722,56.23475 L31.1064722,62.3688241 Z M17.4011019,49.0257685 L25.0759167,49.0257685 L30.4913796,54.4604907 L20.6896204,59.6003056 L17.4011019,49.0257685 Z M11.3765648,54.1643796 L15.7135093,49.8358611 L18.631287,59.2223426 C15.9831389,57.8958611 13.528787,56.2094722 11.3765648,54.1643796 L11.3765648,54.1643796 Z M5.00175,45.5591019 L14.3894352,48.5093796 L10.0524907,52.8439167 C8.03869444,50.7049352 6.32582407,48.2385463 5.00175,45.5591019 L5.00175,45.5591019 Z M9.78286111,33.700213 L15.1983241,39.1301204 L15.1983241,46.8241944 L4.63100926,43.4959537 L9.78286111,33.700213 Z M1.88897222,33.0526204 L7.98813889,33.0526204 L3.45739815,41.784287 C2.52212037,39.0229907 1.98286111,36.1040093 1.88897222,33.0526204 L1.88897222,33.0526204 Z M3.45739815,22.4648426 L7.98813889,31.1844722 L1.88897222,31.1844722 C1.98286111,28.1451204 2.52212037,25.2201204 3.45739815,22.4648426 L3.45739815,22.4648426 Z M15.1983241,27.7683611 L15.1983241,36.4687315 L10.8565648,32.1281759 L15.1983241,27.7683611 Z M15.1983241,17.4321574 L15.1983241,25.1129907 L9.78286111,30.5741944 L4.63100926,20.7411389 L15.1983241,17.4321574 Z M10.0524907,11.4124352 L14.3894352,15.727713 L5.00175,18.6840093 C6.32582407,15.9985463 8.03869444,13.5694722 10.0524907,11.4124352 L10.0524907,11.4124352 Z M18.631287,5.0135463 L15.7135093,14.4000278 L11.3765648,10.08475 C13.528787,8.06493519 15.9831389,6.3484537 18.631287,5.0135463 L18.631287,5.0135463 Z M30.4913796,9.78863889 L25.0759167,15.2366019 L17.4011019,15.2366019 L20.6896204,4.64882407 L30.4913796,9.78863889 Z M31.1064722,1.89956481 L31.1064722,8.02160185 L22.4024907,3.44150926 C25.15175,2.51586111 28.0936019,1.97539815 31.1064722,1.89956481 L31.1064722,1.89956481 Z M36.4027685,15.2366019 L27.698787,15.2366019 L32.04175,10.8960463 L36.4027685,15.2366019 Z M32.9950833,1.89956481 C36.0079537,1.97539815 38.9510093,2.51586111 41.6990648,3.44150926 L32.9950833,8.02160185 L32.9950833,1.89956481 Z M46.6944352,15.2366019 L39.0256389,15.2366019 L33.6101759,9.78863889 L43.4119352,4.64882407 L46.6944352,15.2366019 Z M43.3048056,42.0948426 L36.0332315,34.8232685 C36.3955463,34.2900278 36.6495278,33.6785463 36.774713,33.0213241 L47.0398981,33.0213241 L47.0398981,38.3441019 L43.3048056,42.0948426 Z M47.0398981,40.9982685 L47.0398981,47.1576204 L40.8889722,47.1576204 L47.0398981,40.9982685 Z M32.9541574,36.8430833 C33.6113796,36.7178981 34.2228611,36.4639167 34.7561019,36.1003981 L42.031287,43.3743796 L38.2661019,47.1576204 L32.9541574,47.1576204 L32.9541574,36.8430833 Z M22.0714722,43.3743796 L29.3454537,36.1003981 C29.8786944,36.4639167 30.4901759,36.7178981 31.1486019,36.8430833 L31.1486019,47.1576204 L25.8354537,47.1576204 L22.0714722,43.3743796 Z M17.0616574,40.9982685 L23.2125833,47.1576204 L17.0616574,47.1576204 L17.0616574,40.9982685 Z M27.3268426,33.0213241 C27.4520278,33.6785463 27.7060093,34.2900278 28.0695278,34.8232685 L20.79675,42.0948426 L17.0616574,38.3441019 L17.0616574,33.0213241 L27.3268426,33.0213241 Z M20.8051759,22.1494722 L28.0695278,29.4138241 C27.7060093,29.9470648 27.4520278,30.5573426 27.3268426,31.2157685 L17.0616574,31.2157685 L17.0616574,25.900213 L20.8051759,22.1494722 Z M25.8354537,17.1107685 L31.1486019,17.1107685 L31.1486019,27.3940093 C30.4901759,27.5191944 29.8786944,27.7731759 29.3454537,28.1366944 L22.0811019,20.8723426 L25.8354537,17.1107685 Z M17.0616574,23.2520648 L17.0616574,17.1107685 L23.2125833,17.1107685 L17.0616574,23.2520648 Z M42.0204537,20.8723426 L34.7561019,28.1366944 C34.2228611,27.7731759 33.6113796,27.5191944 32.9541574,27.3940093 L32.9541574,17.1107685 L38.2661019,17.1107685 L42.0204537,20.8723426 Z M47.0398981,23.2520648 L40.8889722,17.1107685 L47.0398981,17.1107685 L47.0398981,23.2520648 Z M47.0398981,25.900213 L47.0398981,31.2157685 L36.774713,31.2157685 C36.6495278,30.5573426 36.3955463,29.9470648 36.0332315,29.4138241 L43.2963796,22.1494722 L47.0398981,25.900213 Z M52.7249907,10.08475 L48.3880463,14.4000278 L45.4702685,5.0135463 C48.1436944,6.3484537 50.5727685,8.06493519 52.7249907,10.08475 L52.7249907,10.08475 Z M59.1010093,18.6840093 L49.7121204,15.727713 L54.023787,11.4124352 C56.0628611,13.5694722 57.7769352,15.9985463 59.1010093,18.6840093 L59.1010093,18.6840093 Z M53.2389722,32.1281759 L48.9032315,36.4687315 L48.9032315,27.7683611 L53.2389722,32.1281759 Z M54.3186944,30.5741944 L48.9032315,25.1129907 L48.9032315,17.4321574 L59.4452685,20.7411389 L54.3186944,30.5741944 Z M62.2125833,31.1844722 L56.0881389,31.1844722 L60.6441574,22.4648426 C61.5794352,25.2201204 62.1126759,28.1451204 62.2125833,31.1844722 L62.2125833,31.1844722 Z M54.714713,9.41067593 C48.9032315,3.59197222 40.8889722,0.00012037037 32.04175,0.00012037037 C23.2125833,0.00012037037 15.1983241,3.59197222 9.3880463,9.41067593 C3.60184259,15.2113241 0.000361111111,23.2520648 0.000361111111,32.1281759 C0.000361111111,40.9982685 3.60184259,49.0257685 9.3880463,54.825213 C15.1983241,60.6583611 23.2125833,64.2369722 32.04175,64.2369722 C40.8889722,64.2369722 48.9032315,60.6583611 54.714713,54.825213 C60.499713,49.0257685 64.1023981,40.9982685 64.1023981,32.1281759 C64.1023981,23.2520648 60.499713,15.2113241 54.714713,9.41067593 L54.714713,9.41067593 Z" id="path-3"></path>
    </defs>
    <g id="trash" stroke="none" stroke-width="1" fill="none" fill-rule="evenodd">
        <g id="preloader_small" transform="translate(32.500000, 32.500000) rotate(-180.000000) translate(-32.500000, -32.500000) ">
            <mask id="mask-2" fill="white">
                <use xlink:href="#path-1"></use>
            </mask>
            <g id="Clip-2"></g>
            <mask id="mask-4" fill="white">
                <use xlink:href="#path-3"></use>
            </mask>
            <use id="Fill-1" fill="#FFFFFF" xlink:href="#path-3"></use>
            <circle id="Oval" fill="#BD8F65" mask="url(#mask-4)" transform="translate(32.000000, 32.000000) scale(-1, 1) translate(-32.000000, -32.000000) " cx="32" cy="32" r="33"></circle>
        </g>
    </g>
</svg>
