<svg width="65" height="65" viewBox="0 0 65 65" xmlns="http://www.w3.org/2000/svg" xmlns:xlink="http://www.w3.org/1999/xlink"><defs><path id="a" d="M32.05 64.237h32.052V0H0v64.237z"/><path d="M60.644 41.784l-4.556-8.73h6.125c-.1 3.05-.634 5.97-1.57 8.73zm-11.74 5.04V39.13l5.415-5.43 5.125 9.796-10.542 3.328zm5.12 6.02l-4.312-4.335 9.39-2.95c-1.325 2.68-3.04 5.145-5.078 7.284zm-8.554 6.378l2.918-9.386 4.337 4.328c-2.152 2.045-4.58 3.732-7.255 5.058zM33.61 54.46l5.416-5.434h7.668L43.412 59.6l-9.802-5.14zm-.615 7.91v-6.135l8.704 4.56c-2.75.944-5.692 1.485-8.705 1.574zM27.7 49.025h8.703l-4.36 4.354-4.344-4.354zm3.406 13.343c-3.012-.09-5.954-.63-8.704-1.574l8.704-4.56v6.133zM17.4 49.025h7.676l5.415 5.434-9.8 5.14-3.29-10.574zm-6.023 5.138l4.337-4.328 2.917 9.386c-2.647-1.326-5.1-3.013-7.253-5.058zM5.002 45.56l9.387 2.95-4.338 4.334c-2.013-2.14-3.726-4.605-5.05-7.285zm4.78-11.86l5.416 5.43v7.694L4.63 43.496 9.784 33.7zm-7.893-.647h6.098l-4.53 8.73c-.936-2.76-1.475-5.68-1.57-8.73zm1.567-10.588l4.53 8.72H1.89c.093-3.04.632-5.965 1.567-8.72zm11.74 5.303v8.7l-4.34-4.34 4.34-4.36zm0-10.336v7.68l-5.414 5.462L4.63 20.74 15.2 17.433zm-5.145-6.02l4.337 4.316L5 18.684C6.326 16 8.04 13.57 10.052 11.412zm8.58-6.398L15.713 14.4l-4.337-4.315c2.152-2.02 4.606-3.737 7.254-5.07zM30.49 9.79l-5.416 5.447H17.4L20.69 4.65l9.8 5.14zm.614-7.89v6.122l-8.704-4.58c2.75-.926 5.692-1.467 8.704-1.542zm5.297 13.337H27.7l4.342-4.34 4.36 4.34zM32.995 1.9c3.013.075 5.956.616 8.704 1.542l-8.705 4.58V1.9zm13.7 13.337h-7.67L33.61 9.79l9.802-5.14 3.282 10.587zm-3.39 26.858l-7.272-7.272c.363-.533.617-1.144.742-1.802H47.04v5.324l-3.735 3.75zm3.735-1.097v6.16h-6.15l6.15-6.16zm-14.086-4.155c.657-.125 1.27-.38 1.802-.743l7.275 7.274-3.764 3.784h-5.312V36.843zm-10.883 6.53l7.275-7.273c.534.364 1.145.618 1.804.743v10.315h-5.315l-3.764-3.784zM17.063 41l6.15 6.16h-6.15v-6.16zm10.265-7.977c.125.66.38 1.27.743 1.803l-7.273 7.272-3.735-3.75V33.02h10.265zm-6.522-10.87l7.265 7.264c-.364.533-.618 1.143-.743 1.802H17.062V25.9l3.743-3.75zm5.03-5.04h5.314v10.284c-.66.125-1.27.38-1.805.743l-7.264-7.265 3.755-3.76zm-8.773 6.142v-6.14h6.15l-6.15 6.14zm24.958-2.38l-7.264 7.265c-.533-.364-1.145-.618-1.802-.743V17.11h5.312l3.754 3.762zm5.02 2.38l-6.15-6.14h6.15v6.14zm0 2.648v5.316H36.775c-.125-.66-.38-1.27-.742-1.802l7.263-7.265 3.744 3.75zm5.685-15.815L48.388 14.4 45.47 5.014c2.674 1.334 5.103 3.05 7.255 5.07zm6.376 8.6l-9.388-2.957 4.312-4.316c2.04 2.157 3.753 4.587 5.077 7.272zm-5.86 13.443l-4.337 4.34v-8.7l4.336 4.36zm1.08-1.554l-5.417-5.46V17.43l10.542 3.31-5.126 9.832zm7.893.61h-6.125l4.556-8.72c.935 2.756 1.47 5.68 1.57 8.72zM54.715 9.41C48.903 3.593 40.89 0 32.042 0c-8.83 0-16.844 3.592-22.654 9.41C3.602 15.21 0 23.253 0 32.13c0 8.87 3.602 16.898 9.388 22.697 5.81 5.833 13.825 9.412 22.654 9.412 8.847 0 16.86-3.58 22.673-9.412 5.785-5.8 9.387-13.827 9.387-22.697 0-8.876-3.602-16.917-9.387-22.717z" id="b"/></defs><g transform="rotate(-180 32.5 32.5)" fill="none" fill-rule="evenodd"><mask id="c" fill="#fff"><use xlink:href="#b"/></mask><use fill="#FFF" xlink:href="#b"/><circle fill="#BD8F65" mask="url(#c)" transform="matrix(-1 0 0 1 64 0)" cx="32" cy="32" r="33"/></g></svg>
